# MagicaVoxel @ Ephtracy

# group
o 

# material
mtllib BrazoIzq.mtl
usemtl palette

# normals
vn -1 0 0
vn 1 0 0
vn 0 0 1
vn 0 0 -1
vn 0 -1 0
vn 0 1 0

# texcoords
vt 0.0605469 0.5
vt 0.900391 0.5
vt 0.904297 0.5

# verts
v 0.2 2.4 0.2
v 0.2 2.4 -0.3
v 0.2 2.6 0.2
v 0.2 2.6 -0.3
v 0.3 1.4 0.0999999
v 0.3 1.4 -0.2
v 0.3 2.3 0.2
v 0.3 2.3 0.0999999
v 0.3 2.3 -0.2
v 0.3 2.3 -0.3
v 0.3 2.4 0.2
v 0.3 2.4 -0.3
v 0.5 1.4 0.0999999
v 0.5 1.4 -0.2
v 0.5 2.3 0.2
v 0.5 2.3 0.0999999
v 0.5 2.3 -0.2
v 0.5 2.3 -0.3
v 0.5 2.4 0.2
v 0.5 2.4 -0.3
v 0.5 2.6 0.2
v 0.5 2.6 -0.3
v 0.2 2.4 0.2
v 0.2 2.6 0.2
v 0.3 2.3 0.2
v 0.3 2.4 0.2
v 0.5 2.3 0.2
v 0.5 2.4 0.2
v 0.5 2.6 0.2
v 0.3 1.4 0.0999999
v 0.3 2.3 0.0999999
v 0.5 1.4 0.0999999
v 0.5 2.3 0.0999999
v 0.3 1.4 -0.2
v 0.3 2.3 -0.2
v 0.5 1.4 -0.2
v 0.5 2.3 -0.2
v 0.2 2.4 -0.3
v 0.2 2.6 -0.3
v 0.3 2.3 -0.3
v 0.3 2.4 -0.3
v 0.5 2.3 -0.3
v 0.5 2.4 -0.3
v 0.5 2.6 -0.3
v 0.3 1.4 0.0999999
v 0.5 1.4 0.0999999
v 0.3 1.4 -0.2
v 0.5 1.4 -0.2
v 0.3 2.3 0.2
v 0.5 2.3 0.2
v 0.3 2.3 0.0999999
v 0.5 2.3 0.0999999
v 0.3 2.3 -0.2
v 0.5 2.3 -0.2
v 0.3 2.3 -0.3
v 0.5 2.3 -0.3
v 0.2 2.4 0.2
v 0.3 2.4 0.2
v 0.2 2.4 -0.3
v 0.3 2.4 -0.3
v 0.2 2.6 0.2
v 0.5 2.6 0.2
v 0.2 2.6 -0.3
v 0.5 2.6 -0.3

# faces
f 3/3/1 2/3/1 1/3/1
f 4/3/1 2/3/1 3/3/1
f 8/1/1 6/1/1 5/1/1
f 9/1/1 6/1/1 8/1/1
f 11/2/1 8/2/1 7/2/1
f 11/2/1 10/2/1 9/2/1
f 11/2/1 9/2/1 8/2/1
f 12/2/1 10/2/1 11/2/1
f 13/1/2 14/1/2 16/1/2
f 16/1/2 14/1/2 17/1/2
f 15/2/2 16/2/2 19/2/2
f 17/2/2 18/2/2 19/2/2
f 16/2/2 17/2/2 19/2/2
f 19/2/2 18/2/2 20/2/2
f 19/3/2 20/3/2 21/3/2
f 21/3/2 20/3/2 22/3/2
f 26/3/3 24/3/3 23/3/3
f 27/2/3 26/2/3 25/2/3
f 28/3/3 24/3/3 26/3/3
f 28/2/3 26/2/3 27/2/3
f 29/3/3 24/3/3 28/3/3
f 32/1/3 31/1/3 30/1/3
f 33/1/3 31/1/3 32/1/3
f 34/1/4 35/1/4 36/1/4
f 36/1/4 35/1/4 37/1/4
f 38/3/4 39/3/4 41/3/4
f 40/2/4 41/2/4 42/2/4
f 41/3/4 39/3/4 43/3/4
f 42/2/4 41/2/4 43/2/4
f 43/3/4 39/3/4 44/3/4
f 47/1/5 46/1/5 45/1/5
f 48/1/5 46/1/5 47/1/5
f 51/2/5 50/2/5 49/2/5
f 52/2/5 50/2/5 51/2/5
f 55/2/5 54/2/5 53/2/5
f 56/2/5 54/2/5 55/2/5
f 59/3/5 58/3/5 57/3/5
f 60/3/5 58/3/5 59/3/5
f 61/3/6 62/3/6 63/3/6
f 63/3/6 62/3/6 64/3/6
