# This file uses centimeters as units for non-parametric coordinates.

mtllib Rio.mtl
g default
v -48.519975 0.384170 -50.057584
v -38.520178 0.368477 -49.995944
v -28.520381 0.352784 -49.934303
v -18.520580 0.337087 -49.872665
v -8.520783 0.321393 -49.811025
v 1.479014 0.305696 -49.749385
v 11.478813 0.290003 -49.687745
v 21.478607 0.274306 -49.626103
v 31.478408 0.258613 -49.564463
v 41.478207 0.242920 -49.502823
v 51.478004 0.227222 -49.441185
v -48.503478 10.383359 -50.188068
v -38.503680 10.367665 -50.126428
v -28.503883 10.351972 -50.064786
v -18.504082 10.336275 -50.003147
v -8.504285 10.320582 -49.941507
v 1.495512 10.304885 -49.879867
v 11.495312 10.289191 -49.818229
v 21.495106 10.273498 -49.756587
v 31.494907 10.257801 -49.694947
v 41.494708 10.242108 -49.633307
v 51.494502 10.226411 -49.571667
v -48.486978 20.382446 -50.318670
v -38.487181 20.366751 -50.257031
v -28.487384 20.351056 -50.195391
v -18.487583 20.335360 -50.133753
v -8.487786 20.319667 -50.072111
v 1.512011 20.303972 -50.010471
v 11.511811 20.288277 -49.948831
v 21.511604 20.272582 -49.887191
v 31.511405 20.256887 -49.825551
v 41.511204 20.241193 -49.763911
v 51.511001 20.225498 -49.702271
v -48.470480 30.381638 -50.449177
v -38.470683 30.365943 -50.387537
v -28.470886 30.350248 -50.325897
v -18.471083 30.334553 -50.264257
v -8.471288 30.318858 -50.202618
v 1.528509 30.303164 -50.140978
v 11.528308 30.287469 -50.079338
v 21.528103 30.271774 -50.017698
v 31.527904 30.256079 -49.956058
v 41.527702 30.240386 -49.894418
v 51.527499 30.224689 -49.832778
v -48.453980 40.380758 -50.579734
v -38.454183 40.365063 -50.518092
v -28.454388 40.349368 -50.456452
v -18.454587 40.333673 -50.394812
v -8.454790 40.317978 -50.333172
v 1.545007 40.302283 -50.271534
v 11.544807 40.286589 -50.209892
v 21.544602 40.270894 -50.148252
v 31.544403 40.255200 -50.086612
v 41.544202 40.239504 -50.024973
v 51.543995 40.223809 -49.963333
v -48.437484 50.379878 -50.710288
v -38.437683 50.364182 -50.648648
v -28.437890 50.348488 -50.587008
v -18.438089 50.332793 -50.525366
v -8.438290 50.317099 -50.463727
v 1.561506 50.301403 -50.402089
v 11.561306 50.285709 -50.340449
v 21.561100 50.270014 -50.278809
v 31.560901 50.254319 -50.217167
v 41.560702 50.238624 -50.155527
v 51.560495 50.222930 -50.093887
v -48.420983 60.379008 -50.840839
v -38.421186 60.363313 -50.779199
v -28.421391 60.347618 -50.717559
v -18.421588 60.331923 -50.655919
v -8.421792 60.316228 -50.594279
v 1.578004 60.300534 -50.532639
v 11.577804 60.284839 -50.470999
v 21.577598 60.269144 -50.409359
v 31.577399 60.253450 -50.347720
v 41.577199 60.237754 -50.286080
v 51.576992 60.222059 -50.224440
v -48.404487 70.378117 -50.971397
v -38.404686 70.362422 -50.909757
v -28.404893 70.346727 -50.848117
v -18.405090 70.331032 -50.786477
v -8.405293 70.315338 -50.724838
v 1.594503 70.299643 -50.663198
v 11.594302 70.283948 -50.601558
v 21.594097 70.268253 -50.539918
v 31.593898 70.252558 -50.478278
v 41.593699 70.236865 -50.416638
v 51.593492 70.221170 -50.354998
v -48.387986 80.377309 -51.101900
v -38.388189 80.361614 -51.040260
v -28.388393 80.345919 -50.978620
v -18.388592 80.330224 -50.916980
v -8.388795 80.314531 -50.855340
v 1.611002 80.298836 -50.793701
v 11.610800 80.283140 -50.732061
v 21.610594 80.267445 -50.670421
v 31.610395 80.251750 -50.608781
v 41.610196 80.236055 -50.547141
v 51.609990 80.220362 -50.485501
v -48.371487 90.376366 -51.232497
v -38.371693 90.360673 -51.170857
v -28.371896 90.344980 -51.109217
v -18.372093 90.329283 -51.047577
v -8.372297 90.313589 -50.985937
v 1.627500 90.297896 -50.924297
v 11.627300 90.282199 -50.862655
v 21.627093 90.266506 -50.801017
v 31.626894 90.250809 -50.739377
v 41.626695 90.235116 -50.677737
v 51.626489 90.219419 -50.616098
v -48.354989 100.375581 -51.362992
v -38.355191 100.359888 -51.301352
v -28.355398 100.344195 -51.239712
v -18.355595 100.328498 -51.178072
v -8.355798 100.312805 -51.116430
v 1.643999 100.297111 -51.054790
v 11.643797 100.281414 -50.993152
v 21.643592 100.265721 -50.931513
v 31.643392 100.250024 -50.869873
v 41.643193 100.234331 -50.808231
v 51.642987 100.218634 -50.746591
vt 0.000000 0.000000
vt 0.100000 0.000000
vt 0.100000 0.100000
vt 0.000000 0.100000
vt 0.200000 0.000000
vt 0.200000 0.100000
vt 0.300000 0.000000
vt 0.300000 0.100000
vt 0.400000 0.000000
vt 0.400000 0.100000
vt 0.500000 0.000000
vt 0.500000 0.100000
vt 0.600000 0.000000
vt 0.600000 0.100000
vt 0.700000 0.000000
vt 0.700000 0.100000
vt 0.800000 0.000000
vt 0.800000 0.100000
vt 0.900000 0.000000
vt 0.900000 0.100000
vt 1.000000 0.000000
vt 1.000000 0.100000
vt 0.100000 0.200000
vt 0.000000 0.200000
vt 0.200000 0.200000
vt 0.300000 0.200000
vt 0.400000 0.200000
vt 0.500000 0.200000
vt 0.600000 0.200000
vt 0.700000 0.200000
vt 0.800000 0.200000
vt 0.900000 0.200000
vt 1.000000 0.200000
vt 0.100000 0.300000
vt 0.000000 0.300000
vt 0.200000 0.300000
vt 0.300000 0.300000
vt 0.400000 0.300000
vt 0.500000 0.300000
vt 0.600000 0.300000
vt 0.700000 0.300000
vt 0.800000 0.300000
vt 0.900000 0.300000
vt 1.000000 0.300000
vt 0.100000 0.400000
vt 0.000000 0.400000
vt 0.200000 0.400000
vt 0.300000 0.400000
vt 0.400000 0.400000
vt 0.500000 0.400000
vt 0.600000 0.400000
vt 0.700000 0.400000
vt 0.800000 0.400000
vt 0.900000 0.400000
vt 1.000000 0.400000
vt 0.100000 0.500000
vt 0.000000 0.500000
vt 0.200000 0.500000
vt 0.300000 0.500000
vt 0.400000 0.500000
vt 0.500000 0.500000
vt 0.600000 0.500000
vt 0.700000 0.500000
vt 0.800000 0.500000
vt 0.900000 0.500000
vt 1.000000 0.500000
vt 0.100000 0.600000
vt 0.000000 0.600000
vt 0.200000 0.600000
vt 0.300000 0.600000
vt 0.400000 0.600000
vt 0.500000 0.600000
vt 0.600000 0.600000
vt 0.700000 0.600000
vt 0.800000 0.600000
vt 0.900000 0.600000
vt 1.000000 0.600000
vt 0.100000 0.700000
vt 0.000000 0.700000
vt 0.200000 0.700000
vt 0.300000 0.700000
vt 0.400000 0.700000
vt 0.500000 0.700000
vt 0.600000 0.700000
vt 0.700000 0.700000
vt 0.800000 0.700000
vt 0.900000 0.700000
vt 1.000000 0.700000
vt 0.100000 0.800000
vt 0.000000 0.800000
vt 0.200000 0.800000
vt 0.300000 0.800000
vt 0.400000 0.800000
vt 0.500000 0.800000
vt 0.600000 0.800000
vt 0.700000 0.800000
vt 0.800000 0.800000
vt 0.900000 0.800000
vt 1.000000 0.800000
vt 0.100000 0.900000
vt 0.000000 0.900000
vt 0.200000 0.900000
vt 0.300000 0.900000
vt 0.400000 0.900000
vt 0.500000 0.900000
vt 0.600000 0.900000
vt 0.700000 0.900000
vt 0.800000 0.900000
vt 0.900000 0.900000
vt 1.000000 0.900000
vt 0.100000 1.000000
vt 0.000000 1.000000
vt 0.200000 1.000000
vt 0.300000 1.000000
vt 0.400000 1.000000
vt 0.500000 1.000000
vt 0.600000 1.000000
vt 0.700000 1.000000
vt 0.800000 1.000000
vt 0.900000 1.000000
vt 1.000000 1.000000
vn -0.006143 0.013064 0.999896
vn -0.006143 0.013064 0.999896
vn -0.006143 0.013064 0.999896
vn -0.006143 0.013064 0.999896
vn -0.006143 0.013064 0.999896
vn -0.006143 0.013064 0.999896
vn -0.006143 0.013064 0.999896
vn -0.006143 0.013064 0.999896
vn -0.006143 0.013064 0.999896
vn -0.006143 0.013064 0.999896
vn -0.006143 0.013064 0.999896
vn -0.006143 0.013064 0.999896
vn -0.006143 0.013064 0.999896
vn -0.006143 0.013064 0.999896
vn -0.006143 0.013064 0.999896
vn -0.006143 0.013064 0.999896
vn -0.006143 0.013064 0.999896
vn -0.006143 0.013064 0.999896
vn -0.006143 0.013064 0.999896
vn -0.006143 0.013064 0.999896
vn -0.006143 0.013064 0.999896
vn -0.006143 0.013064 0.999896
vn -0.006143 0.013064 0.999896
vn -0.006143 0.013064 0.999896
vn -0.006143 0.013064 0.999896
vn -0.006143 0.013064 0.999896
vn -0.006143 0.013064 0.999896
vn -0.006143 0.013064 0.999896
vn -0.006143 0.013064 0.999896
vn -0.006143 0.013064 0.999896
vn -0.006143 0.013064 0.999896
vn -0.006143 0.013064 0.999896
vn -0.006143 0.013064 0.999896
vn -0.006143 0.013064 0.999896
vn -0.006143 0.013064 0.999896
vn -0.006143 0.013064 0.999896
vn -0.006143 0.013064 0.999896
vn -0.006143 0.013064 0.999896
vn -0.006143 0.013064 0.999896
vn -0.006143 0.013064 0.999896
vn -0.006143 0.013064 0.999896
vn -0.006143 0.013064 0.999896
vn -0.006143 0.013064 0.999896
vn -0.006143 0.013064 0.999896
vn -0.006143 0.013064 0.999896
vn -0.006143 0.013064 0.999896
vn -0.006143 0.013064 0.999896
vn -0.006143 0.013064 0.999896
vn -0.006143 0.013064 0.999896
vn -0.006143 0.013064 0.999896
vn -0.006143 0.013064 0.999896
vn -0.006143 0.013064 0.999896
vn -0.006143 0.013064 0.999896
vn -0.006143 0.013064 0.999896
vn -0.006143 0.013064 0.999896
vn -0.006143 0.013064 0.999896
vn -0.006143 0.013064 0.999896
vn -0.006143 0.013064 0.999896
vn -0.006143 0.013064 0.999896
vn -0.006143 0.013064 0.999896
vn -0.006143 0.013064 0.999896
vn -0.006143 0.013064 0.999896
vn -0.006143 0.013064 0.999896
vn -0.006143 0.013064 0.999896
vn -0.006143 0.013064 0.999896
vn -0.006143 0.013064 0.999896
vn -0.006143 0.013064 0.999896
vn -0.006143 0.013064 0.999896
vn -0.006143 0.013064 0.999896
vn -0.006143 0.013064 0.999896
vn -0.006143 0.013064 0.999896
vn -0.006143 0.013064 0.999896
vn -0.006143 0.013064 0.999896
vn -0.006143 0.013064 0.999896
vn -0.006143 0.013064 0.999896
vn -0.006143 0.013064 0.999896
vn -0.006143 0.013064 0.999896
vn -0.006143 0.013064 0.999896
vn -0.006143 0.013064 0.999896
vn -0.006143 0.013064 0.999896
vn -0.006143 0.013064 0.999896
vn -0.006143 0.013064 0.999896
vn -0.006143 0.013064 0.999896
vn -0.006143 0.013064 0.999896
vn -0.006143 0.013064 0.999896
vn -0.006143 0.013064 0.999896
vn -0.006143 0.013064 0.999896
vn -0.006143 0.013064 0.999896
vn -0.006143 0.013064 0.999896
vn -0.006143 0.013064 0.999896
vn -0.006143 0.013064 0.999896
vn -0.006143 0.013064 0.999896
vn -0.006143 0.013064 0.999896
vn -0.006143 0.013064 0.999896
vn -0.006143 0.013064 0.999896
vn -0.006143 0.013064 0.999896
vn -0.006143 0.013064 0.999896
vn -0.006143 0.013064 0.999896
vn -0.006143 0.013064 0.999896
vn -0.006143 0.013064 0.999896
vn -0.006143 0.013064 0.999896
vn -0.006143 0.013064 0.999896
vn -0.006143 0.013064 0.999896
vn -0.006143 0.013064 0.999896
vn -0.006143 0.013064 0.999896
vn -0.006143 0.013064 0.999896
vn -0.006143 0.013064 0.999896
vn -0.006143 0.013064 0.999896
vn -0.006143 0.013064 0.999896
vn -0.006143 0.013064 0.999896
vn -0.006143 0.013064 0.999896
vn -0.006143 0.013064 0.999896
vn -0.006143 0.013064 0.999896
vn -0.006143 0.013064 0.999896
vn -0.006143 0.013064 0.999896
vn -0.006143 0.013064 0.999896
vn -0.006143 0.013064 0.999896
vn -0.006143 0.013064 0.999896
vn -0.006143 0.013064 0.999896
vn -0.006143 0.013064 0.999896
vn -0.006143 0.013064 0.999896
vn -0.006143 0.013064 0.999896
vn -0.006143 0.013064 0.999896
vn -0.006143 0.013064 0.999896
vn -0.006143 0.013064 0.999896
vn -0.006143 0.013064 0.999896
vn -0.006143 0.013064 0.999896
vn -0.006143 0.013064 0.999896
vn -0.006143 0.013064 0.999896
vn -0.006143 0.013064 0.999896
vn -0.006143 0.013064 0.999896
vn -0.006143 0.013064 0.999896
vn -0.006143 0.013064 0.999896
vn -0.006143 0.013064 0.999896
vn -0.006143 0.013064 0.999896
vn -0.006143 0.013064 0.999896
vn -0.006143 0.013064 0.999896
vn -0.006143 0.013064 0.999896
vn -0.006143 0.013064 0.999896
vn -0.006143 0.013064 0.999896
vn -0.006143 0.013064 0.999896
vn -0.006143 0.013064 0.999896
vn -0.006143 0.013064 0.999896
vn -0.006143 0.013064 0.999896
vn -0.006143 0.013064 0.999896
vn -0.006143 0.013064 0.999896
vn -0.006143 0.013064 0.999896
vn -0.006143 0.013064 0.999896
vn -0.006143 0.013064 0.999896
vn -0.006143 0.013064 0.999896
vn -0.006143 0.013064 0.999896
vn -0.006143 0.013064 0.999896
vn -0.006143 0.013064 0.999896
vn -0.006143 0.013064 0.999896
vn -0.006143 0.013064 0.999896
vn -0.006143 0.013064 0.999896
vn -0.006143 0.013064 0.999896
vn -0.006143 0.013064 0.999896
vn -0.006143 0.013064 0.999896
vn -0.006143 0.013064 0.999896
vn -0.006143 0.013064 0.999896
vn -0.006143 0.013064 0.999896
vn -0.006143 0.013064 0.999896
vn -0.006143 0.013064 0.999896
vn -0.006143 0.013064 0.999896
vn -0.006143 0.013064 0.999896
vn -0.006143 0.013064 0.999896
vn -0.006143 0.013064 0.999896
vn -0.006143 0.013064 0.999896
vn -0.006143 0.013064 0.999896
vn -0.006143 0.013064 0.999896
vn -0.006143 0.013064 0.999896
vn -0.006143 0.013064 0.999896
vn -0.006143 0.013064 0.999896
vn -0.006143 0.013064 0.999896
vn -0.006143 0.013064 0.999896
vn -0.006143 0.013064 0.999896
vn -0.006143 0.013064 0.999896
vn -0.006143 0.013064 0.999896
vn -0.006143 0.013064 0.999896
vn -0.006143 0.013064 0.999896
vn -0.006143 0.013064 0.999896
vn -0.006143 0.013064 0.999896
vn -0.006143 0.013064 0.999896
vn -0.006143 0.013064 0.999896
vn -0.006143 0.013064 0.999896
vn -0.006143 0.013064 0.999896
vn -0.006143 0.013064 0.999896
vn -0.006143 0.013064 0.999896
vn -0.006143 0.013064 0.999896
vn -0.006143 0.013064 0.999896
vn -0.006143 0.013064 0.999896
vn -0.006143 0.013064 0.999896
vn -0.006143 0.013064 0.999896
vn -0.006143 0.013064 0.999896
vn -0.006143 0.013064 0.999896
vn -0.006143 0.013064 0.999896
vn -0.006143 0.013064 0.999896
vn -0.006143 0.013064 0.999896
vn -0.006143 0.013064 0.999896
vn -0.006143 0.013064 0.999896
vn -0.006143 0.013064 0.999896
vn -0.006143 0.013064 0.999896
vn -0.006143 0.013064 0.999896
vn -0.006143 0.013064 0.999896
vn -0.006143 0.013064 0.999896
vn -0.006143 0.013064 0.999896
vn -0.006143 0.013064 0.999896
vn -0.006143 0.013064 0.999896
vn -0.006143 0.013064 0.999896
vn -0.006143 0.013064 0.999896
vn -0.006143 0.013064 0.999896
vn -0.006143 0.013064 0.999896
vn -0.006143 0.013064 0.999896
vn -0.006143 0.013064 0.999896
vn -0.006143 0.013064 0.999896
vn -0.006143 0.013064 0.999896
vn -0.006143 0.013064 0.999896
vn -0.006143 0.013064 0.999896
vn -0.006143 0.013064 0.999896
vn -0.006143 0.013064 0.999896
vn -0.006143 0.013064 0.999896
vn -0.006143 0.013064 0.999896
vn -0.006143 0.013064 0.999896
vn -0.006143 0.013064 0.999896
vn -0.006143 0.013064 0.999896
vn -0.006143 0.013064 0.999896
vn -0.006143 0.013064 0.999896
vn -0.006143 0.013064 0.999896
vn -0.006143 0.013064 0.999896
vn -0.006143 0.013064 0.999896
vn -0.006143 0.013064 0.999896
vn -0.006143 0.013064 0.999896
vn -0.006143 0.013064 0.999896
vn -0.006143 0.013064 0.999896
vn -0.006143 0.013064 0.999896
vn -0.006143 0.013064 0.999896
vn -0.006143 0.013064 0.999896
vn -0.006143 0.013064 0.999896
vn -0.006143 0.013064 0.999896
vn -0.006143 0.013064 0.999896
vn -0.006143 0.013064 0.999896
vn -0.006143 0.013064 0.999896
vn -0.006143 0.013064 0.999896
vn -0.006143 0.013064 0.999896
vn -0.006143 0.013064 0.999896
vn -0.006143 0.013064 0.999896
vn -0.006143 0.013064 0.999896
vn -0.006143 0.013064 0.999896
vn -0.006143 0.013064 0.999896
vn -0.006143 0.013064 0.999896
vn -0.006143 0.013064 0.999896
vn -0.006143 0.013064 0.999896
vn -0.006143 0.013064 0.999896
vn -0.006143 0.013064 0.999896
vn -0.006143 0.013064 0.999896
vn -0.006143 0.013064 0.999896
vn -0.006143 0.013064 0.999896
vn -0.006143 0.013064 0.999896
vn -0.006143 0.013064 0.999896
vn -0.006143 0.013064 0.999896
vn -0.006143 0.013064 0.999896
vn -0.006143 0.013064 0.999896
vn -0.006143 0.013064 0.999896
vn -0.006143 0.013064 0.999896
vn -0.006143 0.013064 0.999896
vn -0.006143 0.013064 0.999896
vn -0.006143 0.013064 0.999896
vn -0.006143 0.013064 0.999896
vn -0.006143 0.013064 0.999896
vn -0.006143 0.013064 0.999896
vn -0.006143 0.013064 0.999896
vn -0.006143 0.013064 0.999896
vn -0.006143 0.013064 0.999896
vn -0.006143 0.013064 0.999896
vn -0.006143 0.013064 0.999896
vn -0.006143 0.013064 0.999896
vn -0.006143 0.013064 0.999896
vn -0.006143 0.013064 0.999896
vn -0.006143 0.013064 0.999896
vn -0.006143 0.013064 0.999896
vn -0.006143 0.013064 0.999896
vn -0.006143 0.013064 0.999896
vn -0.006143 0.013064 0.999896
vn -0.006143 0.013064 0.999896
vn -0.006143 0.013064 0.999896
vn -0.006143 0.013064 0.999896
vn -0.006143 0.013064 0.999896
vn -0.006143 0.013064 0.999896
vn -0.006143 0.013064 0.999896
vn -0.006143 0.013064 0.999896
vn -0.006143 0.013064 0.999896
vn -0.006143 0.013064 0.999896
vn -0.006143 0.013064 0.999896
vn -0.006143 0.013064 0.999896
vn -0.006143 0.013064 0.999896
vn -0.006143 0.013064 0.999896
vn -0.006143 0.013064 0.999896
vn -0.006143 0.013064 0.999896
vn -0.006143 0.013064 0.999896
vn -0.006143 0.013064 0.999896
vn -0.006143 0.013064 0.999896
vn -0.006143 0.013064 0.999896
vn -0.006143 0.013064 0.999896
vn -0.006143 0.013064 0.999896
vn -0.006143 0.013064 0.999896
vn -0.006143 0.013064 0.999896
vn -0.006143 0.013064 0.999896
vn -0.006143 0.013064 0.999896
vn -0.006143 0.013064 0.999896
vn -0.006143 0.013064 0.999896
vn -0.006143 0.013064 0.999896
vn -0.006143 0.013064 0.999896
vn -0.006143 0.013064 0.999896
vn -0.006143 0.013064 0.999896
vn -0.006143 0.013064 0.999896
vn -0.006143 0.013064 0.999896
vn -0.006143 0.013064 0.999896
vn -0.006143 0.013064 0.999896
vn -0.006143 0.013064 0.999896
vn -0.006143 0.013064 0.999896
vn -0.006143 0.013064 0.999896
vn -0.006143 0.013064 0.999896
vn -0.006143 0.013064 0.999896
vn -0.006143 0.013064 0.999896
vn -0.006143 0.013064 0.999896
vn -0.006143 0.013064 0.999896
vn -0.006143 0.013064 0.999896
vn -0.006143 0.013064 0.999896
vn -0.006143 0.013064 0.999896
vn -0.006143 0.013064 0.999896
vn -0.006143 0.013064 0.999896
vn -0.006143 0.013064 0.999896
vn -0.006143 0.013064 0.999896
vn -0.006143 0.013064 0.999896
vn -0.006143 0.013064 0.999896
vn -0.006143 0.013064 0.999896
vn -0.006143 0.013064 0.999896
vn -0.006143 0.013064 0.999896
vn -0.006143 0.013064 0.999896
vn -0.006143 0.013064 0.999896
vn -0.006143 0.013064 0.999896
vn -0.006143 0.013064 0.999896
vn -0.006143 0.013064 0.999896
vn -0.006143 0.013064 0.999896
vn -0.006143 0.013064 0.999896
vn -0.006143 0.013064 0.999896
vn -0.006143 0.013064 0.999896
vn -0.006143 0.013064 0.999896
vn -0.006143 0.013064 0.999896
vn -0.006143 0.013064 0.999896
vn -0.006143 0.013064 0.999896
vn -0.006143 0.013064 0.999896
vn -0.006143 0.013064 0.999896
vn -0.006143 0.013064 0.999896
vn -0.006143 0.013064 0.999896
vn -0.006143 0.013064 0.999896
vn -0.006143 0.013064 0.999896
vn -0.006143 0.013064 0.999896
vn -0.006143 0.013064 0.999896
vn -0.006143 0.013064 0.999896
vn -0.006143 0.013064 0.999896
vn -0.006143 0.013064 0.999896
vn -0.006143 0.013064 0.999896
vn -0.006143 0.013064 0.999896
vn -0.006143 0.013064 0.999896
vn -0.006143 0.013064 0.999896
vn -0.006143 0.013064 0.999896
vn -0.006143 0.013064 0.999896
vn -0.006143 0.013064 0.999896
vn -0.006143 0.013064 0.999896
vn -0.006143 0.013064 0.999896
vn -0.006143 0.013064 0.999896
vn -0.006143 0.013064 0.999896
vn -0.006143 0.013064 0.999896
vn -0.006143 0.013064 0.999896
vn -0.006143 0.013064 0.999896
vn -0.006143 0.013064 0.999896
vn -0.006143 0.013064 0.999896
vn -0.006143 0.013064 0.999896
vn -0.006143 0.013064 0.999896
vn -0.006143 0.013064 0.999896
vn -0.006143 0.013064 0.999896
vn -0.006143 0.013064 0.999896
vn -0.006143 0.013064 0.999896
vn -0.006143 0.013064 0.999896
vn -0.006143 0.013064 0.999896
vn -0.006143 0.013064 0.999896
vn -0.006143 0.013064 0.999896
vn -0.006143 0.013064 0.999896
vn -0.006143 0.013064 0.999896
vn -0.006143 0.013064 0.999896
vn -0.006143 0.013064 0.999896
vn -0.006143 0.013064 0.999896
vn -0.006143 0.013064 0.999896
vn -0.006143 0.013064 0.999896
vn -0.006143 0.013064 0.999896
vn -0.006143 0.013064 0.999896
vn -0.006143 0.013064 0.999896
vn -0.006143 0.013064 0.999896
s off
g Rio:pPlane1
usemtl Rio:lambert2SG
f 1/1/1 2/2/2 13/3/3 12/4/4
f 2/2/5 3/5/6 14/6/7 13/3/8
f 3/5/9 4/7/10 15/8/11 14/6/12
f 4/7/13 5/9/14 16/10/15 15/8/16
f 5/9/17 6/11/18 17/12/19 16/10/20
f 6/11/21 7/13/22 18/14/23 17/12/24
f 7/13/25 8/15/26 19/16/27 18/14/28
f 8/15/29 9/17/30 20/18/31 19/16/32
f 9/17/33 10/19/34 21/20/35 20/18/36
f 10/19/37 11/21/38 22/22/39 21/20/40
f 12/4/41 13/3/42 24/23/43 23/24/44
f 13/3/45 14/6/46 25/25/47 24/23/48
f 14/6/49 15/8/50 26/26/51 25/25/52
f 15/8/53 16/10/54 27/27/55 26/26/56
f 16/10/57 17/12/58 28/28/59 27/27/60
f 17/12/61 18/14/62 29/29/63 28/28/64
f 18/14/65 19/16/66 30/30/67 29/29/68
f 19/16/69 20/18/70 31/31/71 30/30/72
f 20/18/73 21/20/74 32/32/75 31/31/76
f 21/20/77 22/22/78 33/33/79 32/32/80
f 23/24/81 24/23/82 35/34/83 34/35/84
f 24/23/85 25/25/86 36/36/87 35/34/88
f 25/25/89 26/26/90 37/37/91 36/36/92
f 26/26/93 27/27/94 38/38/95 37/37/96
f 27/27/97 28/28/98 39/39/99 38/38/100
f 28/28/101 29/29/102 40/40/103 39/39/104
f 29/29/105 30/30/106 41/41/107 40/40/108
f 30/30/109 31/31/110 42/42/111 41/41/112
f 31/31/113 32/32/114 43/43/115 42/42/116
f 32/32/117 33/33/118 44/44/119 43/43/120
f 34/35/121 35/34/122 46/45/123 45/46/124
f 35/34/125 36/36/126 47/47/127 46/45/128
f 36/36/129 37/37/130 48/48/131 47/47/132
f 37/37/133 38/38/134 49/49/135 48/48/136
f 38/38/137 39/39/138 50/50/139 49/49/140
f 39/39/141 40/40/142 51/51/143 50/50/144
f 40/40/145 41/41/146 52/52/147 51/51/148
f 41/41/149 42/42/150 53/53/151 52/52/152
f 42/42/153 43/43/154 54/54/155 53/53/156
f 43/43/157 44/44/158 55/55/159 54/54/160
f 45/46/161 46/45/162 57/56/163 56/57/164
f 46/45/165 47/47/166 58/58/167 57/56/168
f 47/47/169 48/48/170 59/59/171 58/58/172
f 48/48/173 49/49/174 60/60/175 59/59/176
f 49/49/177 50/50/178 61/61/179 60/60/180
f 50/50/181 51/51/182 62/62/183 61/61/184
f 51/51/185 52/52/186 63/63/187 62/62/188
f 52/52/189 53/53/190 64/64/191 63/63/192
f 53/53/193 54/54/194 65/65/195 64/64/196
f 54/54/197 55/55/198 66/66/199 65/65/200
f 56/57/201 57/56/202 68/67/203 67/68/204
f 57/56/205 58/58/206 69/69/207 68/67/208
f 58/58/209 59/59/210 70/70/211 69/69/212
f 59/59/213 60/60/214 71/71/215 70/70/216
f 60/60/217 61/61/218 72/72/219 71/71/220
f 61/61/221 62/62/222 73/73/223 72/72/224
f 62/62/225 63/63/226 74/74/227 73/73/228
f 63/63/229 64/64/230 75/75/231 74/74/232
f 64/64/233 65/65/234 76/76/235 75/75/236
f 65/65/237 66/66/238 77/77/239 76/76/240
f 67/68/241 68/67/242 79/78/243 78/79/244
f 68/67/245 69/69/246 80/80/247 79/78/248
f 69/69/249 70/70/250 81/81/251 80/80/252
f 70/70/253 71/71/254 82/82/255 81/81/256
f 71/71/257 72/72/258 83/83/259 82/82/260
f 72/72/261 73/73/262 84/84/263 83/83/264
f 73/73/265 74/74/266 85/85/267 84/84/268
f 74/74/269 75/75/270 86/86/271 85/85/272
f 75/75/273 76/76/274 87/87/275 86/86/276
f 76/76/277 77/77/278 88/88/279 87/87/280
f 78/79/281 79/78/282 90/89/283 89/90/284
f 79/78/285 80/80/286 91/91/287 90/89/288
f 80/80/289 81/81/290 92/92/291 91/91/292
f 81/81/293 82/82/294 93/93/295 92/92/296
f 82/82/297 83/83/298 94/94/299 93/93/300
f 83/83/301 84/84/302 95/95/303 94/94/304
f 84/84/305 85/85/306 96/96/307 95/95/308
f 85/85/309 86/86/310 97/97/311 96/96/312
f 86/86/313 87/87/314 98/98/315 97/97/316
f 87/87/317 88/88/318 99/99/319 98/98/320
f 89/90/321 90/89/322 101/100/323 100/101/324
f 90/89/325 91/91/326 102/102/327 101/100/328
f 91/91/329 92/92/330 103/103/331 102/102/332
f 92/92/333 93/93/334 104/104/335 103/103/336
f 93/93/337 94/94/338 105/105/339 104/104/340
f 94/94/341 95/95/342 106/106/343 105/105/344
f 95/95/345 96/96/346 107/107/347 106/106/348
f 96/96/349 97/97/350 108/108/351 107/107/352
f 97/97/353 98/98/354 109/109/355 108/108/356
f 98/98/357 99/99/358 110/110/359 109/109/360
f 100/101/361 101/100/362 112/111/363 111/112/364
f 101/100/365 102/102/366 113/113/367 112/111/368
f 102/102/369 103/103/370 114/114/371 113/113/372
f 103/103/373 104/104/374 115/115/375 114/114/376
f 104/104/377 105/105/378 116/116/379 115/115/380
f 105/105/381 106/106/382 117/117/383 116/116/384
f 106/106/385 107/107/386 118/118/387 117/117/388
f 107/107/389 108/108/390 119/119/391 118/118/392
f 108/108/393 109/109/394 120/120/395 119/119/396
f 109/109/397 110/110/398 121/121/399 120/120/400
