# This file uses centimeters as units for non-parametric coordinates.

mtllib Cuerpo.mtl
g default
v -0.261948 -0.372243 0.205786
v -0.261948 -0.372243 -0.204449
v -0.261948 -0.308449 0.205786
v -0.261948 -0.308449 -0.204449
v -0.261948 0.393287 0.205786
v -0.261948 0.393287 -0.204449
v 0.258162 -0.372243 0.205786
v 0.258162 -0.372243 -0.204449
v 0.258162 -0.308449 0.205786
v 0.258162 -0.308449 -0.204449
v 0.258162 0.265698 0.205786
v 0.258162 0.265698 -0.040355
v 0.258162 0.329492 -0.040355
v 0.258162 0.329492 -0.204449
v 0.258162 0.393287 0.205786
v 0.258162 0.393287 -0.040355
v 0.258162 0.393287 -0.204449
v -0.261948 -0.372243 0.205786
v -0.261948 -0.308449 0.205786
v -0.261948 0.393287 0.205786
v -0.187646 0.265698 0.205786
v -0.187646 0.393287 0.205786
v -0.113345 0.201904 0.205786
v -0.113345 0.265698 0.205786
v -0.113345 0.393287 0.205786
v -0.039043 0.138110 0.205786
v -0.039043 0.201904 0.205786
v -0.039043 0.265698 0.205786
v -0.039043 0.329492 0.205786
v -0.039043 0.393287 0.205786
v 0.109559 0.138110 0.205786
v 0.109559 0.201904 0.205786
v 0.109559 0.265698 0.205786
v 0.109559 0.329492 0.205786
v 0.109559 0.393287 0.205786
v 0.183861 0.201904 0.205786
v 0.183861 0.265698 0.205786
v 0.183861 0.393287 0.205786
v 0.258162 -0.372243 0.205786
v 0.258162 -0.308449 0.205786
v 0.258162 0.265698 0.205786
v 0.258162 0.393287 0.205786
v -0.261948 -0.372243 -0.204449
v -0.261948 -0.308449 -0.204449
v -0.261948 0.393287 -0.204449
v -0.187646 0.265698 -0.204449
v -0.187646 0.393287 -0.204449
v -0.113345 0.265698 -0.204449
v -0.113345 0.329492 -0.204449
v -0.039043 0.265698 -0.204449
v -0.039043 0.329492 -0.204449
v 0.035258 0.265698 -0.204449
v 0.035258 0.329492 -0.204449
v 0.109559 0.265698 -0.204449
v 0.109559 0.329492 -0.204449
v 0.183861 0.265698 -0.204449
v 0.183861 0.329492 -0.204449
v 0.258162 -0.372243 -0.204449
v 0.258162 -0.308449 -0.204449
v 0.258162 0.329492 -0.204449
v 0.258162 0.393287 -0.204449
v -0.261948 -0.372243 0.205786
v 0.258162 -0.372243 0.205786
v -0.261948 -0.372243 -0.204449
v 0.258162 -0.372243 -0.204449
v -0.261948 0.393287 0.205786
v -0.187646 0.393287 0.205786
v -0.113345 0.393287 0.205786
v -0.039043 0.393287 0.205786
v 0.109559 0.393287 0.205786
v 0.183861 0.393287 0.205786
v 0.258162 0.393287 0.205786
v -0.039043 0.393287 0.041692
v 0.109559 0.393287 0.041692
v -0.187646 0.393287 -0.040355
v -0.113345 0.393287 -0.040355
v -0.039043 0.393287 -0.040355
v 0.109559 0.393287 -0.040355
v 0.183861 0.393287 -0.040355
v 0.258162 0.393287 -0.040355
v -0.261948 0.393287 -0.204449
v -0.187646 0.393287 -0.204449
v 0.258162 0.393287 -0.204449
vt 0.900391 0.500000
vt 0.904297 0.500000
vt 0.537109 0.500000
vt 0.060547 0.500000
vt 0.369141 0.500000
vt 0.373047 0.500000
vt 0.900391 0.500000
vt 0.900391 0.500000
vt 0.900391 0.500000
vt 0.900391 0.500000
vt 0.904297 0.500000
vt 0.904297 0.500000
vt 0.904297 0.500000
vt 0.904297 0.500000
vt 0.900391 0.500000
vt 0.900391 0.500000
vt 0.900391 0.500000
vt 0.900391 0.500000
vt 0.900391 0.500000
vt 0.900391 0.500000
vt 0.904297 0.500000
vt 0.904297 0.500000
vt 0.904297 0.500000
vt 0.904297 0.500000
vt 0.904297 0.500000
vt 0.904297 0.500000
vt 0.900391 0.500000
vt 0.900391 0.500000
vt 0.900391 0.500000
vt 0.904297 0.500000
vt 0.904297 0.500000
vt 0.904297 0.500000
vt 0.904297 0.500000
vt 0.904297 0.500000
vt 0.904297 0.500000
vt 0.900391 0.500000
vt 0.900391 0.500000
vt 0.900391 0.500000
vt 0.537109 0.500000
vt 0.537109 0.500000
vt 0.900391 0.500000
vt 0.900391 0.500000
vt 0.900391 0.500000
vt 0.537109 0.500000
vt 0.537109 0.500000
vt 0.537109 0.500000
vt 0.904297 0.500000
vt 0.904297 0.500000
vt 0.904297 0.500000
vt 0.904297 0.500000
vt 0.904297 0.500000
vt 0.904297 0.500000
vt 0.904297 0.500000
vt 0.904297 0.500000
vt 0.904297 0.500000
vt 0.900391 0.500000
vt 0.900391 0.500000
vt 0.900391 0.500000
vt 0.904297 0.500000
vt 0.904297 0.500000
vt 0.904297 0.500000
vt 0.900391 0.500000
vt 0.900391 0.500000
vt 0.900391 0.500000
vt 0.904297 0.500000
vt 0.904297 0.500000
vt 0.904297 0.500000
vt 0.900391 0.500000
vt 0.900391 0.500000
vt 0.900391 0.500000
vt 0.904297 0.500000
vt 0.904297 0.500000
vt 0.904297 0.500000
vt 0.060547 0.500000
vt 0.060547 0.500000
vt 0.900391 0.500000
vt 0.900391 0.500000
vt 0.900391 0.500000
vt 0.060547 0.500000
vt 0.060547 0.500000
vt 0.060547 0.500000
vt 0.060547 0.500000
vt 0.060547 0.500000
vt 0.904297 0.500000
vt 0.904297 0.500000
vt 0.904297 0.500000
vt 0.900391 0.500000
vt 0.900391 0.500000
vt 0.900391 0.500000
vt 0.060547 0.500000
vt 0.060547 0.500000
vt 0.900391 0.500000
vt 0.900391 0.500000
vt 0.900391 0.500000
vt 0.060547 0.500000
vt 0.060547 0.500000
vt 0.060547 0.500000
vt 0.060547 0.500000
vt 0.060547 0.500000
vt 0.369141 0.500000
vt 0.369141 0.500000
vt 0.060547 0.500000
vt 0.060547 0.500000
vt 0.060547 0.500000
vt 0.369141 0.500000
vt 0.369141 0.500000
vt 0.900391 0.500000
vt 0.900391 0.500000
vt 0.900391 0.500000
vt 0.904297 0.500000
vt 0.904297 0.500000
vt 0.904297 0.500000
vt 0.060547 0.500000
vt 0.060547 0.500000
vt 0.060547 0.500000
vt 0.900391 0.500000
vt 0.900391 0.500000
vt 0.900391 0.500000
vt 0.060547 0.500000
vt 0.060547 0.500000
vt 0.060547 0.500000
vt 0.060547 0.500000
vt 0.060547 0.500000
vt 0.060547 0.500000
vt 0.900391 0.500000
vt 0.900391 0.500000
vt 0.900391 0.500000
vt 0.904297 0.500000
vt 0.904297 0.500000
vt 0.904297 0.500000
vt 0.900391 0.500000
vt 0.900391 0.500000
vt 0.900391 0.500000
vt 0.904297 0.500000
vt 0.904297 0.500000
vt 0.904297 0.500000
vt 0.904297 0.500000
vt 0.904297 0.500000
vt 0.904297 0.500000
vt 0.900391 0.500000
vt 0.900391 0.500000
vt 0.900391 0.500000
vt 0.904297 0.500000
vt 0.904297 0.500000
vt 0.904297 0.500000
vt 0.900391 0.500000
vt 0.900391 0.500000
vt 0.900391 0.500000
vt 0.904297 0.500000
vt 0.904297 0.500000
vt 0.904297 0.500000
vt 0.904297 0.500000
vt 0.904297 0.500000
vt 0.904297 0.500000
vt 0.904297 0.500000
vt 0.904297 0.500000
vt 0.904297 0.500000
vt 0.537109 0.500000
vt 0.537109 0.500000
vt 0.537109 0.500000
vt 0.537109 0.500000
vt 0.537109 0.500000
vt 0.537109 0.500000
vt 0.904297 0.500000
vt 0.904297 0.500000
vt 0.904297 0.500000
vt 0.904297 0.500000
vt 0.904297 0.500000
vt 0.904297 0.500000
vt 0.537109 0.500000
vt 0.537109 0.500000
vt 0.537109 0.500000
vt 0.904297 0.500000
vt 0.904297 0.500000
vt 0.904297 0.500000
vt 0.904297 0.500000
vt 0.904297 0.500000
vt 0.904297 0.500000
vt 0.537109 0.500000
vt 0.537109 0.500000
vt 0.537109 0.500000
vt 0.537109 0.500000
vt 0.537109 0.500000
vt 0.537109 0.500000
vt 0.537109 0.500000
vt 0.537109 0.500000
vt 0.537109 0.500000
vt 0.904297 0.500000
vt 0.904297 0.500000
vt 0.904297 0.500000
vt 0.904297 0.500000
vt 0.904297 0.500000
vt 0.904297 0.500000
vt 0.537109 0.500000
vt 0.537109 0.500000
vt 0.537109 0.500000
vt 0.904297 0.500000
vt 0.904297 0.500000
vt 0.904297 0.500000
vt 0.904297 0.500000
vt 0.904297 0.500000
vt 0.904297 0.500000
vt 0.537109 0.500000
vt 0.537109 0.500000
vt 0.537109 0.500000
vt 0.537109 0.500000
vt 0.537109 0.500000
vt 0.537109 0.500000
vt 0.537109 0.500000
vt 0.537109 0.500000
vt 0.537109 0.500000
vt 0.900391 0.500000
vt 0.900391 0.500000
vt 0.900391 0.500000
vt 0.904297 0.500000
vt 0.904297 0.500000
vt 0.904297 0.500000
vt 0.900391 0.500000
vt 0.900391 0.500000
vt 0.900391 0.500000
vt 0.904297 0.500000
vt 0.904297 0.500000
vt 0.904297 0.500000
vt 0.537109 0.500000
vt 0.537109 0.500000
vt 0.537109 0.500000
vt 0.904297 0.500000
vt 0.904297 0.500000
vt 0.904297 0.500000
vt 0.537109 0.500000
vt 0.537109 0.500000
vt 0.537109 0.500000
vt 0.900391 0.500000
vt 0.900391 0.500000
vt 0.900391 0.500000
vt 0.900391 0.500000
vt 0.900391 0.500000
vt 0.900391 0.500000
vt 0.060547 0.500000
vt 0.060547 0.500000
vt 0.060547 0.500000
vt 0.369141 0.500000
vt 0.369141 0.500000
vt 0.369141 0.500000
vt 0.060547 0.500000
vt 0.060547 0.500000
vt 0.060547 0.500000
vt 0.369141 0.500000
vt 0.369141 0.500000
vt 0.369141 0.500000
vt 0.904297 0.500000
vt 0.904297 0.500000
vt 0.904297 0.500000
vt 0.900391 0.500000
vt 0.900391 0.500000
vt 0.900391 0.500000
vt 0.060547 0.500000
vt 0.060547 0.500000
vt 0.060547 0.500000
vt 0.900391 0.500000
vt 0.900391 0.500000
vt 0.900391 0.500000
vt 0.373047 0.500000
vt 0.373047 0.500000
vt 0.060547 0.500000
vt 0.060547 0.500000
vt 0.060547 0.500000
vt 0.060547 0.500000
vt 0.060547 0.500000
vt 0.060547 0.500000
vt 0.373047 0.500000
vt 0.373047 0.500000
vt 0.373047 0.500000
vt 0.900391 0.500000
vt 0.900391 0.500000
vt 0.900391 0.500000
vt 0.060547 0.500000
vt 0.060547 0.500000
vt 0.060547 0.500000
vt 0.900391 0.500000
vt 0.900391 0.500000
vt 0.900391 0.500000
vt 0.904297 0.500000
vt 0.904297 0.500000
vt 0.904297 0.500000
vt 0.537109 0.500000
vt 0.537109 0.500000
vt 0.537109 0.500000
vt 0.904297 0.500000
vt 0.904297 0.500000
vt 0.904297 0.500000
vt 0.537109 0.500000
vt 0.537109 0.500000
vt 0.537109 0.500000
vt 0.537109 0.500000
vt 0.537109 0.500000
vt 0.537109 0.500000
vt 0.537109 0.500000
vt 0.537109 0.500000
vt 0.537109 0.500000
vt 0.537109 0.500000
vt 0.537109 0.500000
vt 0.537109 0.500000
vt 0.537109 0.500000
vt 0.537109 0.500000
vt 0.537109 0.500000
vn -1.000000 0.000000 0.000000
vn -1.000000 0.000000 0.000000
vn -1.000000 0.000000 0.000000
vn -1.000000 0.000000 0.000000
vn -1.000000 0.000000 0.000000
vn -1.000000 0.000000 0.000000
vn -1.000000 0.000000 0.000000
vn -1.000000 0.000000 0.000000
vn -1.000000 0.000000 0.000000
vn -1.000000 0.000000 0.000000
vn -1.000000 0.000000 0.000000
vn -1.000000 0.000000 0.000000
vn 1.000000 0.000000 0.000000
vn 1.000000 0.000000 0.000000
vn 1.000000 0.000000 0.000000
vn 1.000000 0.000000 0.000000
vn 1.000000 0.000000 0.000000
vn 1.000000 0.000000 0.000000
vn 1.000000 0.000000 0.000000
vn 1.000000 0.000000 0.000000
vn 1.000000 0.000000 0.000000
vn 1.000000 0.000000 0.000000
vn 1.000000 0.000000 0.000000
vn 1.000000 0.000000 0.000000
vn 1.000000 0.000000 0.000000
vn 1.000000 0.000000 0.000000
vn 1.000000 0.000000 0.000000
vn 1.000000 0.000000 0.000000
vn 1.000000 0.000000 0.000000
vn 1.000000 0.000000 0.000000
vn 1.000000 0.000000 0.000000
vn 1.000000 0.000000 0.000000
vn 1.000000 0.000000 0.000000
vn 1.000000 0.000000 0.000000
vn 1.000000 0.000000 0.000000
vn 1.000000 0.000000 0.000000
vn 1.000000 0.000000 0.000000
vn 1.000000 0.000000 0.000000
vn 1.000000 0.000000 0.000000
vn 1.000000 0.000000 0.000000
vn 1.000000 0.000000 0.000000
vn 1.000000 0.000000 0.000000
vn 1.000000 0.000000 0.000000
vn 1.000000 0.000000 0.000000
vn 1.000000 0.000000 0.000000
vn 0.000000 0.000000 1.000000
vn 0.000000 0.000000 1.000000
vn 0.000000 0.000000 1.000000
vn 0.000000 0.000000 1.000000
vn 0.000000 0.000000 1.000000
vn 0.000000 0.000000 1.000000
vn 0.000000 0.000000 1.000000
vn 0.000000 0.000000 1.000000
vn 0.000000 0.000000 1.000000
vn 0.000000 0.000000 1.000000
vn 0.000000 0.000000 1.000000
vn 0.000000 0.000000 1.000000
vn 0.000000 0.000000 1.000000
vn 0.000000 0.000000 1.000000
vn 0.000000 0.000000 1.000000
vn 0.000000 0.000000 1.000000
vn 0.000000 0.000000 1.000000
vn 0.000000 0.000000 1.000000
vn 0.000000 0.000000 1.000000
vn 0.000000 0.000000 1.000000
vn 0.000000 0.000000 1.000000
vn 0.000000 0.000000 1.000000
vn 0.000000 0.000000 1.000000
vn 0.000000 0.000000 1.000000
vn 0.000000 0.000000 1.000000
vn 0.000000 0.000000 1.000000
vn 0.000000 0.000000 1.000000
vn 0.000000 0.000000 1.000000
vn 0.000000 0.000000 1.000000
vn 0.000000 0.000000 1.000000
vn 0.000000 0.000000 1.000000
vn 0.000000 0.000000 1.000000
vn 0.000000 0.000000 1.000000
vn 0.000000 0.000000 1.000000
vn 0.000000 0.000000 1.000000
vn 0.000000 0.000000 1.000000
vn 0.000000 0.000000 1.000000
vn 0.000000 0.000000 1.000000
vn 0.000000 0.000000 1.000000
vn 0.000000 0.000000 1.000000
vn 0.000000 0.000000 1.000000
vn 0.000000 0.000000 1.000000
vn 0.000000 0.000000 1.000000
vn 0.000000 0.000000 1.000000
vn 0.000000 0.000000 1.000000
vn 0.000000 0.000000 1.000000
vn 0.000000 0.000000 1.000000
vn 0.000000 0.000000 1.000000
vn 0.000000 0.000000 1.000000
vn 0.000000 0.000000 1.000000
vn 0.000000 0.000000 1.000000
vn 0.000000 0.000000 1.000000
vn 0.000000 0.000000 1.000000
vn 0.000000 0.000000 1.000000
vn 0.000000 0.000000 1.000000
vn 0.000000 0.000000 1.000000
vn 0.000000 0.000000 1.000000
vn 0.000000 0.000000 1.000000
vn 0.000000 0.000000 1.000000
vn 0.000000 0.000000 1.000000
vn 0.000000 0.000000 1.000000
vn 0.000000 0.000000 1.000000
vn 0.000000 0.000000 1.000000
vn 0.000000 0.000000 1.000000
vn 0.000000 0.000000 1.000000
vn 0.000000 0.000000 1.000000
vn 0.000000 0.000000 1.000000
vn 0.000000 0.000000 1.000000
vn 0.000000 0.000000 1.000000
vn 0.000000 0.000000 1.000000
vn 0.000000 0.000000 1.000000
vn 0.000000 0.000000 1.000000
vn 0.000000 0.000000 1.000000
vn 0.000000 0.000000 1.000000
vn 0.000000 0.000000 1.000000
vn 0.000000 0.000000 1.000000
vn 0.000000 0.000000 1.000000
vn 0.000000 0.000000 1.000000
vn 0.000000 0.000000 1.000000
vn 0.000000 0.000000 1.000000
vn 0.000000 0.000000 1.000000
vn 0.000000 0.000000 1.000000
vn 0.000000 0.000000 1.000000
vn 0.000000 0.000000 1.000000
vn 0.000000 0.000000 1.000000
vn 0.000000 0.000000 1.000000
vn 0.000000 0.000000 1.000000
vn 0.000000 0.000000 1.000000
vn 0.000000 0.000000 1.000000
vn 0.000000 0.000000 1.000000
vn 0.000000 0.000000 1.000000
vn 0.000000 0.000000 1.000000
vn 0.000000 0.000000 1.000000
vn 0.000000 0.000000 1.000000
vn 0.000000 0.000000 1.000000
vn 0.000000 0.000000 1.000000
vn 0.000000 0.000000 1.000000
vn 0.000000 0.000000 1.000000
vn 0.000000 0.000000 1.000000
vn 0.000000 0.000000 1.000000
vn 0.000000 0.000000 1.000000
vn 0.000000 0.000000 1.000000
vn 0.000000 0.000000 1.000000
vn 0.000000 0.000000 1.000000
vn 0.000000 0.000000 1.000000
vn 0.000000 0.000000 1.000000
vn 0.000000 0.000000 1.000000
vn 0.000000 0.000000 1.000000
vn 0.000000 0.000000 -1.000000
vn 0.000000 0.000000 -1.000000
vn 0.000000 0.000000 -1.000000
vn 0.000000 0.000000 -1.000000
vn 0.000000 0.000000 -1.000000
vn 0.000000 0.000000 -1.000000
vn 0.000000 0.000000 -1.000000
vn 0.000000 0.000000 -1.000000
vn 0.000000 0.000000 -1.000000
vn 0.000000 0.000000 -1.000000
vn 0.000000 0.000000 -1.000000
vn 0.000000 0.000000 -1.000000
vn 0.000000 0.000000 -1.000000
vn 0.000000 0.000000 -1.000000
vn 0.000000 0.000000 -1.000000
vn 0.000000 0.000000 -1.000000
vn 0.000000 0.000000 -1.000000
vn 0.000000 0.000000 -1.000000
vn 0.000000 0.000000 -1.000000
vn 0.000000 0.000000 -1.000000
vn 0.000000 0.000000 -1.000000
vn 0.000000 0.000000 -1.000000
vn 0.000000 0.000000 -1.000000
vn 0.000000 0.000000 -1.000000
vn 0.000000 0.000000 -1.000000
vn 0.000000 0.000000 -1.000000
vn 0.000000 0.000000 -1.000000
vn 0.000000 0.000000 -1.000000
vn 0.000000 0.000000 -1.000000
vn 0.000000 0.000000 -1.000000
vn 0.000000 0.000000 -1.000000
vn 0.000000 0.000000 -1.000000
vn 0.000000 0.000000 -1.000000
vn 0.000000 0.000000 -1.000000
vn 0.000000 0.000000 -1.000000
vn 0.000000 0.000000 -1.000000
vn 0.000000 0.000000 -1.000000
vn 0.000000 0.000000 -1.000000
vn 0.000000 0.000000 -1.000000
vn 0.000000 0.000000 -1.000000
vn 0.000000 0.000000 -1.000000
vn 0.000000 0.000000 -1.000000
vn 0.000000 0.000000 -1.000000
vn 0.000000 0.000000 -1.000000
vn 0.000000 0.000000 -1.000000
vn 0.000000 0.000000 -1.000000
vn 0.000000 0.000000 -1.000000
vn 0.000000 0.000000 -1.000000
vn 0.000000 0.000000 -1.000000
vn 0.000000 0.000000 -1.000000
vn 0.000000 0.000000 -1.000000
vn 0.000000 0.000000 -1.000000
vn 0.000000 0.000000 -1.000000
vn 0.000000 0.000000 -1.000000
vn 0.000000 0.000000 -1.000000
vn 0.000000 0.000000 -1.000000
vn 0.000000 0.000000 -1.000000
vn 0.000000 0.000000 -1.000000
vn 0.000000 0.000000 -1.000000
vn 0.000000 0.000000 -1.000000
vn 0.000000 0.000000 -1.000000
vn 0.000000 0.000000 -1.000000
vn 0.000000 0.000000 -1.000000
vn 0.000000 0.000000 -1.000000
vn 0.000000 0.000000 -1.000000
vn 0.000000 0.000000 -1.000000
vn 0.000000 0.000000 -1.000000
vn 0.000000 0.000000 -1.000000
vn 0.000000 0.000000 -1.000000
vn 0.000000 0.000000 -1.000000
vn 0.000000 0.000000 -1.000000
vn 0.000000 0.000000 -1.000000
vn 0.000000 0.000000 -1.000000
vn 0.000000 0.000000 -1.000000
vn 0.000000 0.000000 -1.000000
vn 0.000000 0.000000 -1.000000
vn 0.000000 0.000000 -1.000000
vn 0.000000 0.000000 -1.000000
vn 0.000000 0.000000 -1.000000
vn 0.000000 0.000000 -1.000000
vn 0.000000 0.000000 -1.000000
vn 0.000000 0.000000 -1.000000
vn 0.000000 0.000000 -1.000000
vn 0.000000 0.000000 -1.000000
vn 0.000000 -1.000000 0.000000
vn 0.000000 -1.000000 0.000000
vn 0.000000 -1.000000 0.000000
vn 0.000000 -1.000000 0.000000
vn 0.000000 -1.000000 0.000000
vn 0.000000 -1.000000 0.000000
vn 0.000000 1.000000 0.000000
vn 0.000000 1.000000 0.000000
vn 0.000000 1.000000 0.000000
vn 0.000000 1.000000 0.000000
vn 0.000000 1.000000 0.000000
vn 0.000000 1.000000 0.000000
vn 0.000000 1.000000 0.000000
vn 0.000000 1.000000 0.000000
vn 0.000000 1.000000 0.000000
vn 0.000000 1.000000 0.000000
vn 0.000000 1.000000 0.000000
vn 0.000000 1.000000 0.000000
vn 0.000000 1.000000 0.000000
vn 0.000000 1.000000 0.000000
vn 0.000000 1.000000 0.000000
vn 0.000000 1.000000 0.000000
vn 0.000000 1.000000 0.000000
vn 0.000000 1.000000 0.000000
vn 0.000000 1.000000 0.000000
vn 0.000000 1.000000 0.000000
vn 0.000000 1.000000 0.000000
vn 0.000000 1.000000 0.000000
vn 0.000000 1.000000 0.000000
vn 0.000000 1.000000 0.000000
vn 0.000000 1.000000 0.000000
vn 0.000000 1.000000 0.000000
vn 0.000000 1.000000 0.000000
vn 0.000000 1.000000 0.000000
vn 0.000000 1.000000 0.000000
vn 0.000000 1.000000 0.000000
vn 0.000000 1.000000 0.000000
vn 0.000000 1.000000 0.000000
vn 0.000000 1.000000 0.000000
vn 0.000000 1.000000 0.000000
vn 0.000000 1.000000 0.000000
vn 0.000000 1.000000 0.000000
vn 0.000000 1.000000 0.000000
vn 0.000000 1.000000 0.000000
vn 0.000000 1.000000 0.000000
vn 0.000000 1.000000 0.000000
vn 0.000000 1.000000 0.000000
vn 0.000000 1.000000 0.000000
vn 0.000000 1.000000 0.000000
vn 0.000000 1.000000 0.000000
vn 0.000000 1.000000 0.000000
vn 0.000000 1.000000 0.000000
vn 0.000000 1.000000 0.000000
vn 0.000000 1.000000 0.000000
vn 0.000000 1.000000 0.000000
vn 0.000000 1.000000 0.000000
vn 0.000000 1.000000 0.000000
vn 0.000000 1.000000 0.000000
vn 0.000000 1.000000 0.000000
vn 0.000000 1.000000 0.000000
vn 0.000000 1.000000 0.000000
vn 0.000000 1.000000 0.000000
vn 0.000000 1.000000 0.000000
vn 0.000000 1.000000 0.000000
vn 0.000000 1.000000 0.000000
vn 0.000000 1.000000 0.000000
vn 0.000000 1.000000 0.000000
vn 0.000000 1.000000 0.000000
vn 0.000000 1.000000 0.000000
vn 0.000000 1.000000 0.000000
vn 0.000000 1.000000 0.000000
vn 0.000000 1.000000 0.000000
vn 0.000000 1.000000 0.000000
vn 0.000000 1.000000 0.000000
vn 0.000000 1.000000 0.000000
s off
g Cuerpo1:Mesh
usemtl Cuerpo1:palette
f 3/1/1 2/7/2 1/8/3
f 4/9/4 2/10/5 3/1/6
f 5/2/7 4/11/8 3/12/9
f 6/13/10 4/14/11 5/2/12
f 7/15/13 8/16/14 9/17/15
f 9/18/16 8/19/17 10/20/18
f 9/21/19 10/22/20 11/23/21
f 11/24/22 10/25/23 12/26/24
f 11/27/25 12/28/26 13/29/27
f 12/30/28 10/31/29 13/32/30
f 13/33/31 10/34/32 14/35/33
f 11/36/34 13/37/35 15/38/36
f 13/3/37 14/39/38 16/40/39
f 15/41/40 13/42/41 16/43/42
f 16/44/43 14/45/44 17/46/45
f 21/47/46 20/48/47 19/49/48
f 22/50/49 20/51/50 21/52/51
f 23/53/52 21/54/53 19/55/54
f 24/56/55 22/57/56 21/58/57
f 24/59/58 21/60/59 23/61/60
f 25/62/61 22/63/62 24/64/63
f 26/65/64 23/66/65 19/67/66
f 27/68/67 24/69/68 23/70/69
f 27/71/70 23/72/71 26/73/72
f 28/4/73 25/74/74 24/75/75
f 28/76/76 24/77/77 27/78/78
f 29/79/79 25/80/80 28/4/81
f 30/81/82 25/82/83 29/83/84
f 31/84/85 26/85/86 19/86/87
f 31/87/88 27/88/89 26/89/90
f 32/90/91 28/4/92 27/91/93
f 32/92/94 27/93/95 31/94/96
f 32/95/97 29/96/98 28/4/99
f 33/97/100 29/98/101 32/99/102
f 34/5/103 30/100/104 29/101/105
f 34/102/106 29/103/107 33/104/108
f 35/105/109 30/106/110 34/5/111
f 36/107/112 33/108/113 32/109/114
f 36/110/115 32/111/116 31/112/117
f 37/113/118 35/114/119 34/115/120
f 37/116/121 33/117/122 36/118/123
f 37/119/124 34/120/125 33/121/126
f 38/122/127 35/123/128 37/124/129
f 39/125/130 19/126/131 18/127/132
f 40/128/133 31/129/134 19/130/135
f 40/131/136 19/132/137 39/133/138
f 40/134/139 36/135/140 31/136/141
f 40/137/142 37/138/143 36/139/144
f 41/140/145 38/141/146 37/142/147
f 41/143/148 37/144/149 40/145/150
f 42/146/151 38/147/152 41/148/153
f 44/149/154 45/150/155 46/151/156
f 46/152/157 45/153/158 47/154/159
f 44/155/160 46/156/161 48/157/162
f 46/158/163 47/159/164 48/160/165
f 48/161/166 47/162/167 49/163/168
f 44/164/169 48/165/170 50/166/171
f 48/167/172 49/168/173 50/169/174
f 49/170/175 47/171/176 51/172/177
f 50/173/178 49/174/179 51/175/180
f 44/176/181 50/177/182 52/178/183
f 50/179/184 51/180/185 52/181/186
f 51/182/187 47/183/188 53/184/189
f 52/185/190 51/186/191 53/187/192
f 44/188/193 52/189/194 54/190/195
f 52/191/196 53/192/197 54/193/198
f 53/194/199 47/195/200 55/196/201
f 54/197/202 53/198/203 55/199/204
f 44/200/205 54/201/206 56/202/207
f 54/203/208 55/204/209 56/205/210
f 55/206/211 47/207/212 57/208/213
f 56/209/214 55/210/215 57/211/216
f 43/212/217 44/213/218 58/214/219
f 44/215/220 56/216/221 59/217/222
f 58/218/223 44/219/224 59/220/225
f 56/221/226 57/222/227 59/223/228
f 57/224/229 47/225/230 60/226/231
f 59/227/232 57/228/233 60/229/234
f 60/230/235 47/231/236 61/232/237
f 64/233/238 63/234/239 62/235/240
f 65/236/241 63/237/242 64/238/243
f 68/239/244 69/240/245 73/241/246
f 69/242/247 70/243/248 73/244/249
f 70/245/250 71/246/251 74/247/252
f 73/248/253 70/249/254 74/250/255
f 66/251/256 67/252/257 75/253/258
f 67/254/259 68/255/260 75/256/261
f 68/257/262 73/258/263 76/259/264
f 75/260/265 68/261/266 76/262/267
f 73/6/268 74/263/269 77/264/270
f 76/265/271 73/266/272 77/267/273
f 74/268/274 71/269/275 78/270/276
f 77/271/277 74/272/278 78/273/279
f 71/274/280 72/275/281 79/276/282
f 78/277/283 71/278/284 79/279/285
f 79/280/286 72/281/287 80/282/288
f 66/283/289 75/284/290 81/285/291
f 76/286/292 77/287/293 82/288/294
f 81/289/295 75/290/296 82/291/297
f 75/292/298 76/293/299 82/294/300
f 79/295/301 80/296/302 82/297/303
f 78/298/304 79/299/305 82/300/306
f 77/301/307 78/302/308 82/303/309
f 82/304/310 80/305/311 83/306/312
