# This file uses centimeters as units for non-parametric coordinates.

mtllib BrazoDer.mtl
g default
v -0.897896 0.372338 1.728460
v -1.278797 0.372338 1.745070
v -0.897896 0.768613 1.728460
v -1.278797 0.768613 1.745070
v -0.907263 0.372338 1.513649
v -1.288165 0.372338 1.530259
v -0.907263 0.768613 1.513649
v -1.288165 0.768613 1.530259
v -0.897896 0.372338 1.728460
v -0.897896 0.768613 1.728460
v -0.907263 0.372338 1.513649
v -0.907263 0.768613 1.513649
v -1.278797 0.372338 1.745070
v -1.278797 0.768613 1.745070
v -1.288165 0.372338 1.530259
v -1.288165 0.768613 1.530259
v -0.897896 0.372338 1.728460
v -0.907263 0.372338 1.513649
v -1.278797 0.372338 1.745070
v -1.288165 0.372338 1.530259
v -0.897896 0.768613 1.728460
v -0.907263 0.768613 1.513649
v -1.278797 0.768613 1.745070
v -1.288165 0.768613 1.530259
vt 0.060547 0.500000
vt 0.060547 0.500000
vt 0.060547 0.500000
vt 0.060547 0.500000
vt 0.060547 0.500000
vt 0.060547 0.500000
vt 0.060547 0.500000
vt 0.060547 0.500000
vt 0.060547 0.500000
vt 0.060547 0.500000
vt 0.060547 0.500000
vt 0.060547 0.500000
vt 0.060547 0.500000
vt 0.060547 0.500000
vt 0.060547 0.500000
vt 0.060547 0.500000
vt 0.060547 0.500000
vt 0.060547 0.500000
vt 0.060547 0.500000
vt 0.060547 0.500000
vt 0.060547 0.500000
vt 0.060547 0.500000
vt 0.060547 0.500000
vt 0.060547 0.500000
vt 0.060547 0.500000
vt 0.060547 0.500000
vt 0.060547 0.500000
vt 0.060547 0.500000
vt 0.060547 0.500000
vt 0.060547 0.500000
vt 0.060547 0.500000
vt 0.060547 0.500000
vt 0.060547 0.500000
vt 0.060547 0.500000
vt 0.060547 0.500000
vn 0.043566 0.000000 0.999051
vn 0.043566 0.000000 0.999051
vn 0.043566 0.000000 0.999051
vn 0.043566 0.000000 0.999051
vn 0.043566 0.000000 0.999051
vn 0.043566 0.000000 0.999051
vn -0.043566 0.000000 -0.999051
vn -0.043566 0.000000 -0.999051
vn -0.043566 0.000000 -0.999051
vn -0.043566 0.000000 -0.999051
vn -0.043566 0.000000 -0.999051
vn -0.043566 0.000000 -0.999051
vn 0.999051 0.000000 -0.043566
vn 0.999051 0.000000 -0.043566
vn 0.999051 0.000000 -0.043566
vn 0.999051 0.000000 -0.043566
vn 0.999051 0.000000 -0.043566
vn 0.999051 0.000000 -0.043566
vn -0.999051 0.000000 0.043566
vn -0.999051 0.000000 0.043566
vn -0.999051 0.000000 0.043566
vn -0.999051 0.000000 0.043566
vn -0.999051 0.000000 0.043566
vn -0.999051 0.000000 0.043566
vn 0.000000 -1.000000 -0.000000
vn 0.000000 -1.000000 -0.000000
vn 0.000000 -1.000000 -0.000000
vn 0.000000 -1.000000 -0.000000
vn 0.000000 -1.000000 -0.000000
vn 0.000000 -1.000000 -0.000000
vn 0.000000 1.000000 0.000000
vn 0.000000 1.000000 0.000000
vn 0.000000 1.000000 0.000000
vn 0.000000 1.000000 0.000000
vn 0.000000 1.000000 0.000000
vn 0.000000 1.000000 0.000000
s off
g BrazoDer:Mesh
usemtl BrazoDer:palette
f 3/1/1 2/2/2 1/3/3
f 4/4/4 2/5/5 3/1/6
f 5/6/7 6/7/8 7/8/9
f 7/9/10 6/10/11 8/11/12
f 11/12/13 10/13/14 9/14/15
f 12/15/16 10/16/17 11/17/18
f 13/18/19 14/19/20 15/20/21
f 15/21/22 14/22/23 16/23/24
f 19/24/25 18/25/26 17/26/27
f 20/27/28 18/28/29 19/29/30
f 21/30/31 22/31/32 23/32/33
f 23/33/34 22/34/35 24/35/36
