# This file uses centimeters as units for non-parametric coordinates.

mtllib PiernaIzq.mtl
g default
v 0.034236 -1.073932 0.206128
v 0.034236 -1.073932 -0.204107
v 0.034236 -0.946344 0.206128
v 0.034236 -0.946344 -0.204107
v 0.034236 -0.882549 0.206128
v 0.034236 -0.882549 -0.204107
v 0.034236 -0.372196 0.206128
v 0.034236 -0.372196 -0.204107
v 0.257141 -1.073932 0.206128
v 0.257141 -1.073932 -0.204107
v 0.257141 -0.946344 0.206128
v 0.257141 -0.946344 -0.204107
v 0.257141 -0.882549 0.206128
v 0.257141 -0.882549 -0.204107
v 0.257141 -0.372196 0.206128
v 0.257141 -0.372196 -0.204107
v 0.034236 -1.073932 0.206128
v 0.034236 -0.946344 0.206128
v 0.034236 -0.882549 0.206128
v 0.034236 -0.372196 0.206128
v 0.257141 -1.073932 0.206128
v 0.257141 -0.946344 0.206128
v 0.257141 -0.882549 0.206128
v 0.257141 -0.372196 0.206128
v 0.034236 -1.073932 -0.204107
v 0.034236 -0.946344 -0.204107
v 0.034236 -0.882549 -0.204107
v 0.034236 -0.372196 -0.204107
v 0.257141 -1.073932 -0.204107
v 0.257141 -0.946344 -0.204107
v 0.257141 -0.882549 -0.204107
v 0.257141 -0.372196 -0.204107
v 0.034236 -1.073932 0.206128
v 0.257141 -1.073932 0.206128
v 0.034236 -1.073932 -0.204107
v 0.257141 -1.073932 -0.204107
v 0.034236 -0.372196 0.206128
v 0.257141 -0.372196 0.206128
v 0.034236 -0.372196 -0.204107
v 0.257141 -0.372196 -0.204107
vt 0.994141 0.500000
vt 0.369141 0.500000
vt 0.537109 0.500000
vt 0.994141 0.500000
vt 0.994141 0.500000
vt 0.994141 0.500000
vt 0.994141 0.500000
vt 0.369141 0.500000
vt 0.369141 0.500000
vt 0.369141 0.500000
vt 0.369141 0.500000
vt 0.537109 0.500000
vt 0.537109 0.500000
vt 0.537109 0.500000
vt 0.537109 0.500000
vt 0.994141 0.500000
vt 0.994141 0.500000
vt 0.994141 0.500000
vt 0.994141 0.500000
vt 0.994141 0.500000
vt 0.994141 0.500000
vt 0.369141 0.500000
vt 0.369141 0.500000
vt 0.369141 0.500000
vt 0.369141 0.500000
vt 0.369141 0.500000
vt 0.369141 0.500000
vt 0.537109 0.500000
vt 0.537109 0.500000
vt 0.537109 0.500000
vt 0.537109 0.500000
vt 0.537109 0.500000
vt 0.537109 0.500000
vt 0.994141 0.500000
vt 0.994141 0.500000
vt 0.994141 0.500000
vt 0.369141 0.500000
vt 0.369141 0.500000
vt 0.369141 0.500000
vt 0.994141 0.500000
vt 0.994141 0.500000
vt 0.994141 0.500000
vt 0.537109 0.500000
vt 0.537109 0.500000
vt 0.537109 0.500000
vt 0.369141 0.500000
vt 0.369141 0.500000
vt 0.369141 0.500000
vt 0.537109 0.500000
vt 0.537109 0.500000
vt 0.537109 0.500000
vt 0.994141 0.500000
vt 0.994141 0.500000
vt 0.994141 0.500000
vt 0.369141 0.500000
vt 0.369141 0.500000
vt 0.369141 0.500000
vt 0.994141 0.500000
vt 0.994141 0.500000
vt 0.994141 0.500000
vt 0.537109 0.500000
vt 0.537109 0.500000
vt 0.537109 0.500000
vt 0.369141 0.500000
vt 0.369141 0.500000
vt 0.369141 0.500000
vt 0.537109 0.500000
vt 0.537109 0.500000
vt 0.537109 0.500000
vt 0.994141 0.500000
vt 0.994141 0.500000
vt 0.994141 0.500000
vt 0.994141 0.500000
vt 0.994141 0.500000
vt 0.994141 0.500000
vt 0.537109 0.500000
vt 0.537109 0.500000
vt 0.537109 0.500000
vt 0.537109 0.500000
vt 0.537109 0.500000
vt 0.537109 0.500000
vn -1.000000 0.000000 0.000000
vn -1.000000 0.000000 0.000000
vn -1.000000 0.000000 0.000000
vn -1.000000 0.000000 0.000000
vn -1.000000 0.000000 0.000000
vn -1.000000 0.000000 0.000000
vn -1.000000 0.000000 0.000000
vn -1.000000 0.000000 0.000000
vn -1.000000 0.000000 0.000000
vn -1.000000 0.000000 0.000000
vn -1.000000 0.000000 0.000000
vn -1.000000 0.000000 0.000000
vn -1.000000 0.000000 0.000000
vn -1.000000 0.000000 0.000000
vn -1.000000 0.000000 0.000000
vn -1.000000 0.000000 0.000000
vn -1.000000 0.000000 0.000000
vn -1.000000 0.000000 0.000000
vn 1.000000 0.000000 0.000000
vn 1.000000 0.000000 0.000000
vn 1.000000 0.000000 0.000000
vn 1.000000 0.000000 0.000000
vn 1.000000 0.000000 0.000000
vn 1.000000 0.000000 0.000000
vn 1.000000 0.000000 0.000000
vn 1.000000 0.000000 0.000000
vn 1.000000 0.000000 0.000000
vn 1.000000 0.000000 0.000000
vn 1.000000 0.000000 0.000000
vn 1.000000 0.000000 0.000000
vn 1.000000 0.000000 0.000000
vn 1.000000 0.000000 0.000000
vn 1.000000 0.000000 0.000000
vn 1.000000 0.000000 0.000000
vn 1.000000 0.000000 0.000000
vn 1.000000 0.000000 0.000000
vn 0.000000 0.000000 1.000000
vn 0.000000 0.000000 1.000000
vn 0.000000 0.000000 1.000000
vn 0.000000 0.000000 1.000000
vn 0.000000 0.000000 1.000000
vn 0.000000 0.000000 1.000000
vn 0.000000 0.000000 1.000000
vn 0.000000 0.000000 1.000000
vn 0.000000 0.000000 1.000000
vn 0.000000 0.000000 1.000000
vn 0.000000 0.000000 1.000000
vn 0.000000 0.000000 1.000000
vn 0.000000 0.000000 1.000000
vn 0.000000 0.000000 1.000000
vn 0.000000 0.000000 1.000000
vn 0.000000 0.000000 1.000000
vn 0.000000 0.000000 1.000000
vn 0.000000 0.000000 1.000000
vn 0.000000 0.000000 -1.000000
vn 0.000000 0.000000 -1.000000
vn 0.000000 0.000000 -1.000000
vn 0.000000 0.000000 -1.000000
vn 0.000000 0.000000 -1.000000
vn 0.000000 0.000000 -1.000000
vn 0.000000 0.000000 -1.000000
vn 0.000000 0.000000 -1.000000
vn 0.000000 0.000000 -1.000000
vn 0.000000 0.000000 -1.000000
vn 0.000000 0.000000 -1.000000
vn 0.000000 0.000000 -1.000000
vn 0.000000 0.000000 -1.000000
vn 0.000000 0.000000 -1.000000
vn 0.000000 0.000000 -1.000000
vn 0.000000 0.000000 -1.000000
vn 0.000000 0.000000 -1.000000
vn 0.000000 0.000000 -1.000000
vn 0.000000 -1.000000 0.000000
vn 0.000000 -1.000000 0.000000
vn 0.000000 -1.000000 0.000000
vn 0.000000 -1.000000 0.000000
vn 0.000000 -1.000000 0.000000
vn 0.000000 -1.000000 0.000000
vn 0.000000 1.000000 0.000000
vn 0.000000 1.000000 0.000000
vn 0.000000 1.000000 0.000000
vn 0.000000 1.000000 0.000000
vn 0.000000 1.000000 0.000000
vn 0.000000 1.000000 0.000000
s off
g PiezIzq:Mesh
usemtl PiezIzq:palette
f 3/1/1 2/4/2 1/5/3
f 4/6/4 2/7/5 3/1/6
f 5/2/7 4/8/8 3/9/9
f 6/10/10 4/11/11 5/2/12
f 7/3/13 6/12/14 5/13/15
f 8/14/16 6/15/17 7/3/18
f 9/16/19 10/17/20 11/18/21
f 11/19/22 10/20/23 12/21/24
f 11/22/25 12/23/26 13/24/27
f 13/25/28 12/26/29 14/27/30
f 13/28/31 14/29/32 15/30/33
f 15/31/34 14/32/35 16/33/36
f 21/34/37 18/35/38 17/36/39
f 22/37/40 19/38/41 18/39/42
f 22/40/43 18/41/44 21/42/45
f 23/43/46 20/44/47 19/45/48
f 23/46/49 19/47/50 22/48/51
f 24/49/52 20/50/53 23/51/54
f 25/52/55 26/53/56 29/54/57
f 26/55/58 27/56/59 30/57/60
f 29/58/61 26/59/62 30/60/63
f 27/61/64 28/62/65 31/63/66
f 30/64/67 27/65/68 31/66/69
f 31/67/70 28/68/71 32/69/72
f 35/70/73 34/71/74 33/72/75
f 36/73/76 34/74/77 35/75/78
f 37/76/79 38/77/80 39/78/81
f 39/79/82 38/80/83 40/81/84
