# This file uses centimeters as units for non-parametric coordinates.

mtllib CuerpoP.mtl
g default
v -0.904654 0.267773 1.518771
v -1.285765 0.267773 1.529572
v -0.904654 0.713582 1.518771
v -0.968173 0.713582 1.520571
v -0.904654 0.763117 1.518771
v -0.968173 0.763117 1.520571
v -1.285765 0.763117 1.529572
v -0.916838 0.267773 1.088912
v -1.297948 0.267773 1.099714
v -0.916838 0.366842 1.088912
v -0.980356 0.366842 1.090712
v -0.916838 0.416376 1.088912
v -0.980356 0.416376 1.090712
v -0.916838 0.713582 1.088912
v -0.980356 0.713582 1.090712
v -0.916838 0.763117 1.088912
v -0.980356 0.763117 1.090712
v -1.297948 0.763117 1.099714
v -0.904654 0.267773 1.518771
v -0.904654 0.713582 1.518771
v -0.904654 0.763117 1.518771
v -0.906685 0.267773 1.447128
v -0.906685 0.317307 1.447128
v -0.906685 0.366842 1.447128
v -0.906685 0.465910 1.447128
v -0.906685 0.614514 1.447128
v -0.906685 0.713582 1.447128
v -0.908716 0.267773 1.375485
v -0.908716 0.317307 1.375485
v -0.908716 0.366842 1.375485
v -0.908716 0.465910 1.375485
v -0.908716 0.515445 1.375485
v -0.908716 0.564979 1.375485
v -0.910746 0.465910 1.303841
v -0.910746 0.515445 1.303841
v -0.910746 0.564979 1.303841
v -0.910746 0.614514 1.303841
v -0.912777 0.267773 1.232198
v -0.912777 0.317307 1.232198
v -0.912777 0.465910 1.232198
v -0.912777 0.564979 1.232198
v -0.912777 0.614514 1.232198
v -0.912777 0.713582 1.232198
v -0.914807 0.267773 1.160555
v -0.914807 0.317307 1.160555
v -0.914807 0.366842 1.160555
v -0.914807 0.416376 1.160555
v -0.914807 0.564979 1.160555
v -0.914807 0.614514 1.160555
v -0.916838 0.267773 1.088912
v -0.916838 0.366842 1.088912
v -0.916838 0.416376 1.088912
v -0.916838 0.713582 1.088912
v -0.916838 0.763117 1.088912
v -1.285765 0.267773 1.529572
v -1.285765 0.763117 1.529572
v -1.297948 0.267773 1.099714
v -1.297948 0.763117 1.099714
v -0.904654 0.267773 1.518771
v -0.906685 0.267773 1.447128
v -0.908716 0.267773 1.375485
v -0.912777 0.267773 1.232198
v -0.914807 0.267773 1.160555
v -0.916838 0.267773 1.088912
v -0.970203 0.267773 1.448928
v -0.972234 0.267773 1.377285
v -0.976295 0.267773 1.233999
v -0.978326 0.267773 1.162355
v -1.285765 0.267773 1.529572
v -1.297948 0.267773 1.099714
v -0.904654 0.763117 1.518771
v -0.916838 0.763117 1.088912
v -0.968173 0.763117 1.520571
v -0.980356 0.763117 1.090712
v -1.285765 0.763117 1.529572
v -1.297948 0.763117 1.099714
vt 0.091797 0.500000
vt 0.591797 0.500000
vt 0.994141 0.500000
vt 0.091797 0.500000
vt 0.091797 0.500000
vt 0.091797 0.500000
vt 0.091797 0.500000
vt 0.591797 0.500000
vt 0.591797 0.500000
vt 0.091797 0.500000
vt 0.091797 0.500000
vt 0.091797 0.500000
vt 0.591797 0.500000
vt 0.591797 0.500000
vt 0.091797 0.500000
vt 0.091797 0.500000
vt 0.091797 0.500000
vt 0.091797 0.500000
vt 0.091797 0.500000
vt 0.091797 0.500000
vt 0.091797 0.500000
vt 0.091797 0.500000
vt 0.091797 0.500000
vt 0.994141 0.500000
vt 0.994141 0.500000
vt 0.091797 0.500000
vt 0.091797 0.500000
vt 0.091797 0.500000
vt 0.994141 0.500000
vt 0.994141 0.500000
vt 0.994141 0.500000
vt 0.091797 0.500000
vt 0.091797 0.500000
vt 0.091797 0.500000
vt 0.091797 0.500000
vt 0.091797 0.500000
vt 0.091797 0.500000
vt 0.091797 0.500000
vt 0.091797 0.500000
vt 0.091797 0.500000
vt 0.591797 0.500000
vt 0.591797 0.500000
vt 0.591797 0.500000
vt 0.091797 0.500000
vt 0.091797 0.500000
vt 0.091797 0.500000
vt 0.591797 0.500000
vt 0.591797 0.500000
vt 0.591797 0.500000
vt 0.091797 0.500000
vt 0.091797 0.500000
vt 0.091797 0.500000
vt 0.091797 0.500000
vt 0.091797 0.500000
vt 0.091797 0.500000
vt 0.091797 0.500000
vt 0.091797 0.500000
vt 0.091797 0.500000
vt 0.091797 0.500000
vt 0.091797 0.500000
vt 0.091797 0.500000
vt 0.091797 0.500000
vt 0.091797 0.500000
vt 0.091797 0.500000
vt 0.091797 0.500000
vt 0.091797 0.500000
vt 0.091797 0.500000
vt 0.591797 0.500000
vt 0.591797 0.500000
vt 0.591797 0.500000
vt 0.091797 0.500000
vt 0.091797 0.500000
vt 0.091797 0.500000
vt 0.994141 0.500000
vt 0.994141 0.500000
vt 0.994141 0.500000
vt 0.091797 0.500000
vt 0.091797 0.500000
vt 0.091797 0.500000
vt 0.994141 0.500000
vt 0.994141 0.500000
vt 0.994141 0.500000
vt 0.994141 0.500000
vt 0.994141 0.500000
vt 0.994141 0.500000
vt 0.091797 0.500000
vt 0.091797 0.500000
vt 0.091797 0.500000
vt 0.091797 0.500000
vt 0.091797 0.500000
vt 0.091797 0.500000
vt 0.994141 0.500000
vt 0.994141 0.500000
vt 0.994141 0.500000
vt 0.091797 0.500000
vt 0.091797 0.500000
vt 0.091797 0.500000
vt 0.091797 0.500000
vt 0.091797 0.500000
vt 0.091797 0.500000
vt 0.091797 0.500000
vt 0.091797 0.500000
vt 0.091797 0.500000
vt 0.091797 0.500000
vt 0.091797 0.500000
vt 0.091797 0.500000
vt 0.091797 0.500000
vt 0.091797 0.500000
vt 0.091797 0.500000
vt 0.091797 0.500000
vt 0.091797 0.500000
vt 0.091797 0.500000
vt 0.591797 0.500000
vt 0.591797 0.500000
vt 0.591797 0.500000
vt 0.091797 0.500000
vt 0.091797 0.500000
vt 0.091797 0.500000
vt 0.091797 0.500000
vt 0.091797 0.500000
vt 0.091797 0.500000
vt 0.591797 0.500000
vt 0.591797 0.500000
vt 0.591797 0.500000
vt 0.591797 0.500000
vt 0.591797 0.500000
vt 0.591797 0.500000
vt 0.091797 0.500000
vt 0.091797 0.500000
vt 0.091797 0.500000
vt 0.091797 0.500000
vt 0.091797 0.500000
vt 0.091797 0.500000
vt 0.091797 0.500000
vt 0.091797 0.500000
vt 0.091797 0.500000
vt 0.591797 0.500000
vt 0.591797 0.500000
vt 0.591797 0.500000
vt 0.091797 0.500000
vt 0.091797 0.500000
vt 0.091797 0.500000
vt 0.591797 0.500000
vt 0.591797 0.500000
vt 0.591797 0.500000
vt 0.591797 0.500000
vt 0.591797 0.500000
vt 0.591797 0.500000
vt 0.591797 0.500000
vt 0.591797 0.500000
vt 0.591797 0.500000
vt 0.591797 0.500000
vt 0.591797 0.500000
vt 0.591797 0.500000
vt 0.591797 0.500000
vt 0.591797 0.500000
vt 0.591797 0.500000
vt 0.591797 0.500000
vt 0.591797 0.500000
vt 0.591797 0.500000
vt 0.591797 0.500000
vt 0.591797 0.500000
vt 0.591797 0.500000
vt 0.994141 0.500000
vt 0.994141 0.500000
vt 0.994141 0.500000
vt 0.091797 0.500000
vt 0.091797 0.500000
vt 0.091797 0.500000
vt 0.994141 0.500000
vt 0.994141 0.500000
vt 0.994141 0.500000
vt 0.091797 0.500000
vt 0.091797 0.500000
vt 0.091797 0.500000
vt 0.091797 0.500000
vt 0.091797 0.500000
vt 0.091797 0.500000
vt 0.091797 0.500000
vt 0.091797 0.500000
vt 0.091797 0.500000
vt 0.591797 0.500000
vt 0.591797 0.500000
vt 0.591797 0.500000
vt 0.091797 0.500000
vt 0.091797 0.500000
vt 0.091797 0.500000
vt 0.091797 0.500000
vt 0.091797 0.500000
vt 0.091797 0.500000
vt 0.591797 0.500000
vt 0.591797 0.500000
vt 0.591797 0.500000
vt 0.091797 0.500000
vt 0.091797 0.500000
vt 0.091797 0.500000
vt 0.091797 0.500000
vt 0.091797 0.500000
vt 0.091797 0.500000
vt 0.994141 0.500000
vt 0.994141 0.500000
vt 0.994141 0.500000
vt 0.091797 0.500000
vt 0.091797 0.500000
vt 0.091797 0.500000
vt 0.091797 0.500000
vt 0.091797 0.500000
vt 0.091797 0.500000
vt 0.994141 0.500000
vt 0.994141 0.500000
vt 0.994141 0.500000
vt 0.091797 0.500000
vt 0.091797 0.500000
vt 0.091797 0.500000
vt 0.591797 0.500000
vt 0.591797 0.500000
vt 0.591797 0.500000
vt 0.091797 0.500000
vt 0.091797 0.500000
vt 0.091797 0.500000
vt 0.091797 0.500000
vt 0.091797 0.500000
vt 0.091797 0.500000
vt 0.591797 0.500000
vt 0.591797 0.500000
vt 0.591797 0.500000
vt 0.091797 0.500000
vt 0.091797 0.500000
vt 0.091797 0.500000
vt 0.091797 0.500000
vt 0.091797 0.500000
vt 0.091797 0.500000
vt 0.091797 0.500000
vt 0.091797 0.500000
vt 0.091797 0.500000
vt 0.994141 0.500000
vt 0.994141 0.500000
vt 0.994141 0.500000
vt 0.091797 0.500000
vt 0.091797 0.500000
vt 0.091797 0.500000
vt 0.994141 0.500000
vt 0.994141 0.500000
vt 0.994141 0.500000
vt 0.994141 0.500000
vt 0.994141 0.500000
vt 0.994141 0.500000
vt 0.091797 0.500000
vt 0.091797 0.500000
vt 0.091797 0.500000
vt 0.091797 0.500000
vt 0.091797 0.500000
vt 0.091797 0.500000
vt 0.994141 0.500000
vt 0.994141 0.500000
vt 0.994141 0.500000
vt 0.091797 0.500000
vt 0.091797 0.500000
vt 0.091797 0.500000
vt 0.091797 0.500000
vt 0.091797 0.500000
vt 0.091797 0.500000
vt 0.091797 0.500000
vt 0.091797 0.500000
vt 0.091797 0.500000
vt 0.091797 0.500000
vt 0.091797 0.500000
vt 0.091797 0.500000
vt 0.091797 0.500000
vt 0.091797 0.500000
vt 0.091797 0.500000
vt 0.091797 0.500000
vt 0.091797 0.500000
vt 0.091797 0.500000
vt 0.591797 0.500000
vt 0.591797 0.500000
vt 0.591797 0.500000
vt 0.591797 0.500000
vt 0.591797 0.500000
vt 0.591797 0.500000
vt 0.091797 0.500000
vt 0.091797 0.500000
vt 0.091797 0.500000
vt 0.091797 0.500000
vt 0.091797 0.500000
vt 0.091797 0.500000
vn 0.028331 0.000000 0.999599
vn 0.028331 0.000000 0.999599
vn 0.028331 0.000000 0.999599
vn 0.028331 0.000000 0.999599
vn 0.028331 0.000000 0.999599
vn 0.028331 0.000000 0.999599
vn 0.028331 0.000000 0.999599
vn 0.028331 0.000000 0.999599
vn 0.028331 0.000000 0.999599
vn 0.028331 0.000000 0.999599
vn 0.028331 0.000000 0.999599
vn 0.028331 0.000000 0.999599
vn 0.028331 0.000000 0.999599
vn 0.028331 0.000000 0.999599
vn 0.028331 0.000000 0.999599
vn 0.028331 0.000000 0.999599
vn 0.028331 0.000000 0.999599
vn 0.028331 0.000000 0.999599
vn -0.028331 0.000000 -0.999599
vn -0.028331 0.000000 -0.999599
vn -0.028331 0.000000 -0.999599
vn -0.028331 0.000000 -0.999599
vn -0.028331 0.000000 -0.999599
vn -0.028331 0.000000 -0.999599
vn -0.028331 0.000000 -0.999599
vn -0.028331 0.000000 -0.999599
vn -0.028331 0.000000 -0.999599
vn -0.028331 0.000000 -0.999599
vn -0.028331 0.000000 -0.999599
vn -0.028331 0.000000 -0.999599
vn -0.028331 0.000000 -0.999599
vn -0.028331 0.000000 -0.999599
vn -0.028331 0.000000 -0.999599
vn -0.028331 0.000000 -0.999599
vn -0.028331 0.000000 -0.999599
vn -0.028331 0.000000 -0.999599
vn -0.028331 0.000000 -0.999599
vn -0.028331 0.000000 -0.999599
vn -0.028331 0.000000 -0.999599
vn -0.028331 0.000000 -0.999599
vn -0.028331 0.000000 -0.999599
vn -0.028331 0.000000 -0.999599
vn -0.028331 0.000000 -0.999599
vn -0.028331 0.000000 -0.999599
vn -0.028331 0.000000 -0.999599
vn -0.028331 0.000000 -0.999599
vn -0.028331 0.000000 -0.999599
vn -0.028331 0.000000 -0.999599
vn -0.028331 0.000000 -0.999599
vn -0.028331 0.000000 -0.999599
vn -0.028331 0.000000 -0.999599
vn -0.028331 0.000000 -0.999599
vn -0.028331 0.000000 -0.999599
vn -0.028331 0.000000 -0.999599
vn 0.999599 0.000000 -0.028331
vn 0.999599 0.000000 -0.028331
vn 0.999599 0.000000 -0.028331
vn 0.999599 0.000000 -0.028331
vn 0.999599 0.000000 -0.028331
vn 0.999599 0.000000 -0.028331
vn 0.999599 0.000000 -0.028331
vn 0.999599 0.000000 -0.028331
vn 0.999599 0.000000 -0.028331
vn 0.999599 0.000000 -0.028331
vn 0.999599 0.000000 -0.028331
vn 0.999599 0.000000 -0.028331
vn 0.999599 0.000000 -0.028331
vn 0.999599 0.000000 -0.028331
vn 0.999599 0.000000 -0.028331
vn 0.999599 0.000000 -0.028331
vn 0.999599 0.000000 -0.028331
vn 0.999599 0.000000 -0.028331
vn 0.999599 0.000000 -0.028331
vn 0.999599 0.000000 -0.028331
vn 0.999599 0.000000 -0.028331
vn 0.999599 0.000000 -0.028331
vn 0.999599 0.000000 -0.028331
vn 0.999599 0.000000 -0.028331
vn 0.999599 0.000000 -0.028331
vn 0.999599 0.000000 -0.028331
vn 0.999599 0.000000 -0.028331
vn 0.999599 0.000000 -0.028331
vn 0.999599 0.000000 -0.028331
vn 0.999599 0.000000 -0.028331
vn 0.999599 0.000000 -0.028331
vn 0.999599 0.000000 -0.028331
vn 0.999599 0.000000 -0.028331
vn 0.999599 0.000000 -0.028331
vn 0.999599 0.000000 -0.028331
vn 0.999599 0.000000 -0.028331
vn 0.999599 0.000000 -0.028331
vn 0.999599 0.000000 -0.028331
vn 0.999599 0.000000 -0.028331
vn 0.999599 0.000000 -0.028331
vn 0.999599 0.000000 -0.028331
vn 0.999599 0.000000 -0.028331
vn 0.999599 0.000000 -0.028331
vn 0.999599 0.000000 -0.028331
vn 0.999599 0.000000 -0.028331
vn 0.999599 0.000000 -0.028331
vn 0.999599 0.000000 -0.028331
vn 0.999599 0.000000 -0.028331
vn 0.999599 0.000000 -0.028331
vn 0.999599 0.000000 -0.028331
vn 0.999599 0.000000 -0.028331
vn 0.999599 0.000000 -0.028331
vn 0.999599 0.000000 -0.028331
vn 0.999599 0.000000 -0.028331
vn 0.999599 0.000000 -0.028331
vn 0.999599 0.000000 -0.028331
vn 0.999599 0.000000 -0.028331
vn 0.999599 0.000000 -0.028331
vn 0.999599 0.000000 -0.028331
vn 0.999599 0.000000 -0.028331
vn 0.999599 0.000000 -0.028331
vn 0.999599 0.000000 -0.028331
vn 0.999599 0.000000 -0.028331
vn 0.999599 0.000000 -0.028331
vn 0.999599 0.000000 -0.028331
vn 0.999599 0.000000 -0.028331
vn 0.999599 0.000000 -0.028331
vn 0.999599 0.000000 -0.028331
vn 0.999599 0.000000 -0.028331
vn 0.999599 0.000000 -0.028331
vn 0.999599 0.000000 -0.028331
vn 0.999599 0.000000 -0.028331
vn 0.999599 0.000000 -0.028331
vn 0.999599 0.000000 -0.028331
vn 0.999599 0.000000 -0.028331
vn 0.999599 0.000000 -0.028331
vn 0.999599 0.000000 -0.028331
vn 0.999599 0.000000 -0.028331
vn 0.999599 0.000000 -0.028331
vn 0.999599 0.000000 -0.028331
vn 0.999599 0.000000 -0.028331
vn 0.999599 0.000000 -0.028331
vn 0.999599 0.000000 -0.028331
vn 0.999599 0.000000 -0.028331
vn 0.999599 0.000000 -0.028331
vn 0.999599 0.000000 -0.028331
vn 0.999599 0.000000 -0.028331
vn 0.999599 0.000000 -0.028331
vn 0.999599 0.000000 -0.028331
vn 0.999599 0.000000 -0.028331
vn 0.999599 0.000000 -0.028331
vn 0.999599 0.000000 -0.028331
vn 0.999599 0.000000 -0.028331
vn 0.999599 0.000000 -0.028331
vn 0.999599 0.000000 -0.028331
vn 0.999599 0.000000 -0.028331
vn 0.999599 0.000000 -0.028331
vn 0.999599 0.000000 -0.028331
vn 0.999599 0.000000 -0.028331
vn 0.999599 0.000000 -0.028331
vn 0.999599 0.000000 -0.028331
vn 0.999599 0.000000 -0.028331
vn 0.999599 0.000000 -0.028331
vn 0.999599 0.000000 -0.028331
vn 0.999599 0.000000 -0.028331
vn 0.999599 0.000000 -0.028331
vn 0.999599 0.000000 -0.028331
vn 0.999599 0.000000 -0.028331
vn 0.999599 0.000000 -0.028331
vn 0.999599 0.000000 -0.028331
vn 0.999599 0.000000 -0.028331
vn 0.999599 0.000000 -0.028331
vn 0.999599 0.000000 -0.028331
vn 0.999599 0.000000 -0.028331
vn 0.999599 0.000000 -0.028331
vn 0.999599 0.000000 -0.028331
vn 0.999599 0.000000 -0.028331
vn 0.999599 0.000000 -0.028331
vn 0.999599 0.000000 -0.028331
vn 0.999599 0.000000 -0.028331
vn 0.999599 0.000000 -0.028331
vn 0.999599 0.000000 -0.028331
vn 0.999599 0.000000 -0.028331
vn 0.999599 0.000000 -0.028331
vn 0.999599 0.000000 -0.028331
vn 0.999599 0.000000 -0.028331
vn 0.999599 0.000000 -0.028331
vn 0.999599 0.000000 -0.028331
vn 0.999599 0.000000 -0.028331
vn 0.999599 0.000000 -0.028331
vn 0.999599 0.000000 -0.028331
vn 0.999599 0.000000 -0.028331
vn 0.999599 0.000000 -0.028331
vn 0.999599 0.000000 -0.028331
vn 0.999599 0.000000 -0.028331
vn 0.999599 0.000000 -0.028331
vn 0.999599 0.000000 -0.028331
vn 0.999599 0.000000 -0.028331
vn 0.999599 0.000000 -0.028331
vn 0.999599 0.000000 -0.028331
vn 0.999599 0.000000 -0.028331
vn 0.999599 0.000000 -0.028331
vn 0.999599 0.000000 -0.028331
vn 0.999599 0.000000 -0.028331
vn 0.999599 0.000000 -0.028331
vn 0.999599 0.000000 -0.028331
vn 0.999599 0.000000 -0.028331
vn 0.999599 0.000000 -0.028331
vn 0.999599 0.000000 -0.028331
vn 0.999599 0.000000 -0.028331
vn 0.999599 0.000000 -0.028331
vn 0.999599 0.000000 -0.028331
vn 0.999599 0.000000 -0.028331
vn 0.999599 0.000000 -0.028331
vn 0.999599 0.000000 -0.028331
vn 0.999599 0.000000 -0.028331
vn 0.999599 0.000000 -0.028331
vn 0.999599 0.000000 -0.028331
vn 0.999599 0.000000 -0.028331
vn 0.999599 0.000000 -0.028331
vn 0.999599 0.000000 -0.028331
vn 0.999599 0.000000 -0.028331
vn 0.999599 0.000000 -0.028331
vn 0.999599 0.000000 -0.028331
vn 0.999599 0.000000 -0.028331
vn 0.999599 0.000000 -0.028331
vn 0.999599 0.000000 -0.028331
vn 0.999599 0.000000 -0.028331
vn 0.999599 0.000000 -0.028331
vn 0.999599 0.000000 -0.028331
vn 0.999599 0.000000 -0.028331
vn 0.999599 0.000000 -0.028331
vn 0.999599 0.000000 -0.028331
vn 0.999599 0.000000 -0.028331
vn -0.999599 0.000000 0.028331
vn -0.999599 0.000000 0.028331
vn -0.999599 0.000000 0.028331
vn -0.999599 0.000000 0.028331
vn -0.999599 0.000000 0.028331
vn -0.999599 0.000000 0.028331
vn 0.000000 -1.000000 -0.000000
vn 0.000000 -1.000000 -0.000000
vn 0.000000 -1.000000 -0.000000
vn 0.000000 -1.000000 -0.000000
vn 0.000000 -1.000000 -0.000000
vn 0.000000 -1.000000 -0.000000
vn 0.000000 -1.000000 -0.000000
vn 0.000000 -1.000000 -0.000000
vn 0.000000 -1.000000 -0.000000
vn 0.000000 -1.000000 -0.000000
vn 0.000000 -1.000000 -0.000000
vn 0.000000 -1.000000 -0.000000
vn 0.000000 -1.000000 -0.000000
vn 0.000000 -1.000000 -0.000000
vn 0.000000 -1.000000 -0.000000
vn 0.000000 -1.000000 -0.000000
vn 0.000000 -1.000000 -0.000000
vn 0.000000 -1.000000 -0.000000
vn 0.000000 -1.000000 -0.000000
vn 0.000000 -1.000000 -0.000000
vn 0.000000 -1.000000 -0.000000
vn 0.000000 -1.000000 -0.000000
vn 0.000000 -1.000000 -0.000000
vn 0.000000 -1.000000 -0.000000
vn 0.000000 -1.000000 -0.000000
vn 0.000000 -1.000000 -0.000000
vn 0.000000 -1.000000 -0.000000
vn 0.000000 -1.000000 -0.000000
vn 0.000000 -1.000000 -0.000000
vn 0.000000 -1.000000 -0.000000
vn 0.000000 -1.000000 -0.000000
vn 0.000000 -1.000000 -0.000000
vn 0.000000 -1.000000 -0.000000
vn 0.000000 -1.000000 -0.000000
vn 0.000000 -1.000000 -0.000000
vn 0.000000 -1.000000 -0.000000
vn 0.000000 -1.000000 -0.000000
vn 0.000000 -1.000000 -0.000000
vn 0.000000 -1.000000 -0.000000
vn 0.000000 -1.000000 -0.000000
vn 0.000000 -1.000000 -0.000000
vn 0.000000 -1.000000 -0.000000
vn 0.000000 1.000000 0.000000
vn 0.000000 1.000000 0.000000
vn 0.000000 1.000000 0.000000
vn 0.000000 1.000000 0.000000
vn 0.000000 1.000000 0.000000
vn 0.000000 1.000000 0.000000
vn 0.000000 1.000000 0.000000
vn 0.000000 1.000000 0.000000
vn 0.000000 1.000000 0.000000
vn 0.000000 1.000000 0.000000
vn 0.000000 1.000000 0.000000
vn 0.000000 1.000000 0.000000
s off
g Cuerpo4:Mesh
usemtl Cuerpo4:palette
f 3/1/1 2/4/2 1/5/3
f 4/6/4 2/7/5 3/1/6
f 5/2/7 4/8/8 3/9/9
f 6/10/10 2/11/11 4/12/12
f 6/13/13 4/14/14 5/2/15
f 7/15/16 2/16/17 6/17/18
f 8/18/19 9/19/20 10/20/21
f 10/21/22 9/22/23 11/23/24
f 10/3/25 11/24/26 12/25/27
f 11/26/28 9/27/29 13/28/30
f 12/29/31 11/30/32 13/31/33
f 12/32/34 13/33/35 14/34/36
f 13/35/37 9/36/38 15/37/39
f 14/38/40 13/39/41 15/40/42
f 14/41/43 15/42/44 16/43/45
f 15/44/46 9/45/47 17/46/48
f 16/47/49 15/48/50 17/49/51
f 17/50/52 9/51/53 18/52/54
f 22/53/55 20/54/56 19/55/57
f 23/56/58 20/57/59 22/58/60
f 24/59/61 20/60/62 23/61/63
f 25/62/64 20/63/65 24/64/66
f 26/65/67 20/66/68 25/67/69
f 27/68/70 21/69/71 20/70/72
f 27/71/73 20/72/74 26/73/75
f 28/74/76 23/75/77 22/76/78
f 29/77/79 24/78/80 23/79/81
f 29/80/82 23/81/83 28/82/84
f 30/83/85 25/84/86 24/85/87
f 30/86/88 24/87/89 29/88/90
f 31/89/91 26/90/92 25/91/93
f 31/92/94 25/93/95 30/94/96
f 32/95/97 26/96/98 31/97/99
f 33/98/100 26/99/101 32/100/102
f 34/101/103 30/102/104 29/103/105
f 34/104/106 29/105/107 28/106/108
f 34/107/109 31/108/110 30/109/111
f 34/110/112 32/111/113 31/112/114
f 35/113/115 33/114/116 32/115/117
f 35/116/118 32/117/119 34/118/120
f 36/119/121 26/120/122 33/121/123
f 36/122/124 33/123/125 35/124/126
f 37/125/127 27/126/128 26/127/129
f 37/128/130 26/129/131 36/130/132
f 38/131/133 34/132/134 28/133/135
f 39/134/136 34/135/137 38/136/138
f 40/137/139 35/138/140 34/139/141
f 40/140/142 34/141/143 39/142/144
f 40/143/145 36/144/146 35/145/147
f 40/146/148 37/147/149 36/148/150
f 41/149/151 37/150/152 40/151/153
f 42/152/154 27/153/155 37/154/156
f 42/155/157 37/156/158 41/157/159
f 43/158/160 21/159/161 27/160/162
f 43/161/163 27/162/164 42/163/165
f 44/164/166 39/165/167 38/166/168
f 45/167/169 41/168/170 40/169/171
f 45/170/172 39/171/173 44/172/174
f 45/173/175 40/174/176 39/175/177
f 46/176/178 41/177/179 45/178/180
f 47/179/181 41/180/182 46/181/183
f 48/182/184 42/183/185 41/184/186
f 48/185/187 41/186/188 47/187/189
f 49/188/190 43/189/191 42/190/192
f 49/191/193 42/192/194 48/193/195
f 50/194/196 45/195/197 44/196/198
f 50/197/199 46/198/200 45/199/201
f 51/200/202 47/201/203 46/202/204
f 51/203/205 46/204/206 50/205/207
f 52/206/208 48/207/209 47/208/210
f 52/209/211 47/210/212 51/211/213
f 52/212/214 49/213/215 48/214/216
f 53/215/217 21/216/218 43/217/219
f 53/218/220 49/219/221 52/220/222
f 53/221/223 43/222/224 49/223/225
f 54/224/226 21/225/227 53/226/228
f 55/227/229 56/228/230 57/229/231
f 57/230/232 56/231/233 58/232/234
f 65/233/235 60/234/236 59/235/237
f 65/236/238 61/237/239 60/238/240
f 66/239/241 62/240/242 61/241/243
f 66/242/244 61/243/245 65/244/246
f 67/245/247 63/246/248 62/247/249
f 67/248/250 62/249/251 66/250/252
f 68/251/253 64/252/254 63/253/255
f 68/254/256 63/255/257 67/256/258
f 69/257/259 67/258/260 66/259/261
f 69/260/262 66/261/263 65/262/264
f 69/263/265 68/264/266 67/265/267
f 69/266/268 65/267/269 59/268/270
f 70/269/271 64/270/272 68/271/273
f 70/272/274 68/273/275 69/274/276
f 71/275/277 72/276/278 73/277/279
f 73/278/280 72/279/281 74/280/282
f 73/281/283 74/282/284 75/283/285
f 75/284/286 74/285/287 76/286/288
