# MagicaVoxel @ Ephtracy

# group
o 

# material
mtllib Betty.mtl
usemtl palette

# normals
vn -1 0 0
vn 1 0 0
vn 0 0 1
vn 0 0 -1
vn 0 -1 0
vn 0 1 0

# texcoords
vt 0.0605469 0.5
vt 0.751953 0.5
vt 0.958984 0.5
vt 0.994141 0.5

# verts
v -0.7 0.7 1
v -0.7 0.7 0.7
v -0.7 1.3 1
v -0.7 1.3 0.7
v -0.5 0 0.8
v -0.5 0 0.5
v -0.5 0.4 0.6
v -0.5 0.4 0.5
v -0.5 0.5 1
v -0.5 0.5 0.8
v -0.5 0.5 0.6
v -0.5 0.6 0.7
v -0.5 0.6 0.5
v -0.5 0.7 1
v -0.5 0.7 0.7
v -0.5 1.3 1
v -0.5 1.3 0.7
v -0.5 1.7 1
v -0.5 1.7 0.7
v -0.5 1.9 1
v -0.5 1.9 0.7
v 0.1 0 0.8
v 0.1 0 0.5
v 0.1 0.4 0.8
v 0.1 0.4 0.6
v 0.1 0.5 1
v 0.1 0.5 0.8
v 0.1 0.5 0.6
v 0.1 0.5 0.5
v 0.1 0.6 0.7
v 0.1 0.6 0.5
v 0.1 0.7 1
v 0.1 0.7 0.7
v 0.1 1.3 1
v 0.1 1.3 0.7
v 0.1 1.7 1
v 0.1 1.7 0.7
v 0.1 1.9 1
v 0.1 1.9 0.7
v 0.3 0.7 1
v 0.3 0.7 0.7
v 0.3 1.3 1
v 0.3 1.3 0.7
v -0.7 0.7 1
v -0.7 1.3 1
v -0.5 0.5 1
v -0.5 0.7 1
v -0.5 1.3 1
v -0.5 1.7 1
v -0.5 1.9 1
v 0.1 0.5 1
v 0.1 0.7 1
v 0.1 1.3 1
v 0.1 1.7 1
v 0.1 1.9 1
v 0.3 0.7 1
v 0.3 1.3 1
v -0.5 0 0.8
v -0.5 0.5 0.8
v -0.4 0.4 0.8
v -0.4 0.5 0.8
v -0.3 0.4 0.8
v -0.3 0.5 0.8
v -0.2 0.4 0.8
v -0.2 0.5 0.8
v -0.1 0.4 0.8
v -0.1 0.5 0.8
v 5.96046e-08 0.4 0.8
v 5.96046e-08 0.5 0.8
v 0.1 0 0.8
v 0.1 0.4 0.8
v 0.1 0.5 0.8
v -0.7 0.7 0.7
v -0.7 1.3 0.7
v -0.5 0.6 0.7
v -0.5 0.7 0.7
v -0.5 1.3 0.7
v -0.5 1.7 0.7
v -0.5 1.9 0.7
v -0.4 1.5 0.7
v -0.4 1.6 0.7
v -0.3 1.3 0.7
v -0.3 1.4 0.7
v -0.3 1.5 0.7
v -0.3 1.6 0.7
v -0.1 1.3 0.7
v -0.1 1.4 0.7
v -0.1 1.5 0.7
v -0.1 1.6 0.7
v 5.96046e-08 1.5 0.7
v 5.96046e-08 1.6 0.7
v 0.1 0.6 0.7
v 0.1 0.7 0.7
v 0.1 1.3 0.7
v 0.1 1.7 0.7
v 0.1 1.9 0.7
v 0.3 0.7 0.7
v 0.3 1.3 0.7
v -0.5 0 0.5
v -0.5 0.4 0.5
v -0.5 0.6 0.5
v -0.4 0.4 0.5
v -0.4 0.5 0.5
v -0.3 0.4 0.5
v -0.3 0.5 0.5
v -0.2 0.4 0.5
v -0.2 0.5 0.5
v -0.1 0.4 0.5
v -0.1 0.5 0.5
v 5.96046e-08 0.4 0.5
v 5.96046e-08 0.5 0.5
v 0.1 0 0.5
v 0.1 0.5 0.5
v 0.1 0.6 0.5
v -0.5 0 0.8
v 0.1 0 0.8
v -0.5 0 0.5
v 0.1 0 0.5
v -0.5 0.5 1
v 0.1 0.5 1
v -0.5 0.5 0.8
v -0.4 0.5 0.8
v -0.3 0.5 0.8
v -0.2 0.5 0.8
v -0.1 0.5 0.8
v 5.96046e-08 0.5 0.8
v 0.1 0.5 0.8
v -0.7 0.7 1
v -0.5 0.7 1
v 0.1 0.7 1
v 0.3 0.7 1
v -0.7 0.7 0.7
v -0.5 0.7 0.7
v 0.1 0.7 0.7
v 0.3 0.7 0.7
v -0.5 0.6 0.7
v 0.1 0.6 0.7
v -0.5 0.6 0.5
v 0.1 0.6 0.5
v -0.7 1.3 1
v -0.5 1.3 1
v 0.1 1.3 1
v 0.3 1.3 1
v -0.7 1.3 0.7
v -0.5 1.3 0.7
v 0.1 1.3 0.7
v 0.3 1.3 0.7
v -0.5 1.9 1
v 0.1 1.9 1
v -0.5 1.9 0.7
v 0.1 1.9 0.7

# faces
f 3/1/1 2/1/1 1/1/1
f 4/1/1 2/1/1 3/1/1
f 7/1/1 6/1/1 5/1/1
f 8/1/1 6/1/1 7/1/1
f 10/1/1 7/1/1 5/1/1
f 11/2/1 8/2/1 7/2/1
f 11/1/1 7/1/1 10/1/1
f 12/2/1 10/2/1 9/2/1
f 12/2/1 11/2/1 10/2/1
f 13/2/1 8/2/1 11/2/1
f 13/2/1 11/2/1 12/2/1
f 14/2/1 12/2/1 9/2/1
f 15/2/1 12/2/1 14/2/1
f 18/1/1 17/1/1 16/1/1
f 19/1/1 17/1/1 18/1/1
f 20/4/1 19/4/1 18/4/1
f 21/4/1 19/4/1 20/4/1
f 22/1/2 23/1/2 24/1/2
f 24/1/2 23/1/2 25/1/2
f 24/2/2 25/2/2 27/2/2
f 25/1/2 23/1/2 28/1/2
f 27/2/2 25/2/2 28/2/2
f 28/1/2 23/1/2 29/1/2
f 26/2/2 27/2/2 30/2/2
f 27/2/2 28/2/2 30/2/2
f 28/2/2 29/2/2 30/2/2
f 30/2/2 29/2/2 31/2/2
f 26/2/2 30/2/2 32/2/2
f 32/2/2 30/2/2 33/2/2
f 34/1/2 35/1/2 36/1/2
f 36/1/2 35/1/2 37/1/2
f 36/4/2 37/4/2 38/4/2
f 38/4/2 37/4/2 39/4/2
f 40/1/2 41/1/2 42/1/2
f 42/1/2 41/1/2 43/1/2
f 47/1/3 45/1/3 44/1/3
f 48/1/3 45/1/3 47/1/3
f 51/2/3 47/2/3 46/2/3
f 51/2/3 48/2/3 47/2/3
f 52/2/3 48/2/3 51/2/3
f 53/1/3 49/1/3 48/1/3
f 53/2/3 48/2/3 52/2/3
f 54/4/3 50/4/3 49/4/3
f 54/1/3 49/1/3 53/1/3
f 55/4/3 50/4/3 54/4/3
f 56/1/3 53/1/3 52/1/3
f 57/1/3 53/1/3 56/1/3
f 60/1/3 59/1/3 58/1/3
f 61/1/3 59/1/3 60/1/3
f 62/1/3 60/1/3 58/1/3
f 62/2/3 61/2/3 60/2/3
f 63/2/3 61/2/3 62/2/3
f 64/1/3 62/1/3 58/1/3
f 64/1/3 63/1/3 62/1/3
f 65/1/3 63/1/3 64/1/3
f 66/1/3 64/1/3 58/1/3
f 66/2/3 65/2/3 64/2/3
f 67/2/3 65/2/3 66/2/3
f 68/1/3 66/1/3 58/1/3
f 68/1/3 67/1/3 66/1/3
f 69/1/3 67/1/3 68/1/3
f 70/1/3 68/1/3 58/1/3
f 71/2/3 69/2/3 68/2/3
f 71/1/3 68/1/3 70/1/3
f 72/2/3 69/2/3 71/2/3
f 73/1/4 74/1/4 76/1/4
f 76/1/4 74/1/4 77/1/4
f 77/1/4 78/1/4 80/1/4
f 80/1/4 78/1/4 81/1/4
f 75/2/4 76/2/4 82/2/4
f 76/2/4 77/2/4 82/2/4
f 77/1/4 80/1/4 82/1/4
f 82/1/4 80/1/4 83/1/4
f 80/3/4 81/3/4 84/3/4
f 83/1/4 80/1/4 84/1/4
f 81/1/4 78/1/4 85/1/4
f 84/3/4 81/3/4 85/3/4
f 82/3/4 83/3/4 86/3/4
f 75/2/4 82/2/4 86/2/4
f 83/1/4 84/1/4 87/1/4
f 86/3/4 83/3/4 87/3/4
f 84/1/4 85/1/4 87/1/4
f 87/1/4 85/1/4 88/1/4
f 85/1/4 78/1/4 89/1/4
f 88/1/4 85/1/4 89/1/4
f 87/1/4 88/1/4 90/1/4
f 86/1/4 87/1/4 90/1/4
f 88/3/4 89/3/4 90/3/4
f 89/1/4 78/1/4 91/1/4
f 90/3/4 89/3/4 91/3/4
f 75/2/4 86/2/4 92/2/4
f 92/2/4 86/2/4 93/2/4
f 86/1/4 90/1/4 94/1/4
f 93/2/4 86/2/4 94/2/4
f 90/1/4 91/1/4 94/1/4
f 91/1/4 78/1/4 95/1/4
f 94/1/4 91/1/4 95/1/4
f 78/4/4 79/4/4 95/4/4
f 95/4/4 79/4/4 96/4/4
f 93/1/4 94/1/4 97/1/4
f 97/1/4 94/1/4 98/1/4
f 99/1/4 100/1/4 102/1/4
f 100/2/4 101/2/4 102/2/4
f 102/2/4 101/2/4 103/2/4
f 99/1/4 102/1/4 104/1/4
f 102/1/4 103/1/4 104/1/4
f 103/2/4 101/2/4 105/2/4
f 104/1/4 103/1/4 105/1/4
f 99/1/4 104/1/4 106/1/4
f 104/2/4 105/2/4 106/2/4
f 105/2/4 101/2/4 107/2/4
f 106/2/4 105/2/4 107/2/4
f 99/1/4 106/1/4 108/1/4
f 106/1/4 107/1/4 108/1/4
f 107/2/4 101/2/4 109/2/4
f 108/1/4 107/1/4 109/1/4
f 99/1/4 108/1/4 110/1/4
f 108/2/4 109/2/4 110/2/4
f 109/2/4 101/2/4 111/2/4
f 110/2/4 109/2/4 111/2/4
f 99/1/4 110/1/4 112/1/4
f 110/1/4 111/1/4 112/1/4
f 111/2/4 101/2/4 113/2/4
f 112/1/4 111/1/4 113/1/4
f 113/2/4 101/2/4 114/2/4
f 117/1/5 116/1/5 115/1/5
f 118/1/5 116/1/5 117/1/5
f 121/2/5 120/2/5 119/2/5
f 122/2/5 120/2/5 121/2/5
f 123/2/5 120/2/5 122/2/5
f 124/2/5 120/2/5 123/2/5
f 125/2/5 120/2/5 124/2/5
f 126/2/5 120/2/5 125/2/5
f 127/2/5 120/2/5 126/2/5
f 132/1/5 129/1/5 128/1/5
f 133/1/5 129/1/5 132/1/5
f 134/1/5 131/1/5 130/1/5
f 135/1/5 131/1/5 134/1/5
f 136/2/6 137/2/6 138/2/6
f 138/2/6 137/2/6 139/2/6
f 140/1/6 141/1/6 144/1/6
f 144/1/6 141/1/6 145/1/6
f 142/1/6 143/1/6 146/1/6
f 146/1/6 143/1/6 147/1/6
f 148/4/6 149/4/6 150/4/6
f 150/4/6 149/4/6 151/4/6
