# This file uses centimeters as units for non-parametric coordinates.

mtllib BrazoDer.mtl
g default
v -0.483697 -0.376721 0.121193
v -0.483697 -0.376721 -0.124948
v -0.483697 0.197426 0.203240
v -0.483697 0.197426 0.121193
v -0.483697 0.197426 -0.124948
v -0.483697 0.197426 -0.206995
v -0.483697 0.261220 0.203240
v -0.483697 0.261220 -0.206995
v -0.483697 0.388809 0.203240
v -0.483697 0.388809 -0.206995
v -0.335094 -0.376721 0.121193
v -0.335094 -0.376721 -0.124948
v -0.335094 0.197426 0.121193
v -0.335094 0.197426 -0.124948
v -0.260793 0.197426 0.203240
v -0.260793 0.197426 -0.206995
v -0.260793 0.261220 0.203240
v -0.260793 0.261220 -0.206995
v -0.260793 0.388809 0.203240
v -0.260793 0.388809 -0.206995
v -0.483697 0.197426 0.203240
v -0.483697 0.261220 0.203240
v -0.483697 0.388809 0.203240
v -0.260793 0.197426 0.203240
v -0.260793 0.261220 0.203240
v -0.260793 0.388809 0.203240
v -0.483697 -0.376721 0.121193
v -0.483697 0.197426 0.121193
v -0.335094 -0.376721 0.121193
v -0.335094 0.197426 0.121193
v -0.483697 -0.376721 -0.124948
v -0.483697 0.197426 -0.124948
v -0.335094 -0.376721 -0.124948
v -0.335094 0.197426 -0.124948
v -0.483697 0.197426 -0.206995
v -0.483697 0.261220 -0.206995
v -0.483697 0.388809 -0.206995
v -0.260793 0.197426 -0.206995
v -0.260793 0.261220 -0.206995
v -0.260793 0.388809 -0.206995
v -0.483697 -0.376721 0.121193
v -0.335094 -0.376721 0.121193
v -0.483697 -0.376721 -0.124948
v -0.335094 -0.376721 -0.124948
v -0.483697 0.197426 0.203240
v -0.260793 0.197426 0.203240
v -0.483697 0.197426 0.121193
v -0.335094 0.197426 0.121193
v -0.483697 0.197426 -0.124948
v -0.335094 0.197426 -0.124948
v -0.483697 0.197426 -0.206995
v -0.260793 0.197426 -0.206995
v -0.483697 0.388809 0.203240
v -0.260793 0.388809 0.203240
v -0.483697 0.388809 -0.206995
v -0.260793 0.388809 -0.206995
vt 0.060547 0.500000
vt 0.900391 0.500000
vt 0.904297 0.500000
vt 0.060547 0.500000
vt 0.060547 0.500000
vt 0.060547 0.500000
vt 0.060547 0.500000
vt 0.900391 0.500000
vt 0.900391 0.500000
vt 0.900391 0.500000
vt 0.900391 0.500000
vt 0.900391 0.500000
vt 0.900391 0.500000
vt 0.900391 0.500000
vt 0.900391 0.500000
vt 0.904297 0.500000
vt 0.904297 0.500000
vt 0.904297 0.500000
vt 0.904297 0.500000
vt 0.060547 0.500000
vt 0.060547 0.500000
vt 0.060547 0.500000
vt 0.060547 0.500000
vt 0.060547 0.500000
vt 0.060547 0.500000
vt 0.900391 0.500000
vt 0.900391 0.500000
vt 0.900391 0.500000
vt 0.900391 0.500000
vt 0.900391 0.500000
vt 0.900391 0.500000
vt 0.904297 0.500000
vt 0.904297 0.500000
vt 0.904297 0.500000
vt 0.904297 0.500000
vt 0.904297 0.500000
vt 0.904297 0.500000
vt 0.900391 0.500000
vt 0.900391 0.500000
vt 0.900391 0.500000
vt 0.904297 0.500000
vt 0.904297 0.500000
vt 0.904297 0.500000
vt 0.900391 0.500000
vt 0.900391 0.500000
vt 0.900391 0.500000
vt 0.904297 0.500000
vt 0.904297 0.500000
vt 0.904297 0.500000
vt 0.060547 0.500000
vt 0.060547 0.500000
vt 0.060547 0.500000
vt 0.060547 0.500000
vt 0.060547 0.500000
vt 0.060547 0.500000
vt 0.060547 0.500000
vt 0.060547 0.500000
vt 0.060547 0.500000
vt 0.060547 0.500000
vt 0.060547 0.500000
vt 0.060547 0.500000
vt 0.900391 0.500000
vt 0.900391 0.500000
vt 0.900391 0.500000
vt 0.904297 0.500000
vt 0.904297 0.500000
vt 0.904297 0.500000
vt 0.900391 0.500000
vt 0.900391 0.500000
vt 0.900391 0.500000
vt 0.904297 0.500000
vt 0.904297 0.500000
vt 0.904297 0.500000
vt 0.060547 0.500000
vt 0.060547 0.500000
vt 0.060547 0.500000
vt 0.060547 0.500000
vt 0.060547 0.500000
vt 0.060547 0.500000
vt 0.900391 0.500000
vt 0.900391 0.500000
vt 0.900391 0.500000
vt 0.900391 0.500000
vt 0.900391 0.500000
vt 0.900391 0.500000
vt 0.900391 0.500000
vt 0.900391 0.500000
vt 0.900391 0.500000
vt 0.900391 0.500000
vt 0.900391 0.500000
vt 0.900391 0.500000
vt 0.900391 0.500000
vt 0.900391 0.500000
vt 0.900391 0.500000
vt 0.900391 0.500000
vt 0.900391 0.500000
vt 0.900391 0.500000
vt 0.904297 0.500000
vt 0.904297 0.500000
vt 0.904297 0.500000
vt 0.904297 0.500000
vt 0.904297 0.500000
vt 0.904297 0.500000
vn -1.000000 0.000000 0.000000
vn -1.000000 0.000000 0.000000
vn -1.000000 0.000000 0.000000
vn -1.000000 0.000000 0.000000
vn -1.000000 0.000000 0.000000
vn -1.000000 0.000000 0.000000
vn -1.000000 0.000000 0.000000
vn -1.000000 0.000000 0.000000
vn -1.000000 0.000000 0.000000
vn -1.000000 0.000000 0.000000
vn -1.000000 0.000000 0.000000
vn -1.000000 0.000000 0.000000
vn -1.000000 0.000000 0.000000
vn -1.000000 0.000000 0.000000
vn -1.000000 0.000000 0.000000
vn -1.000000 0.000000 0.000000
vn -1.000000 0.000000 0.000000
vn -1.000000 0.000000 0.000000
vn -1.000000 0.000000 0.000000
vn -1.000000 0.000000 0.000000
vn -1.000000 0.000000 0.000000
vn -1.000000 0.000000 0.000000
vn -1.000000 0.000000 0.000000
vn -1.000000 0.000000 0.000000
vn 1.000000 0.000000 0.000000
vn 1.000000 0.000000 0.000000
vn 1.000000 0.000000 0.000000
vn 1.000000 0.000000 0.000000
vn 1.000000 0.000000 0.000000
vn 1.000000 0.000000 0.000000
vn 1.000000 0.000000 0.000000
vn 1.000000 0.000000 0.000000
vn 1.000000 0.000000 0.000000
vn 1.000000 0.000000 0.000000
vn 1.000000 0.000000 0.000000
vn 1.000000 0.000000 0.000000
vn 1.000000 0.000000 0.000000
vn 1.000000 0.000000 0.000000
vn 1.000000 0.000000 0.000000
vn 1.000000 0.000000 0.000000
vn 1.000000 0.000000 0.000000
vn 1.000000 0.000000 0.000000
vn 0.000000 0.000000 1.000000
vn 0.000000 0.000000 1.000000
vn 0.000000 0.000000 1.000000
vn 0.000000 0.000000 1.000000
vn 0.000000 0.000000 1.000000
vn 0.000000 0.000000 1.000000
vn 0.000000 0.000000 1.000000
vn 0.000000 0.000000 1.000000
vn 0.000000 0.000000 1.000000
vn 0.000000 0.000000 1.000000
vn 0.000000 0.000000 1.000000
vn 0.000000 0.000000 1.000000
vn 0.000000 0.000000 1.000000
vn 0.000000 0.000000 1.000000
vn 0.000000 0.000000 1.000000
vn 0.000000 0.000000 1.000000
vn 0.000000 0.000000 1.000000
vn 0.000000 0.000000 1.000000
vn 0.000000 0.000000 -1.000000
vn 0.000000 0.000000 -1.000000
vn 0.000000 0.000000 -1.000000
vn 0.000000 0.000000 -1.000000
vn 0.000000 0.000000 -1.000000
vn 0.000000 0.000000 -1.000000
vn 0.000000 0.000000 -1.000000
vn 0.000000 0.000000 -1.000000
vn 0.000000 0.000000 -1.000000
vn 0.000000 0.000000 -1.000000
vn 0.000000 0.000000 -1.000000
vn 0.000000 0.000000 -1.000000
vn 0.000000 0.000000 -1.000000
vn 0.000000 0.000000 -1.000000
vn 0.000000 0.000000 -1.000000
vn 0.000000 0.000000 -1.000000
vn 0.000000 0.000000 -1.000000
vn 0.000000 0.000000 -1.000000
vn 0.000000 -1.000000 0.000000
vn 0.000000 -1.000000 0.000000
vn 0.000000 -1.000000 0.000000
vn 0.000000 -1.000000 0.000000
vn 0.000000 -1.000000 0.000000
vn 0.000000 -1.000000 0.000000
vn 0.000000 -1.000000 0.000000
vn 0.000000 -1.000000 0.000000
vn 0.000000 -1.000000 0.000000
vn 0.000000 -1.000000 0.000000
vn 0.000000 -1.000000 0.000000
vn 0.000000 -1.000000 0.000000
vn 0.000000 -1.000000 0.000000
vn 0.000000 -1.000000 0.000000
vn 0.000000 -1.000000 0.000000
vn 0.000000 -1.000000 0.000000
vn 0.000000 -1.000000 0.000000
vn 0.000000 -1.000000 0.000000
vn 0.000000 -1.000000 0.000000
vn 0.000000 -1.000000 0.000000
vn 0.000000 -1.000000 0.000000
vn 0.000000 -1.000000 0.000000
vn 0.000000 -1.000000 0.000000
vn 0.000000 -1.000000 0.000000
vn 0.000000 1.000000 0.000000
vn 0.000000 1.000000 0.000000
vn 0.000000 1.000000 0.000000
vn 0.000000 1.000000 0.000000
vn 0.000000 1.000000 0.000000
vn 0.000000 1.000000 0.000000
s off
g BrazoDer:Mesh
usemtl BrazoDer:palette
f 4/1/1 2/4/2 1/5/3
f 5/6/4 2/7/5 4/1/6
f 7/2/7 4/8/8 3/9/9
f 7/2/10 6/10/11 5/11/12
f 7/2/13 5/12/14 4/13/15
f 8/14/16 6/15/17 7/2/18
f 9/3/19 8/16/20 7/17/21
f 10/18/22 8/19/23 9/3/24
f 11/20/25 12/21/26 13/22/27
f 13/23/28 12/24/29 14/25/30
f 15/26/31 16/27/32 17/28/33
f 17/29/34 16/30/35 18/31/36
f 17/32/37 18/33/38 19/34/39
f 19/35/40 18/36/41 20/37/42
f 24/38/43 22/39/44 21/40/45
f 25/41/46 23/42/47 22/43/48
f 25/44/49 22/45/50 24/46/51
f 26/47/52 23/48/53 25/49/54
f 29/50/55 28/51/56 27/52/57
f 30/53/58 28/54/59 29/55/60
f 31/56/61 32/57/62 33/58/63
f 33/59/64 32/60/65 34/61/66
f 35/62/67 36/63/68 38/64/69
f 36/65/70 37/66/71 39/67/72
f 38/68/73 36/69/74 39/70/75
f 39/71/76 37/72/77 40/73/78
f 43/74/79 42/75/80 41/76/81
f 44/77/82 42/78/83 43/79/84
f 47/80/85 46/81/86 45/82/87
f 48/83/88 46/84/89 47/85/90
f 50/86/91 46/87/92 48/88/93
f 51/89/94 50/90/95 49/91/96
f 52/92/97 46/93/98 50/94/99
f 52/95/100 50/96/101 51/97/102
f 53/98/103 54/99/104 55/100/105
f 55/101/106 54/102/107 56/103/108
