# This file uses centimeters as units for non-parametric coordinates.

mtllib Dinosaurios.mtl
g default
v 49.745456 0.384170 49.852776
v 39.746270 0.368477 49.726407
v 29.747081 0.352784 49.600034
v 19.747888 0.337087 49.473665
v 9.748700 0.321393 49.347293
v -0.250489 0.305696 49.220924
v -10.249680 0.290003 49.094551
v -20.248865 0.274306 48.968179
v -30.248058 0.258613 48.841810
v -40.247248 0.242920 48.715437
v -50.246437 0.227222 48.589068
v 49.728117 10.383359 49.983152
v 39.728927 10.367665 49.856779
v 29.729738 10.351972 49.730406
v 19.730545 10.336275 49.604038
v 9.731357 10.320582 49.477665
v -0.267832 10.304885 49.351296
v -10.267023 10.289191 49.224927
v -20.266208 10.273498 49.098555
v -30.265401 10.257801 48.972182
v -40.264594 10.242108 48.845813
v -50.263780 10.226411 48.719441
v 49.710769 20.382446 50.113642
v 39.711584 20.366751 49.987273
v 29.712394 20.351055 49.860904
v 19.713201 20.335360 49.734536
v 9.714013 20.319668 49.608159
v -0.285176 20.303972 49.481790
v -10.284367 20.288277 49.355418
v -20.283552 20.272581 49.229049
v -30.282745 20.256887 49.102676
v -40.281934 20.241194 48.976308
v -50.281124 20.225498 48.849935
v 49.693430 30.381638 50.244041
v 39.694241 30.365944 50.117668
v 29.695051 30.350248 49.991299
v 19.695856 30.334553 49.864927
v 9.696670 30.318857 49.738558
v -0.302518 30.303164 49.612189
v -10.301709 30.287470 49.485817
v -20.300895 30.271774 49.359444
v -30.300088 30.256079 49.233075
v -40.299277 30.240385 49.106703
v -50.298467 30.224689 48.980334
v 49.676083 40.380756 50.374489
v 39.676894 40.365063 50.248117
v 29.677708 40.349369 50.121744
v 19.678517 40.333672 49.995375
v 9.679328 40.317978 49.869003
v -0.319861 40.302284 49.742634
v -10.319053 40.286591 49.616261
v -20.318238 40.270893 49.489889
v -30.317431 40.255199 49.363520
v -40.316621 40.239506 49.237151
v -50.315806 40.223808 49.110778
v 49.658743 50.379879 50.504934
v 39.659550 50.364182 50.378561
v 29.660365 50.348488 50.252193
v 19.661174 50.332794 50.125820
v 9.661982 50.317101 49.999447
v -0.337205 50.301403 49.873079
v -10.336396 50.285709 49.746710
v -20.335582 50.270016 49.620337
v -30.334775 50.254318 49.493965
v -40.333968 50.238625 49.367592
v -50.333149 50.222931 49.241223
v 49.641396 60.379009 50.635375
v 39.642207 60.363312 50.509002
v 29.643021 60.347618 50.382633
v 19.643828 60.331924 50.256261
v 9.644640 60.316227 50.129892
v -0.354547 60.300533 50.003519
v -10.353739 60.284840 49.877151
v -20.352925 60.269142 49.750778
v -30.352116 60.253448 49.624409
v -40.351307 60.237755 49.498037
v -50.350493 60.222057 49.371668
v 49.624057 70.378120 50.765823
v 39.624864 70.362419 50.639451
v 29.625680 70.346725 50.513082
v 19.626485 70.331032 50.386709
v 9.627297 70.315338 50.260340
v -0.371891 70.299644 50.133968
v -10.371082 70.283951 50.007599
v -20.370268 70.268250 49.881226
v -30.369461 70.252556 49.754858
v -40.368655 70.236862 49.628485
v -50.367836 70.221169 49.502116
v 49.606710 80.377312 50.896215
v 39.607521 80.361610 50.769846
v 29.608335 80.345917 50.643473
v 19.609142 80.330223 50.517104
v 9.609954 80.314529 50.390732
v -0.389235 80.298836 50.264363
v -10.388424 80.283142 50.137990
v -20.387609 80.267448 50.011622
v -30.386803 80.251747 49.885249
v -40.385994 80.236053 49.758880
v -50.385179 80.220360 49.632508
v 49.589366 90.376366 51.026705
v 39.590181 90.360672 50.900332
v 29.590993 90.344978 50.773964
v 19.591798 90.329285 50.647591
v 9.592611 90.313591 50.521218
v -0.406578 90.297897 50.394850
v -10.405769 90.282196 50.268477
v -20.404953 90.266502 50.142108
v -30.404146 90.250809 50.015736
v -40.403337 90.235115 49.889367
v -50.402523 90.219421 49.762994
v 49.572023 100.375580 51.157089
v 39.572834 100.359886 51.030720
v 29.573650 100.344193 50.904347
v 19.574455 100.328499 50.777978
v 9.575267 100.312805 50.651602
v -0.423921 100.297112 50.525233
v -10.423111 100.281410 50.398864
v -20.422298 100.265724 50.272496
v -30.421489 100.250023 50.146123
v -40.420680 100.234329 50.019750
v -50.419866 100.218636 49.893378
vt 0.000000 0.000000
vt 0.100000 0.000000
vt 0.100000 0.100000
vt 0.000000 0.100000
vt 0.200000 0.000000
vt 0.200000 0.100000
vt 0.300000 0.000000
vt 0.300000 0.100000
vt 0.400000 0.000000
vt 0.400000 0.100000
vt 0.500000 0.000000
vt 0.500000 0.100000
vt 0.600000 0.000000
vt 0.600000 0.100000
vt 0.700000 0.000000
vt 0.700000 0.100000
vt 0.800000 0.000000
vt 0.800000 0.100000
vt 0.900000 0.000000
vt 0.900000 0.100000
vt 1.000000 0.000000
vt 1.000000 0.100000
vt 0.100000 0.200000
vt 0.000000 0.200000
vt 0.200000 0.200000
vt 0.300000 0.200000
vt 0.400000 0.200000
vt 0.500000 0.200000
vt 0.600000 0.200000
vt 0.700000 0.200000
vt 0.800000 0.200000
vt 0.900000 0.200000
vt 1.000000 0.200000
vt 0.100000 0.300000
vt 0.000000 0.300000
vt 0.200000 0.300000
vt 0.300000 0.300000
vt 0.400000 0.300000
vt 0.500000 0.300000
vt 0.600000 0.300000
vt 0.700000 0.300000
vt 0.800000 0.300000
vt 0.900000 0.300000
vt 1.000000 0.300000
vt 0.100000 0.400000
vt 0.000000 0.400000
vt 0.200000 0.400000
vt 0.300000 0.400000
vt 0.400000 0.400000
vt 0.500000 0.400000
vt 0.600000 0.400000
vt 0.700000 0.400000
vt 0.800000 0.400000
vt 0.900000 0.400000
vt 1.000000 0.400000
vt 0.100000 0.500000
vt 0.000000 0.500000
vt 0.200000 0.500000
vt 0.300000 0.500000
vt 0.400000 0.500000
vt 0.500000 0.500000
vt 0.600000 0.500000
vt 0.700000 0.500000
vt 0.800000 0.500000
vt 0.900000 0.500000
vt 1.000000 0.500000
vt 0.100000 0.600000
vt 0.000000 0.600000
vt 0.200000 0.600000
vt 0.300000 0.600000
vt 0.400000 0.600000
vt 0.500000 0.600000
vt 0.600000 0.600000
vt 0.700000 0.600000
vt 0.800000 0.600000
vt 0.900000 0.600000
vt 1.000000 0.600000
vt 0.100000 0.700000
vt 0.000000 0.700000
vt 0.200000 0.700000
vt 0.300000 0.700000
vt 0.400000 0.700000
vt 0.500000 0.700000
vt 0.600000 0.700000
vt 0.700000 0.700000
vt 0.800000 0.700000
vt 0.900000 0.700000
vt 1.000000 0.700000
vt 0.100000 0.800000
vt 0.000000 0.800000
vt 0.200000 0.800000
vt 0.300000 0.800000
vt 0.400000 0.800000
vt 0.500000 0.800000
vt 0.600000 0.800000
vt 0.700000 0.800000
vt 0.800000 0.800000
vt 0.900000 0.800000
vt 1.000000 0.800000
vt 0.100000 0.900000
vt 0.000000 0.900000
vt 0.200000 0.900000
vt 0.300000 0.900000
vt 0.400000 0.900000
vt 0.500000 0.900000
vt 0.600000 0.900000
vt 0.700000 0.900000
vt 0.800000 0.900000
vt 0.900000 0.900000
vt 1.000000 0.900000
vt 0.100000 1.000000
vt 0.000000 1.000000
vt 0.200000 1.000000
vt 0.300000 1.000000
vt 0.400000 1.000000
vt 0.500000 1.000000
vt 0.600000 1.000000
vt 0.700000 1.000000
vt 0.800000 1.000000
vt 0.900000 1.000000
vt 1.000000 1.000000
vn 0.012616 0.013064 -0.999835
vn 0.012616 0.013064 -0.999835
vn 0.012616 0.013064 -0.999835
vn 0.012616 0.013064 -0.999835
vn 0.012616 0.013064 -0.999835
vn 0.012616 0.013064 -0.999835
vn 0.012616 0.013064 -0.999835
vn 0.012616 0.013064 -0.999835
vn 0.012616 0.013064 -0.999835
vn 0.012616 0.013064 -0.999835
vn 0.012616 0.013064 -0.999835
vn 0.012616 0.013064 -0.999835
vn 0.012616 0.013064 -0.999835
vn 0.012616 0.013064 -0.999835
vn 0.012616 0.013064 -0.999835
vn 0.012616 0.013064 -0.999835
vn 0.012616 0.013064 -0.999835
vn 0.012616 0.013064 -0.999835
vn 0.012616 0.013064 -0.999835
vn 0.012616 0.013064 -0.999835
vn 0.012616 0.013064 -0.999835
vn 0.012616 0.013064 -0.999835
vn 0.012616 0.013064 -0.999835
vn 0.012616 0.013064 -0.999835
vn 0.012616 0.013064 -0.999835
vn 0.012616 0.013064 -0.999835
vn 0.012616 0.013064 -0.999835
vn 0.012616 0.013064 -0.999835
vn 0.012616 0.013064 -0.999835
vn 0.012616 0.013064 -0.999835
vn 0.012616 0.013064 -0.999835
vn 0.012616 0.013064 -0.999835
vn 0.012616 0.013064 -0.999835
vn 0.012616 0.013064 -0.999835
vn 0.012616 0.013064 -0.999835
vn 0.012616 0.013064 -0.999835
vn 0.012616 0.013064 -0.999835
vn 0.012616 0.013064 -0.999835
vn 0.012616 0.013064 -0.999835
vn 0.012616 0.013064 -0.999835
vn 0.012616 0.013064 -0.999835
vn 0.012616 0.013064 -0.999835
vn 0.012616 0.013064 -0.999835
vn 0.012616 0.013064 -0.999835
vn 0.012616 0.013064 -0.999835
vn 0.012616 0.013064 -0.999835
vn 0.012616 0.013064 -0.999835
vn 0.012616 0.013064 -0.999835
vn 0.012616 0.013064 -0.999835
vn 0.012616 0.013064 -0.999835
vn 0.012616 0.013064 -0.999835
vn 0.012616 0.013064 -0.999835
vn 0.012616 0.013064 -0.999835
vn 0.012616 0.013064 -0.999835
vn 0.012616 0.013064 -0.999835
vn 0.012616 0.013064 -0.999835
vn 0.012616 0.013064 -0.999835
vn 0.012616 0.013064 -0.999835
vn 0.012616 0.013064 -0.999835
vn 0.012616 0.013064 -0.999835
vn 0.012616 0.013064 -0.999835
vn 0.012616 0.013064 -0.999835
vn 0.012616 0.013064 -0.999835
vn 0.012616 0.013064 -0.999835
vn 0.012616 0.013064 -0.999835
vn 0.012616 0.013064 -0.999835
vn 0.012616 0.013064 -0.999835
vn 0.012616 0.013064 -0.999835
vn 0.012616 0.013064 -0.999835
vn 0.012616 0.013064 -0.999835
vn 0.012616 0.013064 -0.999835
vn 0.012616 0.013064 -0.999835
vn 0.012616 0.013064 -0.999835
vn 0.012616 0.013064 -0.999835
vn 0.012616 0.013064 -0.999835
vn 0.012616 0.013064 -0.999835
vn 0.012616 0.013064 -0.999835
vn 0.012616 0.013064 -0.999835
vn 0.012616 0.013064 -0.999835
vn 0.012616 0.013064 -0.999835
vn 0.012616 0.013064 -0.999835
vn 0.012616 0.013064 -0.999835
vn 0.012616 0.013064 -0.999835
vn 0.012616 0.013064 -0.999835
vn 0.012616 0.013064 -0.999835
vn 0.012616 0.013064 -0.999835
vn 0.012616 0.013064 -0.999835
vn 0.012616 0.013064 -0.999835
vn 0.012616 0.013064 -0.999835
vn 0.012616 0.013064 -0.999835
vn 0.012616 0.013064 -0.999835
vn 0.012616 0.013064 -0.999835
vn 0.012616 0.013064 -0.999835
vn 0.012616 0.013064 -0.999835
vn 0.012616 0.013064 -0.999835
vn 0.012616 0.013064 -0.999835
vn 0.012616 0.013064 -0.999835
vn 0.012616 0.013064 -0.999835
vn 0.012616 0.013064 -0.999835
vn 0.012616 0.013064 -0.999835
vn 0.012616 0.013064 -0.999835
vn 0.012616 0.013064 -0.999835
vn 0.012616 0.013064 -0.999835
vn 0.012616 0.013064 -0.999835
vn 0.012616 0.013064 -0.999835
vn 0.012616 0.013064 -0.999835
vn 0.012616 0.013064 -0.999835
vn 0.012616 0.013064 -0.999835
vn 0.012616 0.013064 -0.999835
vn 0.012616 0.013064 -0.999835
vn 0.012616 0.013064 -0.999835
vn 0.012616 0.013064 -0.999835
vn 0.012616 0.013064 -0.999835
vn 0.012616 0.013064 -0.999835
vn 0.012616 0.013064 -0.999835
vn 0.012616 0.013064 -0.999835
vn 0.012616 0.013064 -0.999835
vn 0.012616 0.013064 -0.999835
vn 0.012616 0.013064 -0.999835
vn 0.012616 0.013064 -0.999835
vn 0.012616 0.013064 -0.999835
vn 0.012616 0.013064 -0.999835
vn 0.012616 0.013064 -0.999835
vn 0.012616 0.013064 -0.999835
vn 0.012616 0.013064 -0.999835
vn 0.012616 0.013064 -0.999835
vn 0.012616 0.013064 -0.999835
vn 0.012616 0.013064 -0.999835
vn 0.012616 0.013064 -0.999835
vn 0.012616 0.013064 -0.999835
vn 0.012616 0.013064 -0.999835
vn 0.012616 0.013064 -0.999835
vn 0.012616 0.013064 -0.999835
vn 0.012616 0.013064 -0.999835
vn 0.012616 0.013064 -0.999835
vn 0.012616 0.013064 -0.999835
vn 0.012616 0.013064 -0.999835
vn 0.012616 0.013064 -0.999835
vn 0.012616 0.013064 -0.999835
vn 0.012616 0.013064 -0.999835
vn 0.012616 0.013064 -0.999835
vn 0.012616 0.013064 -0.999835
vn 0.012616 0.013064 -0.999835
vn 0.012616 0.013064 -0.999835
vn 0.012616 0.013064 -0.999835
vn 0.012616 0.013064 -0.999835
vn 0.012616 0.013064 -0.999835
vn 0.012616 0.013064 -0.999835
vn 0.012616 0.013064 -0.999835
vn 0.012616 0.013064 -0.999835
vn 0.012616 0.013064 -0.999835
vn 0.012616 0.013064 -0.999835
vn 0.012616 0.013064 -0.999835
vn 0.012616 0.013064 -0.999835
vn 0.012616 0.013064 -0.999835
vn 0.012616 0.013064 -0.999835
vn 0.012616 0.013064 -0.999835
vn 0.012616 0.013064 -0.999835
vn 0.012616 0.013064 -0.999835
vn 0.012616 0.013064 -0.999835
vn 0.012616 0.013064 -0.999835
vn 0.012616 0.013064 -0.999835
vn 0.012616 0.013064 -0.999835
vn 0.012616 0.013064 -0.999835
vn 0.012616 0.013064 -0.999835
vn 0.012616 0.013064 -0.999835
vn 0.012616 0.013064 -0.999835
vn 0.012616 0.013064 -0.999835
vn 0.012616 0.013064 -0.999835
vn 0.012616 0.013064 -0.999835
vn 0.012616 0.013064 -0.999835
vn 0.012616 0.013064 -0.999835
vn 0.012616 0.013064 -0.999835
vn 0.012616 0.013064 -0.999835
vn 0.012616 0.013064 -0.999835
vn 0.012616 0.013064 -0.999835
vn 0.012616 0.013064 -0.999835
vn 0.012616 0.013064 -0.999835
vn 0.012616 0.013064 -0.999835
vn 0.012616 0.013064 -0.999835
vn 0.012616 0.013064 -0.999835
vn 0.012616 0.013064 -0.999835
vn 0.012616 0.013064 -0.999835
vn 0.012616 0.013064 -0.999835
vn 0.012616 0.013064 -0.999835
vn 0.012616 0.013064 -0.999835
vn 0.012616 0.013064 -0.999835
vn 0.012616 0.013064 -0.999835
vn 0.012616 0.013064 -0.999835
vn 0.012616 0.013064 -0.999835
vn 0.012616 0.013064 -0.999835
vn 0.012616 0.013064 -0.999835
vn 0.012616 0.013064 -0.999835
vn 0.012616 0.013064 -0.999835
vn 0.012616 0.013064 -0.999835
vn 0.012616 0.013064 -0.999835
vn 0.012616 0.013064 -0.999835
vn 0.012616 0.013064 -0.999835
vn 0.012616 0.013064 -0.999835
vn 0.012616 0.013064 -0.999835
vn 0.012616 0.013064 -0.999835
vn 0.012616 0.013064 -0.999835
vn 0.012616 0.013064 -0.999835
vn 0.012616 0.013064 -0.999835
vn 0.012616 0.013064 -0.999835
vn 0.012616 0.013064 -0.999835
vn 0.012616 0.013064 -0.999835
vn 0.012616 0.013064 -0.999835
vn 0.012616 0.013064 -0.999835
vn 0.012616 0.013064 -0.999835
vn 0.012616 0.013064 -0.999835
vn 0.012616 0.013064 -0.999835
vn 0.012616 0.013064 -0.999835
vn 0.012616 0.013064 -0.999835
vn 0.012616 0.013064 -0.999835
vn 0.012616 0.013064 -0.999835
vn 0.012616 0.013064 -0.999835
vn 0.012616 0.013064 -0.999835
vn 0.012616 0.013064 -0.999835
vn 0.012616 0.013064 -0.999835
vn 0.012616 0.013064 -0.999835
vn 0.012616 0.013064 -0.999835
vn 0.012616 0.013064 -0.999835
vn 0.012616 0.013064 -0.999835
vn 0.012616 0.013064 -0.999835
vn 0.012616 0.013064 -0.999835
vn 0.012616 0.013064 -0.999835
vn 0.012616 0.013064 -0.999835
vn 0.012616 0.013064 -0.999835
vn 0.012616 0.013064 -0.999835
vn 0.012616 0.013064 -0.999835
vn 0.012616 0.013064 -0.999835
vn 0.012616 0.013064 -0.999835
vn 0.012616 0.013064 -0.999835
vn 0.012616 0.013064 -0.999835
vn 0.012616 0.013064 -0.999835
vn 0.012616 0.013064 -0.999835
vn 0.012616 0.013064 -0.999835
vn 0.012616 0.013064 -0.999835
vn 0.012616 0.013064 -0.999835
vn 0.012616 0.013064 -0.999835
vn 0.012616 0.013064 -0.999835
vn 0.012616 0.013064 -0.999835
vn 0.012616 0.013064 -0.999835
vn 0.012616 0.013064 -0.999835
vn 0.012616 0.013064 -0.999835
vn 0.012616 0.013064 -0.999835
vn 0.012616 0.013064 -0.999835
vn 0.012616 0.013064 -0.999835
vn 0.012616 0.013064 -0.999835
vn 0.012616 0.013064 -0.999835
vn 0.012616 0.013064 -0.999835
vn 0.012616 0.013064 -0.999835
vn 0.012616 0.013064 -0.999835
vn 0.012616 0.013064 -0.999835
vn 0.012616 0.013064 -0.999835
vn 0.012616 0.013064 -0.999835
vn 0.012616 0.013064 -0.999835
vn 0.012616 0.013064 -0.999835
vn 0.012616 0.013064 -0.999835
vn 0.012616 0.013064 -0.999835
vn 0.012616 0.013064 -0.999835
vn 0.012616 0.013064 -0.999835
vn 0.012616 0.013064 -0.999835
vn 0.012616 0.013064 -0.999835
vn 0.012616 0.013064 -0.999835
vn 0.012616 0.013064 -0.999835
vn 0.012616 0.013064 -0.999835
vn 0.012616 0.013064 -0.999835
vn 0.012616 0.013064 -0.999835
vn 0.012616 0.013064 -0.999835
vn 0.012616 0.013064 -0.999835
vn 0.012616 0.013064 -0.999835
vn 0.012616 0.013064 -0.999835
vn 0.012616 0.013064 -0.999835
vn 0.012616 0.013064 -0.999835
vn 0.012616 0.013064 -0.999835
vn 0.012616 0.013064 -0.999835
vn 0.012616 0.013064 -0.999835
vn 0.012616 0.013064 -0.999835
vn 0.012616 0.013064 -0.999835
vn 0.012616 0.013064 -0.999835
vn 0.012616 0.013064 -0.999835
vn 0.012616 0.013064 -0.999835
vn 0.012616 0.013064 -0.999835
vn 0.012616 0.013064 -0.999835
vn 0.012616 0.013064 -0.999835
vn 0.012616 0.013064 -0.999835
vn 0.012616 0.013064 -0.999835
vn 0.012616 0.013064 -0.999835
vn 0.012616 0.013064 -0.999835
vn 0.012616 0.013064 -0.999835
vn 0.012616 0.013064 -0.999835
vn 0.012616 0.013064 -0.999835
vn 0.012616 0.013064 -0.999835
vn 0.012616 0.013064 -0.999835
vn 0.012616 0.013064 -0.999835
vn 0.012616 0.013064 -0.999835
vn 0.012616 0.013064 -0.999835
vn 0.012616 0.013064 -0.999835
vn 0.012616 0.013064 -0.999835
vn 0.012616 0.013064 -0.999835
vn 0.012616 0.013064 -0.999835
vn 0.012616 0.013064 -0.999835
vn 0.012616 0.013064 -0.999835
vn 0.012616 0.013064 -0.999835
vn 0.012616 0.013064 -0.999835
vn 0.012616 0.013064 -0.999835
vn 0.012616 0.013064 -0.999835
vn 0.012616 0.013064 -0.999835
vn 0.012616 0.013064 -0.999835
vn 0.012616 0.013064 -0.999835
vn 0.012616 0.013064 -0.999835
vn 0.012616 0.013064 -0.999835
vn 0.012616 0.013064 -0.999835
vn 0.012616 0.013064 -0.999835
vn 0.012616 0.013064 -0.999835
vn 0.012616 0.013064 -0.999835
vn 0.012616 0.013064 -0.999835
vn 0.012616 0.013064 -0.999835
vn 0.012616 0.013064 -0.999835
vn 0.012616 0.013064 -0.999835
vn 0.012616 0.013064 -0.999835
vn 0.012616 0.013064 -0.999835
vn 0.012616 0.013064 -0.999835
vn 0.012616 0.013064 -0.999835
vn 0.012616 0.013064 -0.999835
vn 0.012616 0.013064 -0.999835
vn 0.012616 0.013064 -0.999835
vn 0.012616 0.013064 -0.999835
vn 0.012616 0.013064 -0.999835
vn 0.012616 0.013064 -0.999835
vn 0.012616 0.013064 -0.999835
vn 0.012616 0.013064 -0.999835
vn 0.012616 0.013064 -0.999835
vn 0.012616 0.013064 -0.999835
vn 0.012616 0.013064 -0.999835
vn 0.012616 0.013064 -0.999835
vn 0.012616 0.013064 -0.999835
vn 0.012616 0.013064 -0.999835
vn 0.012616 0.013064 -0.999835
vn 0.012616 0.013064 -0.999835
vn 0.012616 0.013064 -0.999835
vn 0.012616 0.013064 -0.999835
vn 0.012616 0.013064 -0.999835
vn 0.012616 0.013064 -0.999835
vn 0.012616 0.013064 -0.999835
vn 0.012616 0.013064 -0.999835
vn 0.012616 0.013064 -0.999835
vn 0.012616 0.013064 -0.999835
vn 0.012616 0.013064 -0.999835
vn 0.012616 0.013064 -0.999835
vn 0.012616 0.013064 -0.999835
vn 0.012616 0.013064 -0.999835
vn 0.012616 0.013064 -0.999835
vn 0.012616 0.013064 -0.999835
vn 0.012616 0.013064 -0.999835
vn 0.012616 0.013064 -0.999835
vn 0.012616 0.013064 -0.999835
vn 0.012616 0.013064 -0.999835
vn 0.012616 0.013064 -0.999835
vn 0.012616 0.013064 -0.999835
vn 0.012616 0.013064 -0.999835
vn 0.012616 0.013064 -0.999835
vn 0.012616 0.013064 -0.999835
vn 0.012616 0.013064 -0.999835
vn 0.012616 0.013064 -0.999835
vn 0.012616 0.013064 -0.999835
vn 0.012616 0.013064 -0.999835
vn 0.012616 0.013064 -0.999835
vn 0.012616 0.013064 -0.999835
vn 0.012616 0.013064 -0.999835
vn 0.012616 0.013064 -0.999835
vn 0.012616 0.013064 -0.999835
vn 0.012616 0.013064 -0.999835
vn 0.012616 0.013064 -0.999835
vn 0.012616 0.013064 -0.999835
vn 0.012616 0.013064 -0.999835
vn 0.012616 0.013064 -0.999835
vn 0.012616 0.013064 -0.999835
vn 0.012616 0.013064 -0.999835
vn 0.012616 0.013064 -0.999835
vn 0.012616 0.013064 -0.999835
vn 0.012616 0.013064 -0.999835
vn 0.012616 0.013064 -0.999835
vn 0.012616 0.013064 -0.999835
vn 0.012616 0.013064 -0.999835
vn 0.012616 0.013064 -0.999835
vn 0.012616 0.013064 -0.999835
vn 0.012616 0.013064 -0.999835
vn 0.012616 0.013064 -0.999835
vn 0.012616 0.013064 -0.999835
vn 0.012616 0.013064 -0.999835
vn 0.012616 0.013064 -0.999835
vn 0.012616 0.013064 -0.999835
vn 0.012616 0.013064 -0.999835
vn 0.012616 0.013064 -0.999835
vn 0.012616 0.013064 -0.999835
vn 0.012616 0.013064 -0.999835
vn 0.012616 0.013064 -0.999835
s off
g Rio1:pPlane1
usemtl Rio1:lambert2SG
f 1/1/1 2/2/2 13/3/3 12/4/4
f 2/2/5 3/5/6 14/6/7 13/3/8
f 3/5/9 4/7/10 15/8/11 14/6/12
f 4/7/13 5/9/14 16/10/15 15/8/16
f 5/9/17 6/11/18 17/12/19 16/10/20
f 6/11/21 7/13/22 18/14/23 17/12/24
f 7/13/25 8/15/26 19/16/27 18/14/28
f 8/15/29 9/17/30 20/18/31 19/16/32
f 9/17/33 10/19/34 21/20/35 20/18/36
f 10/19/37 11/21/38 22/22/39 21/20/40
f 12/4/41 13/3/42 24/23/43 23/24/44
f 13/3/45 14/6/46 25/25/47 24/23/48
f 14/6/49 15/8/50 26/26/51 25/25/52
f 15/8/53 16/10/54 27/27/55 26/26/56
f 16/10/57 17/12/58 28/28/59 27/27/60
f 17/12/61 18/14/62 29/29/63 28/28/64
f 18/14/65 19/16/66 30/30/67 29/29/68
f 19/16/69 20/18/70 31/31/71 30/30/72
f 20/18/73 21/20/74 32/32/75 31/31/76
f 21/20/77 22/22/78 33/33/79 32/32/80
f 23/24/81 24/23/82 35/34/83 34/35/84
f 24/23/85 25/25/86 36/36/87 35/34/88
f 25/25/89 26/26/90 37/37/91 36/36/92
f 26/26/93 27/27/94 38/38/95 37/37/96
f 27/27/97 28/28/98 39/39/99 38/38/100
f 28/28/101 29/29/102 40/40/103 39/39/104
f 29/29/105 30/30/106 41/41/107 40/40/108
f 30/30/109 31/31/110 42/42/111 41/41/112
f 31/31/113 32/32/114 43/43/115 42/42/116
f 32/32/117 33/33/118 44/44/119 43/43/120
f 34/35/121 35/34/122 46/45/123 45/46/124
f 35/34/125 36/36/126 47/47/127 46/45/128
f 36/36/129 37/37/130 48/48/131 47/47/132
f 37/37/133 38/38/134 49/49/135 48/48/136
f 38/38/137 39/39/138 50/50/139 49/49/140
f 39/39/141 40/40/142 51/51/143 50/50/144
f 40/40/145 41/41/146 52/52/147 51/51/148
f 41/41/149 42/42/150 53/53/151 52/52/152
f 42/42/153 43/43/154 54/54/155 53/53/156
f 43/43/157 44/44/158 55/55/159 54/54/160
f 45/46/161 46/45/162 57/56/163 56/57/164
f 46/45/165 47/47/166 58/58/167 57/56/168
f 47/47/169 48/48/170 59/59/171 58/58/172
f 48/48/173 49/49/174 60/60/175 59/59/176
f 49/49/177 50/50/178 61/61/179 60/60/180
f 50/50/181 51/51/182 62/62/183 61/61/184
f 51/51/185 52/52/186 63/63/187 62/62/188
f 52/52/189 53/53/190 64/64/191 63/63/192
f 53/53/193 54/54/194 65/65/195 64/64/196
f 54/54/197 55/55/198 66/66/199 65/65/200
f 56/57/201 57/56/202 68/67/203 67/68/204
f 57/56/205 58/58/206 69/69/207 68/67/208
f 58/58/209 59/59/210 70/70/211 69/69/212
f 59/59/213 60/60/214 71/71/215 70/70/216
f 60/60/217 61/61/218 72/72/219 71/71/220
f 61/61/221 62/62/222 73/73/223 72/72/224
f 62/62/225 63/63/226 74/74/227 73/73/228
f 63/63/229 64/64/230 75/75/231 74/74/232
f 64/64/233 65/65/234 76/76/235 75/75/236
f 65/65/237 66/66/238 77/77/239 76/76/240
f 67/68/241 68/67/242 79/78/243 78/79/244
f 68/67/245 69/69/246 80/80/247 79/78/248
f 69/69/249 70/70/250 81/81/251 80/80/252
f 70/70/253 71/71/254 82/82/255 81/81/256
f 71/71/257 72/72/258 83/83/259 82/82/260
f 72/72/261 73/73/262 84/84/263 83/83/264
f 73/73/265 74/74/266 85/85/267 84/84/268
f 74/74/269 75/75/270 86/86/271 85/85/272
f 75/75/273 76/76/274 87/87/275 86/86/276
f 76/76/277 77/77/278 88/88/279 87/87/280
f 78/79/281 79/78/282 90/89/283 89/90/284
f 79/78/285 80/80/286 91/91/287 90/89/288
f 80/80/289 81/81/290 92/92/291 91/91/292
f 81/81/293 82/82/294 93/93/295 92/92/296
f 82/82/297 83/83/298 94/94/299 93/93/300
f 83/83/301 84/84/302 95/95/303 94/94/304
f 84/84/305 85/85/306 96/96/307 95/95/308
f 85/85/309 86/86/310 97/97/311 96/96/312
f 86/86/313 87/87/314 98/98/315 97/97/316
f 87/87/317 88/88/318 99/99/319 98/98/320
f 89/90/321 90/89/322 101/100/323 100/101/324
f 90/89/325 91/91/326 102/102/327 101/100/328
f 91/91/329 92/92/330 103/103/331 102/102/332
f 92/92/333 93/93/334 104/104/335 103/103/336
f 93/93/337 94/94/338 105/105/339 104/104/340
f 94/94/341 95/95/342 106/106/343 105/105/344
f 95/95/345 96/96/346 107/107/347 106/106/348
f 96/96/349 97/97/350 108/108/351 107/107/352
f 97/97/353 98/98/354 109/109/355 108/108/356
f 98/98/357 99/99/358 110/110/359 109/109/360
f 100/101/361 101/100/362 112/111/363 111/112/364
f 101/100/365 102/102/366 113/113/367 112/111/368
f 102/102/369 103/103/370 114/114/371 113/113/372
f 103/103/373 104/104/374 115/115/375 114/114/376
f 104/104/377 105/105/378 116/116/379 115/115/380
f 105/105/381 106/106/382 117/117/383 116/116/384
f 106/106/385 107/107/386 118/118/387 117/117/388
f 107/107/389 108/108/390 119/119/391 118/118/392
f 108/108/393 109/109/394 120/120/395 119/119/396
f 109/109/397 110/110/398 121/121/399 120/120/400
