# MagicaVoxel @ Ephtracy

# group
o 

# material
mtllib Trajeado.mtl
usemtl palette

# normals
vn -1 0 0
vn 1 0 0
vn 0 0 1
vn 0 0 -1
vn 0 -1 0
vn 0 1 0

# texcoords
vt 0.0605469 0.5
vt 0.0644531 0.5
vt 0.958984 0.5
vt 0.994141 0.5

# verts
v -0.7 0.7 1
v -0.7 0.7 0.7
v -0.7 1.3 1
v -0.7 1.3 0.7
v -0.5 0 0.8
v -0.5 0 0.5
v -0.5 0.4 0.6
v -0.5 0.4 0.5
v -0.5 0.5 1
v -0.5 0.5 0.8
v -0.5 0.5 0.6
v -0.5 0.6 0.7
v -0.5 0.6 0.5
v -0.5 0.7 0.9
v -0.5 0.7 0.7
v -0.5 1.1 1
v -0.5 1.1 0.9
v -0.5 1.3 1
v -0.5 1.3 0.7
v -0.5 1.7 1
v -0.5 1.7 0.7
v -0.5 1.9 1
v -0.5 1.9 0.7
v -0.6 0.7 1
v -0.6 0.7 0.9
v -0.6 1.1 1
v -0.6 1.1 0.9
v 0.1 0 0.8
v 0.1 0 0.5
v 0.1 0.4 0.8
v 0.1 0.4 0.6
v 0.1 0.5 1
v 0.1 0.5 0.8
v 0.1 0.5 0.6
v 0.1 0.5 0.5
v 0.1 0.6 0.7
v 0.1 0.6 0.5
v 0.1 0.7 1
v 0.1 0.7 0.7
v 0.1 1.3 1
v 0.1 1.3 0.7
v 0.1 1.7 1
v 0.1 1.7 0.7
v 0.1 1.9 1
v 0.1 1.9 0.7
v 0.3 0.7 1
v 0.3 0.7 0.7
v 0.3 1.3 1
v 0.3 1.3 0.7
v -0.7 0.7 1
v -0.7 1.3 1
v -0.6 0.7 1
v -0.6 1.1 1
v -0.5 0.5 1
v -0.5 1.1 1
v -0.5 1.3 1
v -0.5 1.7 1
v -0.5 1.9 1
v 0.1 0.5 1
v 0.1 0.7 1
v 0.1 1.3 1
v 0.1 1.7 1
v 0.1 1.9 1
v 0.3 0.7 1
v 0.3 1.3 1
v -0.6 0.7 0.9
v -0.6 1.1 0.9
v -0.5 0.7 0.9
v -0.5 1.1 0.9
v -0.5 0 0.8
v -0.5 0.5 0.8
v -0.4 0.4 0.8
v -0.4 0.5 0.8
v -0.3 0.4 0.8
v -0.3 0.5 0.8
v -0.2 0.4 0.8
v -0.2 0.5 0.8
v -0.1 0.4 0.8
v -0.1 0.5 0.8
v 5.96046e-08 0.4 0.8
v 5.96046e-08 0.5 0.8
v 0.1 0 0.8
v 0.1 0.4 0.8
v 0.1 0.5 0.8
v -0.7 0.7 0.7
v -0.7 1.3 0.7
v -0.5 0.6 0.7
v -0.5 0.7 0.7
v -0.5 1.3 0.7
v -0.5 1.7 0.7
v -0.5 1.9 0.7
v -0.4 1.5 0.7
v -0.4 1.6 0.7
v -0.3 1.3 0.7
v -0.3 1.4 0.7
v -0.3 1.5 0.7
v -0.3 1.6 0.7
v -0.1 1.3 0.7
v -0.1 1.4 0.7
v -0.1 1.5 0.7
v -0.1 1.6 0.7
v 5.96046e-08 1.5 0.7
v 5.96046e-08 1.6 0.7
v 0.1 0.6 0.7
v 0.1 0.7 0.7
v 0.1 1.3 0.7
v 0.1 1.7 0.7
v 0.1 1.9 0.7
v 0.3 0.7 0.7
v 0.3 1.3 0.7
v -0.5 0 0.5
v -0.5 0.4 0.5
v -0.5 0.6 0.5
v -0.4 0.4 0.5
v -0.4 0.5 0.5
v -0.3 0.4 0.5
v -0.3 0.5 0.5
v -0.2 0.4 0.5
v -0.2 0.5 0.5
v -0.1 0.4 0.5
v -0.1 0.5 0.5
v 5.96046e-08 0.4 0.5
v 5.96046e-08 0.5 0.5
v 0.1 0 0.5
v 0.1 0.5 0.5
v 0.1 0.6 0.5
v -0.5 0 0.8
v 0.1 0 0.8
v -0.5 0 0.5
v 0.1 0 0.5
v -0.5 0.5 1
v 0.1 0.5 1
v -0.5 0.5 0.8
v -0.4 0.5 0.8
v -0.3 0.5 0.8
v -0.2 0.5 0.8
v -0.1 0.5 0.8
v 5.96046e-08 0.5 0.8
v 0.1 0.5 0.8
v -0.7 0.7 1
v -0.6 0.7 1
v 0.1 0.7 1
v 0.3 0.7 1
v -0.6 0.7 0.9
v -0.5 0.7 0.9
v -0.7 0.7 0.7
v -0.5 0.7 0.7
v 0.1 0.7 0.7
v 0.3 0.7 0.7
v -0.6 1.1 1
v -0.5 1.1 1
v -0.6 1.1 0.9
v -0.5 1.1 0.9
v -0.5 0.6 0.7
v 0.1 0.6 0.7
v -0.5 0.6 0.5
v 0.1 0.6 0.5
v -0.7 1.3 1
v -0.5 1.3 1
v 0.1 1.3 1
v 0.3 1.3 1
v -0.7 1.3 0.7
v -0.5 1.3 0.7
v 0.1 1.3 0.7
v 0.3 1.3 0.7
v -0.5 1.9 1
v 0.1 1.9 1
v -0.5 1.9 0.7
v 0.1 1.9 0.7

# faces
f 3/1/1 2/1/1 1/1/1
f 4/1/1 2/1/1 3/1/1
f 7/1/1 6/1/1 5/1/1
f 8/1/1 6/1/1 7/1/1
f 10/1/1 7/1/1 5/1/1
f 11/4/1 8/4/1 7/4/1
f 11/1/1 7/1/1 10/1/1
f 12/4/1 10/4/1 9/4/1
f 12/4/1 11/4/1 10/4/1
f 13/4/1 8/4/1 11/4/1
f 13/4/1 11/4/1 12/4/1
f 14/4/1 12/4/1 9/4/1
f 15/4/1 12/4/1 14/4/1
f 16/4/1 14/4/1 9/4/1
f 17/4/1 14/4/1 16/4/1
f 20/1/1 19/1/1 18/1/1
f 21/1/1 19/1/1 20/1/1
f 22/2/1 21/2/1 20/2/1
f 23/2/1 21/2/1 22/2/1
f 24/1/2 25/1/2 26/1/2
f 26/1/2 25/1/2 27/1/2
f 28/1/2 29/1/2 30/1/2
f 30/1/2 29/1/2 31/1/2
f 30/4/2 31/4/2 33/4/2
f 31/1/2 29/1/2 34/1/2
f 33/4/2 31/4/2 34/4/2
f 34/1/2 29/1/2 35/1/2
f 32/4/2 33/4/2 36/4/2
f 33/4/2 34/4/2 36/4/2
f 34/4/2 35/4/2 36/4/2
f 36/4/2 35/4/2 37/4/2
f 32/4/2 36/4/2 38/4/2
f 38/4/2 36/4/2 39/4/2
f 40/1/2 41/1/2 42/1/2
f 42/1/2 41/1/2 43/1/2
f 42/2/2 43/2/2 44/2/2
f 44/2/2 43/2/2 45/2/2
f 46/1/2 47/1/2 48/1/2
f 48/1/2 47/1/2 49/1/2
f 52/1/3 51/1/3 50/1/3
f 53/1/3 51/1/3 52/1/3
f 55/1/3 51/1/3 53/1/3
f 56/1/3 51/1/3 55/1/3
f 59/4/3 55/4/3 54/4/3
f 59/4/3 56/4/3 55/4/3
f 60/4/3 56/4/3 59/4/3
f 61/1/3 57/1/3 56/1/3
f 61/4/3 56/4/3 60/4/3
f 62/2/3 58/2/3 57/2/3
f 62/1/3 57/1/3 61/1/3
f 63/2/3 58/2/3 62/2/3
f 64/1/3 61/1/3 60/1/3
f 65/1/3 61/1/3 64/1/3
f 68/1/3 67/1/3 66/1/3
f 69/1/3 67/1/3 68/1/3
f 72/1/3 71/1/3 70/1/3
f 73/1/3 71/1/3 72/1/3
f 74/1/3 72/1/3 70/1/3
f 74/4/3 73/4/3 72/4/3
f 75/4/3 73/4/3 74/4/3
f 76/1/3 74/1/3 70/1/3
f 76/1/3 75/1/3 74/1/3
f 77/1/3 75/1/3 76/1/3
f 78/1/3 76/1/3 70/1/3
f 78/4/3 77/4/3 76/4/3
f 79/4/3 77/4/3 78/4/3
f 80/1/3 78/1/3 70/1/3
f 80/1/3 79/1/3 78/1/3
f 81/1/3 79/1/3 80/1/3
f 82/1/3 80/1/3 70/1/3
f 83/4/3 81/4/3 80/4/3
f 83/1/3 80/1/3 82/1/3
f 84/4/3 81/4/3 83/4/3
f 85/1/4 86/1/4 88/1/4
f 88/1/4 86/1/4 89/1/4
f 89/1/4 90/1/4 92/1/4
f 92/1/4 90/1/4 93/1/4
f 87/4/4 88/4/4 94/4/4
f 88/4/4 89/4/4 94/4/4
f 89/1/4 92/1/4 94/1/4
f 94/1/4 92/1/4 95/1/4
f 92/3/4 93/3/4 96/3/4
f 95/1/4 92/1/4 96/1/4
f 93/1/4 90/1/4 97/1/4
f 96/3/4 93/3/4 97/3/4
f 94/3/4 95/3/4 98/3/4
f 87/4/4 94/4/4 98/4/4
f 95/1/4 96/1/4 99/1/4
f 98/3/4 95/3/4 99/3/4
f 96/1/4 97/1/4 99/1/4
f 99/1/4 97/1/4 100/1/4
f 97/1/4 90/1/4 101/1/4
f 100/1/4 97/1/4 101/1/4
f 99/1/4 100/1/4 102/1/4
f 98/1/4 99/1/4 102/1/4
f 100/3/4 101/3/4 102/3/4
f 101/1/4 90/1/4 103/1/4
f 102/3/4 101/3/4 103/3/4
f 87/4/4 98/4/4 104/4/4
f 104/4/4 98/4/4 105/4/4
f 98/1/4 102/1/4 106/1/4
f 105/4/4 98/4/4 106/4/4
f 102/1/4 103/1/4 106/1/4
f 103/1/4 90/1/4 107/1/4
f 106/1/4 103/1/4 107/1/4
f 90/2/4 91/2/4 107/2/4
f 107/2/4 91/2/4 108/2/4
f 105/1/4 106/1/4 109/1/4
f 109/1/4 106/1/4 110/1/4
f 111/1/4 112/1/4 114/1/4
f 112/4/4 113/4/4 114/4/4
f 114/4/4 113/4/4 115/4/4
f 111/1/4 114/1/4 116/1/4
f 114/1/4 115/1/4 116/1/4
f 115/4/4 113/4/4 117/4/4
f 116/1/4 115/1/4 117/1/4
f 111/1/4 116/1/4 118/1/4
f 116/4/4 117/4/4 118/4/4
f 117/4/4 113/4/4 119/4/4
f 118/4/4 117/4/4 119/4/4
f 111/1/4 118/1/4 120/1/4
f 118/1/4 119/1/4 120/1/4
f 119/4/4 113/4/4 121/4/4
f 120/1/4 119/1/4 121/1/4
f 111/1/4 120/1/4 122/1/4
f 120/4/4 121/4/4 122/4/4
f 121/4/4 113/4/4 123/4/4
f 122/4/4 121/4/4 123/4/4
f 111/1/4 122/1/4 124/1/4
f 122/1/4 123/1/4 124/1/4
f 123/4/4 113/4/4 125/4/4
f 124/1/4 123/1/4 125/1/4
f 125/4/4 113/4/4 126/4/4
f 129/1/5 128/1/5 127/1/5
f 130/1/5 128/1/5 129/1/5
f 133/4/5 132/4/5 131/4/5
f 134/4/5 132/4/5 133/4/5
f 135/4/5 132/4/5 134/4/5
f 136/4/5 132/4/5 135/4/5
f 137/4/5 132/4/5 136/4/5
f 138/4/5 132/4/5 137/4/5
f 139/4/5 132/4/5 138/4/5
f 144/1/5 141/1/5 140/1/5
f 146/1/5 144/1/5 140/1/5
f 146/1/5 145/1/5 144/1/5
f 147/1/5 145/1/5 146/1/5
f 148/1/5 143/1/5 142/1/5
f 149/1/5 143/1/5 148/1/5
f 152/1/5 151/1/5 150/1/5
f 153/1/5 151/1/5 152/1/5
f 154/4/6 155/4/6 156/4/6
f 156/4/6 155/4/6 157/4/6
f 158/1/6 159/1/6 162/1/6
f 162/1/6 159/1/6 163/1/6
f 160/1/6 161/1/6 164/1/6
f 164/1/6 161/1/6 165/1/6
f 166/2/6 167/2/6 168/2/6
f 168/2/6 167/2/6 169/2/6
