# This file uses centimeters as units for non-parametric coordinates.

mtllib BrazoIzq.mtl
g default
v 0.254404 0.262888 0.206128
v 0.254404 0.262888 -0.204107
v 0.254404 0.390476 0.206128
v 0.254404 0.390476 -0.204107
v 0.328706 -0.375054 0.124081
v 0.328706 -0.375054 -0.122060
v 0.328706 0.199094 0.206128
v 0.328706 0.199094 0.124081
v 0.328706 0.199094 -0.122060
v 0.328706 0.199094 -0.204107
v 0.328706 0.262888 0.206128
v 0.328706 0.262888 -0.204107
v 0.477308 -0.375054 0.124081
v 0.477308 -0.375054 -0.122060
v 0.477308 0.199094 0.206128
v 0.477308 0.199094 0.124081
v 0.477308 0.199094 -0.122060
v 0.477308 0.199094 -0.204107
v 0.477308 0.262888 0.206128
v 0.477308 0.262888 -0.204107
v 0.477308 0.390476 0.206128
v 0.477308 0.390476 -0.204107
v 0.254404 0.262888 0.206128
v 0.254404 0.390476 0.206128
v 0.328706 0.199094 0.206128
v 0.328706 0.262888 0.206128
v 0.477308 0.199094 0.206128
v 0.477308 0.262888 0.206128
v 0.477308 0.390476 0.206128
v 0.328706 -0.375054 0.124081
v 0.328706 0.199094 0.124081
v 0.477308 -0.375054 0.124081
v 0.477308 0.199094 0.124081
v 0.328706 -0.375054 -0.122060
v 0.328706 0.199094 -0.122060
v 0.477308 -0.375054 -0.122060
v 0.477308 0.199094 -0.122060
v 0.254404 0.262888 -0.204107
v 0.254404 0.390476 -0.204107
v 0.328706 0.199094 -0.204107
v 0.328706 0.262888 -0.204107
v 0.477308 0.199094 -0.204107
v 0.477308 0.262888 -0.204107
v 0.477308 0.390476 -0.204107
v 0.328706 -0.375054 0.124081
v 0.477308 -0.375054 0.124081
v 0.328706 -0.375054 -0.122060
v 0.477308 -0.375054 -0.122060
v 0.328706 0.199094 0.206128
v 0.477308 0.199094 0.206128
v 0.328706 0.199094 0.124081
v 0.477308 0.199094 0.124081
v 0.328706 0.199094 -0.122060
v 0.477308 0.199094 -0.122060
v 0.328706 0.199094 -0.204107
v 0.477308 0.199094 -0.204107
v 0.254404 0.262888 0.206128
v 0.328706 0.262888 0.206128
v 0.254404 0.262888 -0.204107
v 0.328706 0.262888 -0.204107
v 0.254404 0.390476 0.206128
v 0.477308 0.390476 0.206128
v 0.254404 0.390476 -0.204107
v 0.477308 0.390476 -0.204107
vt 0.904297 0.500000
vt 0.060547 0.500000
vt 0.900391 0.500000
vt 0.904297 0.500000
vt 0.904297 0.500000
vt 0.904297 0.500000
vt 0.904297 0.500000
vt 0.060547 0.500000
vt 0.060547 0.500000
vt 0.060547 0.500000
vt 0.060547 0.500000
vt 0.900391 0.500000
vt 0.900391 0.500000
vt 0.900391 0.500000
vt 0.900391 0.500000
vt 0.900391 0.500000
vt 0.900391 0.500000
vt 0.900391 0.500000
vt 0.900391 0.500000
vt 0.060547 0.500000
vt 0.060547 0.500000
vt 0.060547 0.500000
vt 0.060547 0.500000
vt 0.060547 0.500000
vt 0.060547 0.500000
vt 0.900391 0.500000
vt 0.900391 0.500000
vt 0.900391 0.500000
vt 0.900391 0.500000
vt 0.900391 0.500000
vt 0.900391 0.500000
vt 0.900391 0.500000
vt 0.900391 0.500000
vt 0.900391 0.500000
vt 0.900391 0.500000
vt 0.900391 0.500000
vt 0.900391 0.500000
vt 0.904297 0.500000
vt 0.904297 0.500000
vt 0.904297 0.500000
vt 0.904297 0.500000
vt 0.904297 0.500000
vt 0.904297 0.500000
vt 0.904297 0.500000
vt 0.904297 0.500000
vt 0.904297 0.500000
vt 0.900391 0.500000
vt 0.900391 0.500000
vt 0.900391 0.500000
vt 0.904297 0.500000
vt 0.904297 0.500000
vt 0.904297 0.500000
vt 0.900391 0.500000
vt 0.900391 0.500000
vt 0.900391 0.500000
vt 0.904297 0.500000
vt 0.904297 0.500000
vt 0.904297 0.500000
vt 0.060547 0.500000
vt 0.060547 0.500000
vt 0.060547 0.500000
vt 0.060547 0.500000
vt 0.060547 0.500000
vt 0.060547 0.500000
vt 0.060547 0.500000
vt 0.060547 0.500000
vt 0.060547 0.500000
vt 0.060547 0.500000
vt 0.060547 0.500000
vt 0.060547 0.500000
vt 0.904297 0.500000
vt 0.904297 0.500000
vt 0.904297 0.500000
vt 0.900391 0.500000
vt 0.900391 0.500000
vt 0.900391 0.500000
vt 0.904297 0.500000
vt 0.904297 0.500000
vt 0.904297 0.500000
vt 0.900391 0.500000
vt 0.900391 0.500000
vt 0.900391 0.500000
vt 0.904297 0.500000
vt 0.904297 0.500000
vt 0.904297 0.500000
vt 0.060547 0.500000
vt 0.060547 0.500000
vt 0.060547 0.500000
vt 0.060547 0.500000
vt 0.060547 0.500000
vt 0.060547 0.500000
vt 0.900391 0.500000
vt 0.900391 0.500000
vt 0.900391 0.500000
vt 0.900391 0.500000
vt 0.900391 0.500000
vt 0.900391 0.500000
vt 0.900391 0.500000
vt 0.900391 0.500000
vt 0.900391 0.500000
vt 0.900391 0.500000
vt 0.900391 0.500000
vt 0.900391 0.500000
vt 0.904297 0.500000
vt 0.904297 0.500000
vt 0.904297 0.500000
vt 0.904297 0.500000
vt 0.904297 0.500000
vt 0.904297 0.500000
vt 0.904297 0.500000
vt 0.904297 0.500000
vt 0.904297 0.500000
vt 0.904297 0.500000
vt 0.904297 0.500000
vt 0.904297 0.500000
vn -1.000000 0.000000 0.000000
vn -1.000000 0.000000 0.000000
vn -1.000000 0.000000 0.000000
vn -1.000000 0.000000 0.000000
vn -1.000000 0.000000 0.000000
vn -1.000000 0.000000 0.000000
vn -1.000000 0.000000 0.000000
vn -1.000000 0.000000 0.000000
vn -1.000000 0.000000 0.000000
vn -1.000000 0.000000 0.000000
vn -1.000000 0.000000 0.000000
vn -1.000000 0.000000 0.000000
vn -1.000000 0.000000 0.000000
vn -1.000000 0.000000 0.000000
vn -1.000000 0.000000 0.000000
vn -1.000000 0.000000 0.000000
vn -1.000000 0.000000 0.000000
vn -1.000000 0.000000 0.000000
vn -1.000000 0.000000 0.000000
vn -1.000000 0.000000 0.000000
vn -1.000000 0.000000 0.000000
vn -1.000000 0.000000 0.000000
vn -1.000000 0.000000 0.000000
vn -1.000000 0.000000 0.000000
vn 1.000000 0.000000 0.000000
vn 1.000000 0.000000 0.000000
vn 1.000000 0.000000 0.000000
vn 1.000000 0.000000 0.000000
vn 1.000000 0.000000 0.000000
vn 1.000000 0.000000 0.000000
vn 1.000000 0.000000 0.000000
vn 1.000000 0.000000 0.000000
vn 1.000000 0.000000 0.000000
vn 1.000000 0.000000 0.000000
vn 1.000000 0.000000 0.000000
vn 1.000000 0.000000 0.000000
vn 1.000000 0.000000 0.000000
vn 1.000000 0.000000 0.000000
vn 1.000000 0.000000 0.000000
vn 1.000000 0.000000 0.000000
vn 1.000000 0.000000 0.000000
vn 1.000000 0.000000 0.000000
vn 1.000000 0.000000 0.000000
vn 1.000000 0.000000 0.000000
vn 1.000000 0.000000 0.000000
vn 1.000000 0.000000 0.000000
vn 1.000000 0.000000 0.000000
vn 1.000000 0.000000 0.000000
vn 0.000000 0.000000 1.000000
vn 0.000000 0.000000 1.000000
vn 0.000000 0.000000 1.000000
vn 0.000000 0.000000 1.000000
vn 0.000000 0.000000 1.000000
vn 0.000000 0.000000 1.000000
vn 0.000000 0.000000 1.000000
vn 0.000000 0.000000 1.000000
vn 0.000000 0.000000 1.000000
vn 0.000000 0.000000 1.000000
vn 0.000000 0.000000 1.000000
vn 0.000000 0.000000 1.000000
vn 0.000000 0.000000 1.000000
vn 0.000000 0.000000 1.000000
vn 0.000000 0.000000 1.000000
vn 0.000000 0.000000 1.000000
vn 0.000000 0.000000 1.000000
vn 0.000000 0.000000 1.000000
vn 0.000000 0.000000 1.000000
vn 0.000000 0.000000 1.000000
vn 0.000000 0.000000 1.000000
vn 0.000000 0.000000 -1.000000
vn 0.000000 0.000000 -1.000000
vn 0.000000 0.000000 -1.000000
vn 0.000000 0.000000 -1.000000
vn 0.000000 0.000000 -1.000000
vn 0.000000 0.000000 -1.000000
vn 0.000000 0.000000 -1.000000
vn 0.000000 0.000000 -1.000000
vn 0.000000 0.000000 -1.000000
vn 0.000000 0.000000 -1.000000
vn 0.000000 0.000000 -1.000000
vn 0.000000 0.000000 -1.000000
vn 0.000000 0.000000 -1.000000
vn 0.000000 0.000000 -1.000000
vn 0.000000 0.000000 -1.000000
vn 0.000000 0.000000 -1.000000
vn 0.000000 0.000000 -1.000000
vn 0.000000 0.000000 -1.000000
vn 0.000000 0.000000 -1.000000
vn 0.000000 0.000000 -1.000000
vn 0.000000 0.000000 -1.000000
vn 0.000000 -1.000000 0.000000
vn 0.000000 -1.000000 0.000000
vn 0.000000 -1.000000 0.000000
vn 0.000000 -1.000000 0.000000
vn 0.000000 -1.000000 0.000000
vn 0.000000 -1.000000 0.000000
vn 0.000000 -1.000000 0.000000
vn 0.000000 -1.000000 0.000000
vn 0.000000 -1.000000 0.000000
vn 0.000000 -1.000000 0.000000
vn 0.000000 -1.000000 0.000000
vn 0.000000 -1.000000 0.000000
vn 0.000000 -1.000000 0.000000
vn 0.000000 -1.000000 0.000000
vn 0.000000 -1.000000 0.000000
vn 0.000000 -1.000000 0.000000
vn 0.000000 -1.000000 0.000000
vn 0.000000 -1.000000 0.000000
vn 0.000000 -1.000000 0.000000
vn 0.000000 -1.000000 0.000000
vn 0.000000 -1.000000 0.000000
vn 0.000000 -1.000000 0.000000
vn 0.000000 -1.000000 0.000000
vn 0.000000 -1.000000 0.000000
vn 0.000000 1.000000 0.000000
vn 0.000000 1.000000 0.000000
vn 0.000000 1.000000 0.000000
vn 0.000000 1.000000 0.000000
vn 0.000000 1.000000 0.000000
vn 0.000000 1.000000 0.000000
s off
g BrazoIzq:Mesh
usemtl BrazoIzq:palette
f 3/1/1 2/4/2 1/5/3
f 4/6/4 2/7/5 3/1/6
f 8/2/7 6/8/8 5/9/9
f 9/10/10 6/11/11 8/2/12
f 11/3/13 8/12/14 7/13/15
f 11/3/16 10/14/17 9/15/18
f 11/3/19 9/16/20 8/17/21
f 12/18/22 10/19/23 11/3/24
f 13/20/25 14/21/26 16/22/27
f 16/23/28 14/24/29 17/25/30
f 15/26/31 16/27/32 19/28/33
f 17/29/34 18/30/35 19/31/36
f 16/32/37 17/33/38 19/34/39
f 19/35/40 18/36/41 20/37/42
f 19/38/43 20/39/44 21/40/45
f 21/41/46 20/42/47 22/43/48
f 26/44/49 24/45/50 23/46/51
f 27/47/52 26/48/53 25/49/54
f 28/50/55 24/51/56 26/52/57
f 28/53/58 26/54/59 27/55/60
f 29/56/61 24/57/62 28/58/63
f 32/59/64 31/60/65 30/61/66
f 33/62/67 31/63/68 32/64/69
f 34/65/70 35/66/71 36/67/72
f 36/68/73 35/69/74 37/70/75
f 38/71/76 39/72/77 41/73/78
f 40/74/79 41/75/80 42/76/81
f 41/77/82 39/78/83 43/79/84
f 42/80/85 41/81/86 43/82/87
f 43/83/88 39/84/89 44/85/90
f 47/86/91 46/87/92 45/88/93
f 48/89/94 46/90/95 47/91/96
f 51/92/97 50/93/98 49/94/99
f 52/95/100 50/96/101 51/97/102
f 55/98/103 54/99/104 53/100/105
f 56/101/106 54/102/107 55/103/108
f 59/104/109 58/105/110 57/106/111
f 60/107/112 58/108/113 59/109/114
f 61/110/115 62/111/116 63/112/117
f 63/113/118 62/114/119 64/115/120
