# MagicaVoxel @ Ephtracy

# group
o 

# material
mtllib Shaggy3D.mtl
usemtl palette

# normals
vn -1 0 0
vn 1 0 0
vn 0 0 1
vn 0 0 -1
vn 0 -1 0
vn 0 1 0

# texcoords
vt 0.0605469 0.5
vt 0.369141 0.5
vt 0.373047 0.5
vt 0.537109 0.5
vt 0.587891 0.5
vt 0.728516 0.5
vt 0.900391 0.5
vt 0.904297 0.5
vt 0.958984 0.5
vt 0.994141 0.5

# verts
v -0.7 1.6 0.0999999
v -0.7 1.6 -0.2
v -0.7 2.3 0.0999999
v -0.7 2.3 -0.2
v -0.7 2.4 0.0999999
v -0.7 2.4 -0.2
v -0.7 2.6 0.0999999
v -0.7 2.6 -0.2
v -0.5 0 0.0999999
v -0.5 0 -0.2
v -0.5 0.2 0.0999999
v -0.5 0.2 -0.2
v -0.5 0.3 0.0999999
v -0.5 0.3 -0.2
v -0.5 1.4 0.0999999
v -0.5 1.4 -0.2
v -0.5 1.5 0.0999999
v -0.5 1.5 -0.2
v -0.5 1.6 0.0999999
v -0.5 1.6 -0.2
v -0.5 2.6 0.0999999
v -0.5 2.6 -0.1
v -0.5 2.6 -0.2
v -0.5 2.7 -0.1
v -0.5 2.7 -0.2
v -0.5 2.8 -0.1
v -0.5 2.8 -0.2
v -0.5 2.9 -0.1
v -0.5 2.9 -0.2
v -0.5 3 0.0999999
v -0.5 3 -0.1
v -0.5 3.1 0.0999999
v -0.5 3.1 -0.1
v -0.5 3.1 -0.2
v -0.5 3.2 -0.1
v -0.5 3.2 -0.2
v -0.5 3.3 0.0999999
v -0.5 3.3 -0.2
v 0.3 0 0.0999999
v 0.3 0 -0.2
v 0.3 0.2 0.0999999
v 0.3 0.2 -0.2
v 0.3 0.3 0.0999999
v 0.3 0.3 -0.2
v 0.3 1.4 0.0999999
v 0.3 1.4 -0.2
v 0.3 1.5 0.0999999
v 0.3 1.5 -0.2
v 0.3 1.6 0.0999999
v 0.3 1.6 -0.2
v 0.3 2.6 0.0999999
v 0.3 2.6 -0.1
v 0.3 2.6 -0.2
v 0.3 2.7 -0.1
v 0.3 2.7 -0.2
v 0.3 2.8 -0.1
v 0.3 2.8 -0.2
v 0.3 2.9 -0.1
v 0.3 2.9 -0.2
v 0.3 3 0.0999999
v 0.3 3 -0.1
v 0.3 3.1 0.0999999
v 0.3 3.1 -0.1
v 0.3 3.1 -0.2
v 0.3 3.2 -0.1
v 0.3 3.2 -0.2
v 0.3 3.3 0.0999999
v 0.3 3.3 -0.2
v 0.5 1.6 0.0999999
v 0.5 1.6 -0.2
v 0.5 2.3 0.0999999
v 0.5 2.3 -0.2
v 0.5 2.4 0.0999999
v 0.5 2.4 -0.2
v 0.5 2.6 0.0999999
v 0.5 2.6 -0.2
v -0.7 1.6 0.0999999
v -0.7 2.3 0.0999999
v -0.7 2.4 0.0999999
v -0.7 2.6 0.0999999
v -0.5 0 0.0999999
v -0.5 0.2 0.0999999
v -0.5 0.3 0.0999999
v -0.5 1.4 0.0999999
v -0.5 1.5 0.0999999
v -0.5 1.6 0.0999999
v -0.5 2.3 0.0999999
v -0.5 2.4 0.0999999
v -0.5 2.6 0.0999999
v -0.5 3 0.0999999
v -0.5 3.1 0.0999999
v -0.5 3.3 0.0999999
v -0.4 2.4 0.0999999
v -0.4 2.6 0.0999999
v -0.4 2.7 0.0999999
v -0.4 2.9 0.0999999
v -0.3 2.3 0.0999999
v -0.3 2.4 0.0999999
v -0.3 2.6 0.0999999
v -0.3 2.7 0.0999999
v -0.3 2.9 0.0999999
v -0.3 3 0.0999999
v -0.3 3.1 0.0999999
v -0.2 2.2 0.0999999
v -0.2 2.3 0.0999999
v -0.2 2.4 0.0999999
v -0.2 2.5 0.0999999
v -0.2 2.6 0.0999999
v -0.2 2.7 0.0999999
v -0.2 2.9 0.0999999
v -0.1 3 0.0999999
v -0.1 3.1 0.0999999
v 5.96046e-08 2.2 0.0999999
v 5.96046e-08 2.3 0.0999999
v 5.96046e-08 2.4 0.0999999
v 5.96046e-08 2.5 0.0999999
v 5.96046e-08 2.6 0.0999999
v 5.96046e-08 2.7 0.0999999
v 5.96046e-08 2.9 0.0999999
v 0.1 2.3 0.0999999
v 0.1 2.4 0.0999999
v 0.1 2.6 0.0999999
v 0.1 2.7 0.0999999
v 0.1 2.9 0.0999999
v 0.1 3 0.0999999
v 0.1 3.1 0.0999999
v 0.2 2.4 0.0999999
v 0.2 2.6 0.0999999
v 0.2 2.7 0.0999999
v 0.2 2.9 0.0999999
v 0.2 3 0.0999999
v 0.2 3.1 0.0999999
v 0.3 0 0.0999999
v 0.3 0.2 0.0999999
v 0.3 0.3 0.0999999
v 0.3 1.4 0.0999999
v 0.3 1.5 0.0999999
v 0.3 1.6 0.0999999
v 0.3 2.3 0.0999999
v 0.3 2.4 0.0999999
v 0.3 2.6 0.0999999
v 0.3 3 0.0999999
v 0.3 3.1 0.0999999
v 0.3 3.3 0.0999999
v 0.5 1.6 0.0999999
v 0.5 2.3 0.0999999
v 0.5 2.4 0.0999999
v 0.5 2.6 0.0999999
v -0.7 1.6 -0.2
v -0.7 2.3 -0.2
v -0.7 2.4 -0.2
v -0.7 2.6 -0.2
v -0.5 0 -0.2
v -0.5 0.2 -0.2
v -0.5 0.3 -0.2
v -0.5 1.4 -0.2
v -0.5 1.5 -0.2
v -0.5 1.6 -0.2
v -0.5 2.3 -0.2
v -0.5 2.4 -0.2
v -0.5 2.6 -0.2
v -0.5 2.7 -0.2
v -0.5 2.8 -0.2
v -0.5 2.9 -0.2
v -0.5 3.1 -0.2
v -0.5 3.2 -0.2
v -0.5 3.3 -0.2
v -0.4 2.4 -0.2
v -0.4 2.6 -0.2
v -0.4 2.8 -0.2
v -0.4 2.9 -0.2
v -0.4 3.1 -0.2
v -0.4 3.2 -0.2
v -0.3 2.4 -0.2
v -0.3 2.5 -0.2
v -0.3 2.8 -0.2
v -0.3 2.9 -0.2
v -0.3 3.1 -0.2
v -0.3 3.2 -0.2
v -0.2 2.4 -0.2
v -0.2 2.5 -0.2
v -0.2 2.8 -0.2
v -0.2 2.9 -0.2
v -0.1 2.4 -0.2
v -0.1 2.5 -0.2
v -0.1 2.8 -0.2
v -0.1 2.9 -0.2
v -0.1 3.1 -0.2
v -0.1 3.2 -0.2
v 5.96046e-08 2.4 -0.2
v 5.96046e-08 2.5 -0.2
v 0.1 2.4 -0.2
v 0.1 2.5 -0.2
v 0.1 2.8 -0.2
v 0.1 2.9 -0.2
v 0.1 3.1 -0.2
v 0.1 3.2 -0.2
v 0.2 2.5 -0.2
v 0.2 2.6 -0.2
v 0.2 2.8 -0.2
v 0.2 2.9 -0.2
v 0.3 0 -0.2
v 0.3 0.2 -0.2
v 0.3 0.3 -0.2
v 0.3 1.4 -0.2
v 0.3 1.5 -0.2
v 0.3 1.6 -0.2
v 0.3 2.3 -0.2
v 0.3 2.4 -0.2
v 0.3 2.6 -0.2
v 0.3 2.7 -0.2
v 0.3 2.8 -0.2
v 0.3 2.9 -0.2
v 0.3 3.1 -0.2
v 0.3 3.2 -0.2
v 0.3 3.3 -0.2
v 0.5 1.6 -0.2
v 0.5 2.3 -0.2
v 0.5 2.4 -0.2
v 0.5 2.6 -0.2
v -0.5 0 0.0999999
v 0.3 0 0.0999999
v -0.5 0 -0.2
v 0.3 0 -0.2
v -0.7 1.6 0.0999999
v -0.5 1.6 0.0999999
v 0.3 1.6 0.0999999
v 0.5 1.6 0.0999999
v -0.7 1.6 -0.2
v -0.5 1.6 -0.2
v 0.3 1.6 -0.2
v 0.5 1.6 -0.2
v -0.7 2.6 0.0999999
v -0.5 2.6 0.0999999
v 0.3 2.6 0.0999999
v 0.5 2.6 0.0999999
v -0.5 2.6 -0.1
v 0.3 2.6 -0.1
v -0.7 2.6 -0.2
v -0.5 2.6 -0.2
v 0.3 2.6 -0.2
v 0.5 2.6 -0.2
v -0.5 3.3 0.0999999
v 0.3 3.3 0.0999999
v -0.5 3.3 -0.2
v 0.3 3.3 -0.2

# faces
f 3/1/1 2/1/1 1/1/1
f 4/1/1 2/1/1 3/1/1
f 5/7/1 4/7/1 3/7/1
f 6/7/1 4/7/1 5/7/1
f 7/8/1 6/8/1 5/8/1
f 8/8/1 6/8/1 7/8/1
f 11/10/1 10/10/1 9/10/1
f 12/10/1 10/10/1 11/10/1
f 13/2/1 12/2/1 11/2/1
f 14/2/1 12/2/1 13/2/1
f 15/4/1 14/4/1 13/4/1
f 16/4/1 14/4/1 15/4/1
f 17/7/1 16/7/1 15/7/1
f 18/7/1 16/7/1 17/7/1
f 19/8/1 18/8/1 17/8/1
f 20/8/1 18/8/1 19/8/1
f 24/1/1 22/1/1 21/1/1
f 24/2/1 23/2/1 22/2/1
f 25/2/1 23/2/1 24/2/1
f 26/1/1 24/1/1 21/1/1
f 26/4/1 25/4/1 24/4/1
f 27/4/1 25/4/1 26/4/1
f 28/1/1 26/1/1 21/1/1
f 28/2/1 27/2/1 26/2/1
f 29/2/1 27/2/1 28/2/1
f 30/1/1 28/1/1 21/1/1
f 31/4/1 29/4/1 28/4/1
f 31/1/1 28/1/1 30/1/1
f 32/2/1 31/2/1 30/2/1
f 33/4/1 29/4/1 31/4/1
f 33/2/1 31/2/1 32/2/1
f 34/4/1 29/4/1 33/4/1
f 35/4/1 33/4/1 32/4/1
f 35/2/1 34/2/1 33/2/1
f 36/2/1 34/2/1 35/2/1
f 37/4/1 35/4/1 32/4/1
f 37/4/1 36/4/1 35/4/1
f 38/4/1 36/4/1 37/4/1
f 39/10/2 40/10/2 41/10/2
f 41/10/2 40/10/2 42/10/2
f 41/2/2 42/2/2 43/2/2
f 43/2/2 42/2/2 44/2/2
f 43/4/2 44/4/2 45/4/2
f 45/4/2 44/4/2 46/4/2
f 45/7/2 46/7/2 47/7/2
f 47/7/2 46/7/2 48/7/2
f 47/8/2 48/8/2 49/8/2
f 49/8/2 48/8/2 50/8/2
f 51/1/2 52/1/2 54/1/2
f 52/2/2 53/2/2 54/2/2
f 54/2/2 53/2/2 55/2/2
f 51/1/2 54/1/2 56/1/2
f 54/4/2 55/4/2 56/4/2
f 56/4/2 55/4/2 57/4/2
f 51/1/2 56/1/2 58/1/2
f 56/3/2 57/3/2 58/3/2
f 58/3/2 57/3/2 59/3/2
f 51/1/2 58/1/2 60/1/2
f 58/4/2 59/4/2 61/4/2
f 60/1/2 58/1/2 61/1/2
f 60/2/2 61/2/2 62/2/2
f 61/4/2 59/4/2 63/4/2
f 62/2/2 61/2/2 63/2/2
f 63/4/2 59/4/2 64/4/2
f 62/4/2 63/4/2 65/4/2
f 63/2/2 64/2/2 65/2/2
f 65/2/2 64/2/2 66/2/2
f 62/4/2 65/4/2 67/4/2
f 65/4/2 66/4/2 67/4/2
f 67/4/2 66/4/2 68/4/2
f 69/1/2 70/1/2 71/1/2
f 71/1/2 70/1/2 72/1/2
f 71/7/2 72/7/2 73/7/2
f 73/7/2 72/7/2 74/7/2
f 73/8/2 74/8/2 75/8/2
f 75/8/2 74/8/2 76/8/2
f 86/1/3 78/1/3 77/1/3
f 87/7/3 79/7/3 78/7/3
f 87/1/3 78/1/3 86/1/3
f 88/8/3 80/8/3 79/8/3
f 88/7/3 79/7/3 87/7/3
f 89/8/3 80/8/3 88/8/3
f 93/8/3 86/8/3 85/8/3
f 93/8/3 87/8/3 86/8/3
f 93/8/3 88/8/3 87/8/3
f 93/8/3 89/8/3 88/8/3
f 94/1/3 90/1/3 89/1/3
f 94/8/3 89/8/3 93/8/3
f 95/1/3 90/1/3 94/1/3
f 96/1/3 90/1/3 95/1/3
f 97/8/3 93/8/3 85/8/3
f 98/7/3 94/7/3 93/7/3
f 98/8/3 93/8/3 97/8/3
f 99/1/3 95/1/3 94/1/3
f 99/7/3 94/7/3 98/7/3
f 100/9/3 96/9/3 95/9/3
f 100/1/3 95/1/3 99/1/3
f 101/1/3 90/1/3 96/1/3
f 101/9/3 96/9/3 100/9/3
f 102/2/3 91/2/3 90/2/3
f 102/1/3 90/1/3 101/1/3
f 103/4/3 92/4/3 91/4/3
f 103/2/3 91/2/3 102/2/3
f 104/8/3 97/8/3 85/8/3
f 105/7/3 98/7/3 97/7/3
f 105/8/3 97/8/3 104/8/3
f 106/1/3 100/1/3 99/1/3
f 106/7/3 98/7/3 105/7/3
f 106/1/3 99/1/3 98/1/3
f 107/1/3 100/1/3 106/1/3
f 108/1/3 100/1/3 107/1/3
f 109/5/3 101/5/3 100/5/3
f 109/1/3 100/1/3 108/1/3
f 110/1/3 102/1/3 101/1/3
f 110/5/3 101/5/3 109/5/3
f 111/1/3 109/1/3 108/1/3
f 111/1/3 102/1/3 110/1/3
f 111/1/3 110/1/3 109/1/3
f 111/4/3 103/4/3 102/4/3
f 112/4/3 92/4/3 103/4/3
f 112/4/3 103/4/3 111/4/3
f 113/7/3 105/7/3 104/7/3
f 113/8/3 104/8/3 85/8/3
f 114/1/3 107/1/3 106/1/3
f 114/7/3 105/7/3 113/7/3
f 114/1/3 106/1/3 105/1/3
f 115/1/3 107/1/3 114/1/3
f 116/2/3 108/2/3 107/2/3
f 116/1/3 107/1/3 115/1/3
f 117/1/3 111/1/3 108/1/3
f 117/2/3 108/2/3 116/2/3
f 118/1/3 111/1/3 117/1/3
f 119/1/3 111/1/3 118/1/3
f 120/7/3 115/7/3 114/7/3
f 120/8/3 114/8/3 113/8/3
f 121/1/3 116/1/3 115/1/3
f 121/7/3 115/7/3 120/7/3
f 121/1/3 117/1/3 116/1/3
f 121/1/3 118/1/3 117/1/3
f 122/1/3 118/1/3 121/1/3
f 123/5/3 119/5/3 118/5/3
f 123/1/3 118/1/3 122/1/3
f 124/1/3 111/1/3 119/1/3
f 124/5/3 119/5/3 123/5/3
f 125/2/3 112/2/3 111/2/3
f 125/1/3 111/1/3 124/1/3
f 126/4/3 92/4/3 112/4/3
f 126/2/3 112/2/3 125/2/3
f 127/7/3 122/7/3 121/7/3
f 127/8/3 121/8/3 120/8/3
f 128/1/3 123/1/3 122/1/3
f 128/7/3 122/7/3 127/7/3
f 129/9/3 124/9/3 123/9/3
f 129/1/3 123/1/3 128/1/3
f 130/1/3 125/1/3 124/1/3
f 130/9/3 124/9/3 129/9/3
f 131/4/3 126/4/3 125/4/3
f 131/1/3 125/1/3 130/1/3
f 132/4/3 92/4/3 126/4/3
f 132/4/3 126/4/3 131/4/3
f 133/10/3 82/10/3 81/10/3
f 134/2/3 83/2/3 82/2/3
f 134/10/3 82/10/3 133/10/3
f 135/4/3 84/4/3 83/4/3
f 135/2/3 83/2/3 134/2/3
f 136/7/3 85/7/3 84/7/3
f 136/4/3 84/4/3 135/4/3
f 137/8/3 113/8/3 85/8/3
f 137/7/3 85/7/3 136/7/3
f 137/8/3 127/8/3 120/8/3
f 137/8/3 120/8/3 113/8/3
f 137/8/3 128/8/3 127/8/3
f 138/8/3 128/8/3 137/8/3
f 139/8/3 128/8/3 138/8/3
f 140/8/3 128/8/3 139/8/3
f 141/1/3 129/1/3 128/1/3
f 141/8/3 128/8/3 140/8/3
f 141/1/3 130/1/3 129/1/3
f 141/1/3 131/1/3 130/1/3
f 142/2/3 132/2/3 131/2/3
f 142/1/3 131/1/3 141/1/3
f 143/4/3 92/4/3 132/4/3
f 143/2/3 132/2/3 142/2/3
f 144/4/3 92/4/3 143/4/3
f 145/1/3 139/1/3 138/1/3
f 146/7/3 140/7/3 139/7/3
f 146/1/3 139/1/3 145/1/3
f 147/8/3 141/8/3 140/8/3
f 147/7/3 140/7/3 146/7/3
f 148/8/3 141/8/3 147/8/3
f 149/1/4 150/1/4 158/1/4
f 150/7/4 151/7/4 159/7/4
f 158/1/4 150/1/4 159/1/4
f 151/8/4 152/8/4 160/8/4
f 159/7/4 151/7/4 160/7/4
f 160/8/4 152/8/4 161/8/4
f 157/8/4 158/8/4 168/8/4
f 158/8/4 159/8/4 168/8/4
f 159/8/4 160/8/4 168/8/4
f 160/8/4 161/8/4 168/8/4
f 161/2/4 162/2/4 169/2/4
f 168/8/4 161/8/4 169/8/4
f 163/2/4 164/2/4 170/2/4
f 162/4/4 163/4/4 170/4/4
f 164/4/4 165/4/4 171/4/4
f 170/2/4 164/2/4 171/2/4
f 165/2/4 166/2/4 172/2/4
f 171/4/4 165/4/4 172/4/4
f 166/4/4 167/4/4 173/4/4
f 172/2/4 166/2/4 173/2/4
f 157/8/4 168/8/4 174/8/4
f 168/4/4 169/4/4 174/4/4
f 174/4/4 169/4/4 175/4/4
f 171/4/4 172/4/4 176/4/4
f 170/4/4 171/4/4 176/4/4
f 162/4/4 170/4/4 176/4/4
f 172/4/4 173/4/4 176/4/4
f 176/4/4 173/4/4 177/4/4
f 177/4/4 173/4/4 178/4/4
f 173/4/4 167/4/4 179/4/4
f 178/4/4 173/4/4 179/4/4
f 174/8/4 175/8/4 180/8/4
f 157/8/4 174/8/4 180/8/4
f 175/4/4 169/4/4 181/4/4
f 180/8/4 175/8/4 181/8/4
f 162/4/4 176/4/4 182/4/4
f 176/2/4 177/2/4 182/2/4
f 177/4/4 178/4/4 183/4/4
f 182/2/4 177/2/4 183/2/4
f 157/8/4 180/8/4 184/8/4
f 180/4/4 181/4/4 184/4/4
f 181/4/4 169/4/4 185/4/4
f 184/4/4 181/4/4 185/4/4
f 162/4/4 182/4/4 186/4/4
f 182/4/4 183/4/4 186/4/4
f 183/4/4 178/4/4 187/4/4
f 186/4/4 183/4/4 187/4/4
f 178/2/4 179/2/4 188/2/4
f 187/4/4 178/4/4 188/4/4
f 179/4/4 167/4/4 189/4/4
f 188/2/4 179/2/4 189/2/4
f 157/8/4 184/8/4 190/8/4
f 184/8/4 185/8/4 190/8/4
f 185/4/4 169/4/4 191/4/4
f 190/8/4 185/8/4 191/8/4
f 157/8/4 190/8/4 192/8/4
f 190/4/4 191/4/4 192/4/4
f 191/4/4 169/4/4 193/4/4
f 192/4/4 191/4/4 193/4/4
f 162/4/4 186/4/4 194/4/4
f 186/2/4 187/2/4 194/2/4
f 187/4/4 188/4/4 195/4/4
f 194/2/4 187/2/4 195/2/4
f 188/4/4 189/4/4 195/4/4
f 195/4/4 189/4/4 196/4/4
f 189/4/4 167/4/4 197/4/4
f 196/4/4 189/4/4 197/4/4
f 193/4/4 169/4/4 198/4/4
f 192/8/4 193/8/4 198/8/4
f 169/2/4 162/2/4 199/2/4
f 198/4/4 169/4/4 199/4/4
f 162/4/4 194/4/4 200/4/4
f 195/4/4 196/4/4 200/4/4
f 194/4/4 195/4/4 200/4/4
f 200/4/4 196/4/4 201/4/4
f 153/10/4 154/10/4 202/10/4
f 154/2/4 155/2/4 203/2/4
f 202/10/4 154/10/4 203/10/4
f 155/4/4 156/4/4 204/4/4
f 203/2/4 155/2/4 204/2/4
f 156/7/4 157/7/4 205/7/4
f 204/4/4 156/4/4 205/4/4
f 192/8/4 198/8/4 206/8/4
f 205/7/4 157/7/4 206/7/4
f 157/8/4 192/8/4 206/8/4
f 198/8/4 199/8/4 206/8/4
f 206/8/4 199/8/4 207/8/4
f 207/8/4 199/8/4 208/8/4
f 208/8/4 199/8/4 209/8/4
f 199/2/4 162/2/4 210/2/4
f 209/8/4 199/8/4 210/8/4
f 162/4/4 200/4/4 211/4/4
f 210/2/4 162/2/4 211/2/4
f 200/3/4 201/3/4 212/3/4
f 211/4/4 200/4/4 212/4/4
f 201/4/4 196/4/4 213/4/4
f 212/3/4 201/3/4 213/3/4
f 196/2/4 197/2/4 214/2/4
f 213/4/4 196/4/4 214/4/4
f 197/4/4 167/4/4 215/4/4
f 214/2/4 197/2/4 215/2/4
f 215/4/4 167/4/4 216/4/4
f 207/1/4 208/1/4 217/1/4
f 208/7/4 209/7/4 218/7/4
f 217/1/4 208/1/4 218/1/4
f 209/8/4 210/8/4 219/8/4
f 218/7/4 209/7/4 219/7/4
f 219/8/4 210/8/4 220/8/4
f 223/10/5 222/10/5 221/10/5
f 224/10/5 222/10/5 223/10/5
f 229/1/5 226/1/5 225/1/5
f 230/1/5 226/1/5 229/1/5
f 231/1/5 228/1/5 227/1/5
f 232/1/5 228/1/5 231/1/5
f 233/8/6 234/8/6 237/8/6
f 235/8/6 236/8/6 238/8/6
f 233/8/6 237/8/6 239/8/6
f 239/8/6 237/8/6 240/8/6
f 238/8/6 236/8/6 241/8/6
f 241/8/6 236/8/6 242/8/6
f 243/4/6 244/4/6 245/4/6
f 245/4/6 244/4/6 246/4/6
