# This file uses centimeters as units for non-parametric coordinates.

mtllib Techo.mtl
g default
v -2.319993 3.932751 -3.679665
v 2.319993 3.932751 -3.679665
v 2.319993 3.562915 -3.729551
v -2.319993 3.562915 -3.729551
v 2.319993 3.504334 -3.734498
v 2.319993 3.504726 -3.737400
v 2.319993 3.533747 -3.733485
v -2.319993 3.131370 -3.747331
v 2.319993 3.131370 -3.747331
v 2.319993 3.003052 -0.018193
v -2.319993 3.003052 -0.018193
v 2.319993 3.563016 -3.732478
v -2.319993 2.504258 3.679665
v -2.319993 2.874094 3.729551
v 2.319993 3.433957 0.018193
v -2.319993 3.433957 0.018193
v -2.319993 2.932674 3.734498
v -2.319993 3.305639 3.747331
v -2.319993 2.873993 3.732478
v -2.319993 2.903262 3.733485
v -2.319993 2.932283 3.737400
v -2.319993 3.504334 -3.734498
v -2.319993 3.533747 -3.733485
v 2.319993 2.504258 3.679665
v 2.319993 2.874094 3.729551
v 2.319993 3.305639 3.747331
v 2.319993 2.932674 3.734498
v 2.319993 2.873993 3.732478
v 2.319993 2.903262 3.733485
v 2.319993 2.932283 3.737400
v -2.319993 3.563016 -3.732478
v -2.319993 3.504726 -3.737400
vt 0.375000 0.500000
vt 0.625000 0.500000
vt 0.625000 0.716013
vt 0.375000 0.716013
vt 0.874902 -0.000000
vt 0.875000 0.000000
vt 0.875000 0.016951
vt 0.375000 0.750000
vt 0.625000 0.750000
vt 0.625000 0.875000
vt 0.375000 0.875000
vt 0.875000 0.233048
vt 0.875000 0.250000
vt 0.874902 0.250000
vt 0.250120 -0.000000
vt 0.375000 0.000000
vt 0.375000 0.216013
vt 0.749880 0.000000
vt 0.875000 0.000000
vt 0.875000 0.216013
vt 0.625000 0.375000
vt 0.375000 0.375000
vt 0.375000 0.033987
vt 0.375000 0.250000
vt 0.249880 0.250000
vt 0.875000 0.033987
vt 0.875000 0.250000
vt 0.750120 0.250000
vt 0.374902 -0.000000
vt 0.375000 0.000000
vt 0.375000 0.016952
vt 0.375000 0.233049
vt 0.375000 0.250000
vt 0.374935 0.250033
vt 0.125098 -0.000000
vt 0.125000 0.033987
vt 0.125000 0.016951
vt 0.625000 0.000000
vt 0.625000 0.216013
vt 0.625000 0.250000
vt 0.625000 0.033987
vt 0.625000 1.000000
vt 0.375000 1.000000
vt 0.625000 0.000000
vt 0.625098 -0.000000
vt 0.625000 0.016952
vt 0.625065 0.250033
vt 0.625000 0.250000
vt 0.625000 0.233049
vt 0.625000 0.999902
vt 0.625000 1.000000
vt 0.375000 1.000000
vt 0.375000 0.999902
vt 0.625000 0.499902
vt 0.625000 0.500000
vt 0.375000 0.500000
vt 0.375000 0.499902
vt 0.625000 0.516952
vt 0.375000 0.516952
vt 0.625000 0.733049
vt 0.625000 0.750000
vt 0.375000 0.750000
vt 0.375000 0.733049
vt 0.625000 0.750098
vt 0.375000 0.750098
vt 0.625000 0.533987
vt 0.375000 0.533987
vt 0.125000 0.250000
vt 0.125000 0.000000
vt 0.125000 0.216013
vt 0.125098 0.250000
vt 0.125000 0.250000
vt 0.125000 0.233048
vt 0.125000 0.000000
vn 0.000000 0.133676 -0.991025
vn 0.000000 0.133676 -0.991025
vn 0.000000 0.133676 -0.991025
vn 0.000000 0.133676 -0.991025
vn 1.000000 -0.000000 0.000000
vn 1.000000 0.000005 0.000000
vn 1.000000 0.000000 0.000000
vn 0.000000 -0.999409 -0.034389
vn 0.000000 -0.999409 -0.034389
vn 0.000000 -0.996454 -0.084137
vn 0.000000 -0.996454 -0.084137
vn 1.000000 0.000000 0.000000
vn 1.000000 0.000000 0.000000
vn 1.000000 0.000000 0.000000
vn -1.000000 0.000000 0.000000
vn -1.000000 -0.000001 0.000000
vn -1.000000 0.000000 0.000000
vn 1.000000 -0.000000 0.000000
vn 1.000000 -0.000001 0.000000
vn 1.000000 -0.000000 0.000000
vn 0.000000 0.996454 0.084137
vn 0.000000 0.991025 0.133677
vn 0.000000 0.991025 0.133677
vn 0.000000 0.996454 0.084137
vn -1.000000 0.000001 0.000000
vn -1.000000 0.000001 0.000000
vn -1.000000 0.000000 0.000000
vn 1.000000 0.000000 0.000000
vn 1.000000 0.000001 0.000000
vn 1.000000 0.000000 0.000000
vn -1.000000 0.000000 0.000000
vn -1.000000 0.000000 0.000000
vn -1.000000 0.000000 0.000000
vn -1.000000 0.000000 0.000000
vn -1.000000 -0.000005 0.000000
vn -1.000000 0.000001 0.000000
vn -1.000000 0.000000 0.000000
vn -1.000000 0.000000 0.000000
vn -1.000000 0.000000 0.000000
vn -1.000000 0.000000 0.000000
vn -1.000000 0.000001 0.000000
vn -1.000000 0.000000 0.000000
vn -1.000000 0.000001 0.000000
vn -1.000000 0.000000 0.000000
vn 1.000000 -0.000001 0.000000
vn 1.000000 -0.000000 0.000000
vn 1.000000 -0.000000 0.000000
vn 1.000000 0.000000 0.000000
vn 1.000000 0.000001 0.000000
vn 1.000000 0.000000 0.000000
vn 0.000000 -0.996454 -0.084137
vn 0.000000 -0.991025 -0.133677
vn 0.000000 -0.991025 -0.133677
vn 0.000000 -0.996454 -0.084137
vn 1.000000 0.000011 0.000000
vn 1.000000 -0.000000 0.000000
vn 1.000000 0.000000 0.000000
vn 1.000000 0.000000 0.000000
vn 1.000000 -0.000005 0.000000
vn 1.000000 0.000000 0.000000
vn 0.000000 0.999409 0.034389
vn 0.000000 0.999409 0.034389
vn 0.000000 0.996454 0.084137
vn 0.000000 0.996454 0.084137
vn 0.000000 -0.133676 0.991025
vn 0.000000 -0.133676 0.991025
vn 0.000000 -0.133676 0.991025
vn 0.000000 -0.133676 0.991025
vn 0.000000 -0.999409 -0.034384
vn 0.000000 -0.999409 -0.034384
vn 0.000000 -0.999409 -0.034384
vn 0.000000 -0.999409 -0.034384
vn 0.000000 -0.034388 0.999409
vn 0.000000 -0.034388 0.999409
vn 0.000000 -0.084135 0.996454
vn 0.000000 -0.084135 0.996454
vn 0.000000 -0.084135 0.996454
vn 0.000000 -0.133678 0.991025
vn 0.000000 -0.133678 0.991025
vn 0.000000 -0.084135 0.996454
vn 0.000000 0.991024 0.133687
vn 0.000000 0.991024 0.133687
vn 0.000000 0.991024 0.133687
vn 0.000000 0.991024 0.133687
vn 0.000000 -0.034389 0.999409
vn 0.000000 -0.034389 0.999409
vn 0.000000 -0.034389 0.999409
vn 0.000000 -0.034389 0.999409
vn 1.000000 -0.000000 0.000000
vn 1.000000 -0.000000 0.000000
vn 1.000000 0.000000 0.000000
vn 1.000000 0.000000 0.000000
vn 1.000000 0.000000 0.000000
vn 1.000000 0.000000 0.000000
vn 1.000000 0.000000 0.000000
vn 1.000000 -0.000000 0.000000
vn 0.000000 0.999414 0.034244
vn 0.000000 0.999414 0.034244
vn 0.000000 0.999414 0.034244
vn 0.000000 0.999414 0.034244
vn 0.000000 0.034388 -0.999409
vn 0.000000 0.034388 -0.999409
vn 0.000000 0.084135 -0.996454
vn 0.000000 0.084135 -0.996454
vn 0.000000 0.084135 -0.996454
vn 0.000000 0.133676 -0.991025
vn 0.000000 0.133676 -0.991025
vn 0.000000 0.084135 -0.996454
vn 0.000000 -0.991033 -0.133618
vn 0.000000 -0.991033 -0.133618
vn 0.000000 -0.991033 -0.133618
vn 0.000000 -0.991033 -0.133618
vn 0.000000 0.034389 -0.999409
vn 0.000000 0.034389 -0.999409
vn 0.000000 0.034389 -0.999409
vn 0.000000 0.034389 -0.999409
vn -1.000000 0.000000 0.000000
vn -1.000000 0.000001 0.000000
vn -1.000000 0.000001 0.000000
vn -1.000000 -0.000001 0.000000
vn -1.000000 0.000000 0.000000
vn -1.000000 0.000000 0.000000
vn -1.000000 0.000001 0.000000
vn -1.000000 0.000000 0.000000
vn -1.000000 0.000000 0.000000
vn -1.000000 0.000000 0.000000
vn -1.000000 0.000000 0.000000
vn -1.000000 0.000000 0.000000
s off
g pCube6
usemtl Techo_initialShadingGroup
f 1/1/1 2/2/2 3/3/3 4/4/4
f 5/5/5 6/6/6 7/7/7
f 8/8/8 9/9/9 10/10/10 11/11/11
f 7/12/12 12/13/13 3/14/14
f 11/15/15 13/16/16 14/17/17
f 10/18/18 9/19/19 5/20/20
f 15/21/21 2/2/22 1/1/23 16/22/24
f 17/23/25 18/24/26 16/25/27
f 3/26/28 2/27/29 15/28/30
f 14/29/31 19/30/32 20/31/33
f 20/32/34 21/33/35 17/34/36
f 22/35/37 11/15/38 14/17/39 20/32/40 17/34/41 16/25/42 4/36/43 23/37/44
f 24/38/45 10/18/46 25/39/47
f 15/28/48 26/40/49 27/41/50
f 10/10/51 24/42/52 13/43/53 11/11/54
f 28/44/55 25/45/56 29/46/57
f 27/47/58 30/48/59 29/49/60
f 18/24/61 26/40/62 15/21/63 16/22/64
f 13/16/65 24/38/66 25/39/67 14/17/68
f 25/50/69 28/51/70 19/52/71 14/53/72
f 19/30/73 28/44/74 29/46/75 20/31/76
f 29/49/77 30/48/78 21/33/79 20/32/80
f 21/33/81 30/48/82 27/47/83 17/34/84
f 27/41/85 26/40/86 18/24/87 17/23/88
f 10/18/89 5/5/90 7/7/91 3/26/92 15/28/93 27/47/94 29/49/95 25/39/96
f 3/54/97 12/55/98 31/56/99 4/57/100
f 31/56/101 12/55/102 7/58/103 23/59/104
f 7/60/105 6/61/106 32/62/107 23/63/108
f 32/62/109 6/61/110 5/64/111 22/65/112
f 5/66/113 9/9/114 8/8/115 22/67/116
f 16/25/117 1/68/118 4/36/119
f 8/69/120 11/15/121 22/70/122
f 4/71/123 31/72/124 23/73/125
f 32/74/126 22/35/127 23/37/128
