# MagicaVoxel @ Ephtracy

# group
o 

# material
mtllib Cabeza.mtl
usemtl palette

# normals
vn -1 0 0
vn 1 0 0
vn 0 0 1
vn 0 0 -1
vn 0 -1 0
vn 0 1 0

# texcoords
vt 0.0605469 0.5
vt 0.369141 0.5
vt 0.373047 0.5
vt 0.537109 0.5
vt 0.587891 0.5
vt 0.728516 0.5
vt 0.958984 0.5

# verts
v -0.5 2.6 0.2
v -0.5 2.6 -0.1
v -0.5 2.6 -0.3
v -0.5 2.7 -0.1
v -0.5 2.7 -0.3
v -0.5 2.8 -0.1
v -0.5 2.8 -0.3
v -0.5 2.9 -0.1
v -0.5 2.9 -0.3
v -0.5 3 0.2
v -0.5 3 -0.1
v -0.5 3.1 0.2
v -0.5 3.1 -0.1
v -0.5 3.1 -0.3
v -0.5 3.2 -0.1
v -0.5 3.2 -0.3
v -0.5 3.3 0.2
v -0.5 3.3 -0.3
v 0.3 2.6 0.2
v 0.3 2.6 -0.1
v 0.3 2.6 -0.3
v 0.3 2.7 -0.1
v 0.3 2.7 -0.3
v 0.3 2.8 -0.1
v 0.3 2.8 -0.2
v 0.3 2.8 -0.3
v 0.3 2.9 -0.1
v 0.3 2.9 -0.2
v 0.3 2.9 -0.3
v 0.3 3 0.2
v 0.3 3 -0.1
v 0.3 3.1 0.2
v 0.3 3.1 -0.1
v 0.3 3.1 -0.3
v 0.3 3.2 -0.1
v 0.3 3.2 -0.3
v 0.3 3.3 0.2
v 0.3 3.3 -0.3
v -0.5 2.6 0.2
v -0.5 3 0.2
v -0.5 3.1 0.2
v -0.5 3.3 0.2
v -0.4 2.7 0.2
v -0.4 2.9 0.2
v -0.3 2.7 0.2
v -0.3 2.9 0.2
v -0.3 3 0.2
v -0.3 3.1 0.2
v -0.2 2.7 0.2
v -0.2 2.9 0.2
v -0.1 3 0.2
v -0.1 3.1 0.2
v 0 2.7 0.2
v 0 2.9 0.2
v 0.1 2.7 0.2
v 0.1 2.9 0.2
v 0.1 3 0.2
v 0.1 3.1 0.2
v 0.2 2.7 0.2
v 0.2 2.9 0.2
v 0.2 3 0.2
v 0.2 3.1 0.2
v 0.3 2.6 0.2
v 0.3 3 0.2
v 0.3 3.1 0.2
v 0.3 3.3 0.2
v -0.5 2.6 -0.3
v -0.5 2.7 -0.3
v -0.5 2.8 -0.3
v -0.5 2.9 -0.3
v -0.5 3.1 -0.3
v -0.5 3.2 -0.3
v -0.5 3.3 -0.3
v -0.4 2.8 -0.3
v -0.4 2.9 -0.3
v -0.4 3.1 -0.3
v -0.4 3.2 -0.3
v -0.3 2.8 -0.3
v -0.3 2.9 -0.3
v -0.3 3.1 -0.3
v -0.3 3.2 -0.3
v -0.2 2.8 -0.3
v -0.2 2.9 -0.3
v -0.1 2.8 -0.3
v -0.1 2.9 -0.3
v -0.1 3.1 -0.3
v -0.1 3.2 -0.3
v 0.1 2.8 -0.3
v 0.1 2.9 -0.3
v 0.1 3.1 -0.3
v 0.1 3.2 -0.3
v 0.2 2.8 -0.3
v 0.2 2.9 -0.3
v 0.3 2.6 -0.3
v 0.3 2.7 -0.3
v 0.3 2.8 -0.3
v 0.3 2.9 -0.3
v 0.3 3.1 -0.3
v 0.3 3.2 -0.3
v 0.3 3.3 -0.3
v -0.5 2.6 0.2
v 0.3 2.6 0.2
v -0.5 2.6 -0.1
v 0.3 2.6 -0.1
v -0.5 2.6 -0.3
v 0.3 2.6 -0.3
v -0.5 3.3 0.2
v 0.3 3.3 0.2
v -0.5 3.3 -0.3
v 0.3 3.3 -0.3

# faces
f 4/1/1 2/1/1 1/1/1
f 4/2/1 3/2/1 2/2/1
f 5/2/1 3/2/1 4/2/1
f 6/1/1 4/1/1 1/1/1
f 6/4/1 5/4/1 4/4/1
f 7/4/1 5/4/1 6/4/1
f 8/1/1 6/1/1 1/1/1
f 8/2/1 7/2/1 6/2/1
f 9/2/1 7/2/1 8/2/1
f 10/1/1 8/1/1 1/1/1
f 11/4/1 9/4/1 8/4/1
f 11/1/1 8/1/1 10/1/1
f 12/2/1 11/2/1 10/2/1
f 13/4/1 9/4/1 11/4/1
f 13/2/1 11/2/1 12/2/1
f 14/4/1 9/4/1 13/4/1
f 15/4/1 13/4/1 12/4/1
f 15/2/1 14/2/1 13/2/1
f 16/2/1 14/2/1 15/2/1
f 17/4/1 15/4/1 12/4/1
f 17/4/1 16/4/1 15/4/1
f 18/4/1 16/4/1 17/4/1
f 19/1/2 20/1/2 22/1/2
f 20/2/2 21/2/2 22/2/2
f 22/2/2 21/2/2 23/2/2
f 19/1/2 22/1/2 24/1/2
f 22/4/2 23/4/2 24/4/2
f 24/4/2 23/4/2 25/4/2
f 25/4/2 23/4/2 26/4/2
f 19/1/2 24/1/2 27/1/2
f 24/3/2 25/3/2 27/3/2
f 25/2/2 26/2/2 28/2/2
f 27/3/2 25/3/2 28/3/2
f 28/2/2 26/2/2 29/2/2
f 19/1/2 27/1/2 30/1/2
f 27/4/2 28/4/2 31/4/2
f 30/1/2 27/1/2 31/1/2
f 28/4/2 29/4/2 31/4/2
f 30/2/2 31/2/2 32/2/2
f 31/4/2 29/4/2 33/4/2
f 32/2/2 31/2/2 33/2/2
f 33/4/2 29/4/2 34/4/2
f 32/4/2 33/4/2 35/4/2
f 33/2/2 34/2/2 35/2/2
f 35/2/2 34/2/2 36/2/2
f 32/4/2 35/4/2 37/4/2
f 35/4/2 36/4/2 37/4/2
f 37/4/2 36/4/2 38/4/2
f 43/1/3 40/1/3 39/1/3
f 44/1/3 40/1/3 43/1/3
f 45/1/3 43/1/3 39/1/3
f 45/7/3 44/7/3 43/7/3
f 46/1/3 40/1/3 44/1/3
f 46/7/3 44/7/3 45/7/3
f 47/2/3 41/2/3 40/2/3
f 47/1/3 40/1/3 46/1/3
f 48/4/3 42/4/3 41/4/3
f 48/2/3 41/2/3 47/2/3
f 49/5/3 46/5/3 45/5/3
f 49/1/3 45/1/3 39/1/3
f 50/1/3 47/1/3 46/1/3
f 50/5/3 46/5/3 49/5/3
f 51/4/3 48/4/3 47/4/3
f 51/1/3 47/1/3 50/1/3
f 51/1/3 50/1/3 49/1/3
f 52/4/3 42/4/3 48/4/3
f 52/4/3 48/4/3 51/4/3
f 53/1/3 49/1/3 39/1/3
f 53/1/3 51/1/3 49/1/3
f 54/1/3 51/1/3 53/1/3
f 55/1/3 53/1/3 39/1/3
f 55/5/3 54/5/3 53/5/3
f 56/1/3 51/1/3 54/1/3
f 56/5/3 54/5/3 55/5/3
f 57/2/3 52/2/3 51/2/3
f 57/1/3 51/1/3 56/1/3
f 58/4/3 42/4/3 52/4/3
f 58/2/3 52/2/3 57/2/3
f 59/7/3 56/7/3 55/7/3
f 59/1/3 55/1/3 39/1/3
f 60/1/3 57/1/3 56/1/3
f 60/7/3 56/7/3 59/7/3
f 61/4/3 58/4/3 57/4/3
f 61/1/3 57/1/3 60/1/3
f 62/4/3 42/4/3 58/4/3
f 62/4/3 58/4/3 61/4/3
f 63/1/3 59/1/3 39/1/3
f 63/1/3 61/1/3 60/1/3
f 63/1/3 60/1/3 59/1/3
f 64/2/3 62/2/3 61/2/3
f 64/1/3 61/1/3 63/1/3
f 65/4/3 42/4/3 62/4/3
f 65/2/3 62/2/3 64/2/3
f 66/4/3 42/4/3 65/4/3
f 68/4/4 69/4/4 74/4/4
f 69/2/4 70/2/4 74/2/4
f 70/4/4 71/4/4 75/4/4
f 74/2/4 70/2/4 75/2/4
f 71/2/4 72/2/4 76/2/4
f 75/4/4 71/4/4 76/4/4
f 72/4/4 73/4/4 77/4/4
f 76/2/4 72/2/4 77/2/4
f 75/4/4 76/4/4 78/4/4
f 74/4/4 75/4/4 78/4/4
f 76/4/4 77/4/4 78/4/4
f 68/4/4 74/4/4 78/4/4
f 78/4/4 77/4/4 79/4/4
f 79/4/4 77/4/4 80/4/4
f 77/4/4 73/4/4 81/4/4
f 80/4/4 77/4/4 81/4/4
f 68/4/4 78/4/4 82/4/4
f 78/2/4 79/2/4 82/2/4
f 79/4/4 80/4/4 83/4/4
f 82/2/4 79/2/4 83/2/4
f 68/4/4 82/4/4 84/4/4
f 82/4/4 83/4/4 84/4/4
f 83/4/4 80/4/4 85/4/4
f 84/4/4 83/4/4 85/4/4
f 80/2/4 81/2/4 86/2/4
f 85/4/4 80/4/4 86/4/4
f 81/4/4 73/4/4 87/4/4
f 86/2/4 81/2/4 87/2/4
f 68/4/4 84/4/4 88/4/4
f 84/2/4 85/2/4 88/2/4
f 85/4/4 86/4/4 89/4/4
f 88/2/4 85/2/4 89/2/4
f 86/4/4 87/4/4 89/4/4
f 89/4/4 87/4/4 90/4/4
f 87/4/4 73/4/4 91/4/4
f 90/4/4 87/4/4 91/4/4
f 89/4/4 90/4/4 92/4/4
f 68/4/4 88/4/4 92/4/4
f 88/4/4 89/4/4 92/4/4
f 92/4/4 90/4/4 93/4/4
f 67/2/4 68/2/4 94/2/4
f 68/4/4 92/4/4 95/4/4
f 94/2/4 68/2/4 95/2/4
f 92/2/4 93/2/4 96/2/4
f 95/4/4 92/4/4 96/4/4
f 93/4/4 90/4/4 97/4/4
f 96/2/4 93/2/4 97/2/4
f 90/2/4 91/2/4 98/2/4
f 97/4/4 90/4/4 98/4/4
f 91/4/4 73/4/4 99/4/4
f 98/2/4 91/2/4 99/2/4
f 99/4/4 73/4/4 100/4/4
f 103/1/5 102/1/5 101/1/5
f 104/1/5 102/1/5 103/1/5
f 105/2/5 104/2/5 103/2/5
f 106/2/5 104/2/5 105/2/5
f 107/4/6 108/4/6 109/4/6
f 109/4/6 108/4/6 110/4/6
