# This file uses centimeters as units for non-parametric coordinates.

mtllib Cabeza.mtl
g default
v 0.176807 0.246511 0.218627
v -0.204453 0.246493 0.220330
v 0.176796 0.494183 0.218806
v 0.113254 0.494180 0.219090
v 0.176792 0.593252 0.218878
v 0.113249 0.593249 0.219161
v 0.176790 0.642786 0.218914
v -0.204470 0.642768 0.220617
v 0.176788 0.692321 0.218949
v -0.204472 0.692303 0.220652
v 0.174887 0.246822 -0.211400
v -0.206373 0.246804 -0.209697
v 0.174876 0.494493 -0.211221
v 0.111334 0.494491 -0.210937
v 0.174872 0.593562 -0.211149
v 0.111329 0.593560 -0.210866
v 0.174870 0.643096 -0.211113
v -0.206390 0.643079 -0.209410
v 0.174868 0.692631 -0.211078
v -0.206392 0.692614 -0.209375
v 0.176807 0.246511 0.218627
v 0.176796 0.494183 0.218806
v 0.176792 0.593252 0.218878
v 0.176790 0.642786 0.218914
v 0.176788 0.692321 0.218949
v 0.176477 0.494234 0.147136
v 0.176475 0.543768 0.147171
v 0.176473 0.593303 0.147207
v 0.176470 0.642837 0.147243
v 0.176163 0.345683 0.075356
v 0.176160 0.395217 0.075392
v 0.176156 0.494286 0.075464
v 0.176154 0.543820 0.075500
v 0.176152 0.593355 0.075535
v 0.176150 0.642889 0.075571
v 0.175833 0.593407 0.003865
v 0.175830 0.642941 0.003901
v 0.175523 0.345787 -0.067986
v 0.175521 0.395321 -0.067950
v 0.175516 0.494390 -0.067879
v 0.175514 0.543924 -0.067843
v 0.175512 0.593459 -0.067807
v 0.175197 0.494442 -0.139549
v 0.175195 0.543976 -0.139513
v 0.175193 0.593511 -0.139478
v 0.175190 0.643045 -0.139442
v 0.174887 0.246822 -0.211400
v 0.174876 0.494493 -0.211221
v 0.174872 0.593562 -0.211149
v 0.174870 0.643096 -0.211113
v 0.174868 0.692631 -0.211078
v -0.204453 0.246493 0.220330
v -0.204470 0.642768 0.220617
v -0.204472 0.692303 0.220652
v -0.206373 0.246804 -0.209697
v -0.206390 0.643079 -0.209410
v -0.206392 0.692614 -0.209375
v 0.176807 0.246511 0.218627
v 0.174887 0.246822 -0.211400
v -0.204453 0.246493 0.220330
v -0.206373 0.246804 -0.209697
v 0.176788 0.692321 0.218949
v 0.174868 0.692631 -0.211078
v -0.204472 0.692303 0.220652
v -0.206392 0.692614 -0.209375
vt 0.060547 0.500000
vt 0.060547 0.500000
vt 0.060547 0.500000
vt 0.060547 0.500000
vt 0.060547 0.500000
vt 0.958984 0.500000
vt 0.958984 0.500000
vt 0.958984 0.500000
vt 0.060547 0.500000
vt 0.060547 0.500000
vt 0.060547 0.500000
vt 0.958984 0.500000
vt 0.958984 0.500000
vt 0.060547 0.500000
vt 0.060547 0.500000
vt 0.060547 0.500000
vt 0.060547 0.500000
vt 0.060547 0.500000
vt 0.060547 0.500000
vt 0.060547 0.500000
vt 0.060547 0.500000
vt 0.060547 0.500000
vt 0.994141 0.500000
vt 0.994141 0.500000
vt 0.994141 0.500000
vt 0.994141 0.500000
vt 0.994141 0.500000
vt 0.060547 0.500000
vt 0.060547 0.500000
vt 0.060547 0.500000
vt 0.060547 0.500000
vt 0.060547 0.500000
vt 0.060547 0.500000
vt 0.958984 0.500000
vt 0.958984 0.500000
vt 0.958984 0.500000
vt 0.060547 0.500000
vt 0.060547 0.500000
vt 0.060547 0.500000
vt 0.958984 0.500000
vt 0.958984 0.500000
vt 0.958984 0.500000
vt 0.060547 0.500000
vt 0.060547 0.500000
vt 0.060547 0.500000
vt 0.060547 0.500000
vt 0.060547 0.500000
vt 0.060547 0.500000
vt 0.060547 0.500000
vt 0.060547 0.500000
vt 0.060547 0.500000
vt 0.994141 0.500000
vt 0.994141 0.500000
vt 0.994141 0.500000
vt 0.994141 0.500000
vt 0.994141 0.500000
vt 0.994141 0.500000
vt 0.060547 0.500000
vt 0.060547 0.500000
vt 0.060547 0.500000
vt 0.958984 0.500000
vt 0.958984 0.500000
vt 0.958984 0.500000
vt 0.958984 0.500000
vt 0.958984 0.500000
vt 0.958984 0.500000
vt 0.060547 0.500000
vt 0.060547 0.500000
vt 0.060547 0.500000
vt 0.958984 0.500000
vt 0.958984 0.500000
vt 0.958984 0.500000
vt 0.994141 0.500000
vt 0.994141 0.500000
vt 0.994141 0.500000
vt 0.060547 0.500000
vt 0.060547 0.500000
vt 0.060547 0.500000
vt 0.060547 0.500000
vt 0.060547 0.500000
vt 0.060547 0.500000
vt 0.060547 0.500000
vt 0.060547 0.500000
vt 0.060547 0.500000
vt 0.994141 0.500000
vt 0.994141 0.500000
vt 0.994141 0.500000
vt 0.060547 0.500000
vt 0.060547 0.500000
vt 0.060547 0.500000
vt 0.958984 0.500000
vt 0.958984 0.500000
vt 0.958984 0.500000
vt 0.994141 0.500000
vt 0.994141 0.500000
vt 0.994141 0.500000
vt 0.994141 0.500000
vt 0.994141 0.500000
vt 0.994141 0.500000
vt 0.958984 0.500000
vt 0.958984 0.500000
vt 0.958984 0.500000
vt 0.994141 0.500000
vt 0.994141 0.500000
vt 0.994141 0.500000
vt 0.994141 0.500000
vt 0.994141 0.500000
vt 0.994141 0.500000
vt 0.060547 0.500000
vt 0.060547 0.500000
vt 0.060547 0.500000
vt 0.060547 0.500000
vt 0.060547 0.500000
vt 0.060547 0.500000
vt 0.060547 0.500000
vt 0.060547 0.500000
vt 0.060547 0.500000
vt 0.060547 0.500000
vt 0.060547 0.500000
vt 0.060547 0.500000
vt 0.994141 0.500000
vt 0.994141 0.500000
vt 0.994141 0.500000
vt 0.060547 0.500000
vt 0.060547 0.500000
vt 0.060547 0.500000
vt 0.958984 0.500000
vt 0.958984 0.500000
vt 0.958984 0.500000
vt 0.060547 0.500000
vt 0.060547 0.500000
vt 0.060547 0.500000
vt 0.060547 0.500000
vt 0.060547 0.500000
vt 0.060547 0.500000
vt 0.958984 0.500000
vt 0.958984 0.500000
vt 0.958984 0.500000
vt 0.060547 0.500000
vt 0.060547 0.500000
vt 0.060547 0.500000
vt 0.060547 0.500000
vt 0.060547 0.500000
vt 0.060547 0.500000
vt 0.994141 0.500000
vt 0.994141 0.500000
vt 0.994141 0.500000
vt 0.060547 0.500000
vt 0.060547 0.500000
vt 0.060547 0.500000
vt 0.994141 0.500000
vt 0.994141 0.500000
vt 0.994141 0.500000
vt 0.060547 0.500000
vt 0.060547 0.500000
vt 0.060547 0.500000
vt 0.060547 0.500000
vt 0.060547 0.500000
vt 0.060547 0.500000
vt 0.958984 0.500000
vt 0.958984 0.500000
vt 0.958984 0.500000
vt 0.994141 0.500000
vt 0.994141 0.500000
vt 0.994141 0.500000
vt 0.994141 0.500000
vt 0.994141 0.500000
vt 0.994141 0.500000
vt 0.958984 0.500000
vt 0.958984 0.500000
vt 0.958984 0.500000
vt 0.994141 0.500000
vt 0.994141 0.500000
vt 0.994141 0.500000
vt 0.994141 0.500000
vt 0.994141 0.500000
vt 0.994141 0.500000
vt 0.060547 0.500000
vt 0.060547 0.500000
vt 0.060547 0.500000
vt 0.060547 0.500000
vt 0.060547 0.500000
vt 0.060547 0.500000
vt 0.958984 0.500000
vt 0.958984 0.500000
vt 0.958984 0.500000
vt 0.060547 0.500000
vt 0.060547 0.500000
vt 0.060547 0.500000
vt 0.958984 0.500000
vt 0.958984 0.500000
vt 0.958984 0.500000
vt 0.060547 0.500000
vt 0.060547 0.500000
vt 0.060547 0.500000
vt 0.958984 0.500000
vt 0.958984 0.500000
vt 0.958984 0.500000
vt 0.994141 0.500000
vt 0.994141 0.500000
vt 0.994141 0.500000
vt 0.060547 0.500000
vt 0.060547 0.500000
vt 0.060547 0.500000
vt 0.994141 0.500000
vt 0.994141 0.500000
vt 0.994141 0.500000
vt 0.060547 0.500000
vt 0.060547 0.500000
vt 0.060547 0.500000
vt 0.994141 0.500000
vt 0.994141 0.500000
vt 0.994141 0.500000
vt 0.060547 0.500000
vt 0.060547 0.500000
vt 0.060547 0.500000
vt 0.994141 0.500000
vt 0.994141 0.500000
vt 0.994141 0.500000
vt 0.060547 0.500000
vt 0.060547 0.500000
vt 0.060547 0.500000
vt 0.060547 0.500000
vt 0.060547 0.500000
vt 0.060547 0.500000
vt 0.994141 0.500000
vt 0.994141 0.500000
vt 0.994141 0.500000
vt 0.994141 0.500000
vt 0.994141 0.500000
vt 0.994141 0.500000
vn 0.004464 -0.000723 0.999990
vn 0.004464 -0.000723 0.999990
vn 0.004464 -0.000723 0.999990
vn 0.004464 -0.000723 0.999990
vn 0.004464 -0.000723 0.999990
vn 0.004464 -0.000723 0.999990
vn 0.004464 -0.000723 0.999990
vn 0.004464 -0.000723 0.999990
vn 0.004464 -0.000723 0.999990
vn 0.004464 -0.000723 0.999990
vn 0.004464 -0.000723 0.999990
vn 0.004464 -0.000723 0.999990
vn 0.004464 -0.000723 0.999990
vn 0.004464 -0.000723 0.999990
vn 0.004464 -0.000723 0.999990
vn 0.004464 -0.000723 0.999990
vn 0.004464 -0.000723 0.999990
vn 0.004464 -0.000723 0.999990
vn 0.004464 -0.000723 0.999990
vn 0.004464 -0.000723 0.999990
vn 0.004464 -0.000723 0.999990
vn 0.004464 -0.000723 0.999990
vn 0.004464 -0.000723 0.999990
vn 0.004464 -0.000723 0.999990
vn 0.004464 -0.000723 0.999990
vn 0.004464 -0.000723 0.999990
vn 0.004464 -0.000723 0.999990
vn 0.004464 -0.000723 0.999990
vn 0.004464 -0.000723 0.999990
vn 0.004464 -0.000723 0.999990
vn -0.004464 0.000723 -0.999990
vn -0.004464 0.000723 -0.999990
vn -0.004464 0.000723 -0.999990
vn -0.004464 0.000723 -0.999990
vn -0.004464 0.000723 -0.999990
vn -0.004464 0.000723 -0.999990
vn -0.004464 0.000723 -0.999990
vn -0.004464 0.000723 -0.999990
vn -0.004464 0.000723 -0.999990
vn -0.004464 0.000723 -0.999990
vn -0.004464 0.000723 -0.999990
vn -0.004464 0.000723 -0.999990
vn -0.004464 0.000723 -0.999990
vn -0.004464 0.000723 -0.999990
vn -0.004464 0.000723 -0.999990
vn -0.004464 0.000723 -0.999990
vn -0.004464 0.000723 -0.999990
vn -0.004464 0.000723 -0.999990
vn -0.004464 0.000723 -0.999990
vn -0.004464 0.000723 -0.999990
vn -0.004464 0.000723 -0.999990
vn -0.004464 0.000723 -0.999990
vn -0.004464 0.000723 -0.999990
vn -0.004464 0.000723 -0.999990
vn -0.004464 0.000723 -0.999990
vn -0.004464 0.000723 -0.999990
vn -0.004464 0.000723 -0.999990
vn -0.004464 0.000723 -0.999990
vn -0.004464 0.000723 -0.999990
vn -0.004464 0.000723 -0.999990
vn 0.999990 0.000046 -0.004464
vn 0.999990 0.000046 -0.004464
vn 0.999990 0.000046 -0.004464
vn 0.999990 0.000046 -0.004464
vn 0.999990 0.000046 -0.004464
vn 0.999990 0.000046 -0.004464
vn 0.999990 0.000046 -0.004464
vn 0.999990 0.000046 -0.004464
vn 0.999990 0.000046 -0.004464
vn 0.999990 0.000046 -0.004464
vn 0.999990 0.000046 -0.004464
vn 0.999990 0.000046 -0.004464
vn 0.999990 0.000046 -0.004464
vn 0.999990 0.000046 -0.004464
vn 0.999990 0.000046 -0.004464
vn 0.999990 0.000046 -0.004464
vn 0.999990 0.000046 -0.004464
vn 0.999990 0.000046 -0.004464
vn 0.999990 0.000046 -0.004464
vn 0.999990 0.000046 -0.004464
vn 0.999990 0.000046 -0.004464
vn 0.999990 0.000046 -0.004464
vn 0.999990 0.000046 -0.004464
vn 0.999990 0.000046 -0.004464
vn 0.999990 0.000046 -0.004464
vn 0.999990 0.000046 -0.004464
vn 0.999990 0.000046 -0.004464
vn 0.999990 0.000046 -0.004464
vn 0.999990 0.000046 -0.004464
vn 0.999990 0.000046 -0.004464
vn 0.999990 0.000046 -0.004464
vn 0.999990 0.000046 -0.004464
vn 0.999990 0.000046 -0.004464
vn 0.999990 0.000046 -0.004464
vn 0.999990 0.000046 -0.004464
vn 0.999990 0.000046 -0.004464
vn 0.999990 0.000046 -0.004464
vn 0.999990 0.000046 -0.004464
vn 0.999990 0.000046 -0.004464
vn 0.999990 0.000046 -0.004464
vn 0.999990 0.000046 -0.004464
vn 0.999990 0.000046 -0.004464
vn 0.999990 0.000046 -0.004464
vn 0.999990 0.000046 -0.004464
vn 0.999990 0.000046 -0.004464
vn 0.999990 0.000046 -0.004464
vn 0.999990 0.000046 -0.004464
vn 0.999990 0.000046 -0.004464
vn 0.999990 0.000046 -0.004464
vn 0.999990 0.000046 -0.004464
vn 0.999990 0.000046 -0.004464
vn 0.999990 0.000046 -0.004464
vn 0.999990 0.000046 -0.004464
vn 0.999990 0.000046 -0.004464
vn 0.999990 0.000046 -0.004464
vn 0.999990 0.000046 -0.004464
vn 0.999990 0.000046 -0.004464
vn 0.999990 0.000046 -0.004464
vn 0.999990 0.000046 -0.004464
vn 0.999990 0.000046 -0.004464
vn 0.999990 0.000046 -0.004464
vn 0.999990 0.000046 -0.004464
vn 0.999990 0.000046 -0.004464
vn 0.999990 0.000046 -0.004464
vn 0.999990 0.000046 -0.004464
vn 0.999990 0.000046 -0.004464
vn 0.999990 0.000046 -0.004464
vn 0.999990 0.000046 -0.004464
vn 0.999990 0.000046 -0.004464
vn 0.999990 0.000046 -0.004464
vn 0.999990 0.000046 -0.004464
vn 0.999990 0.000046 -0.004464
vn 0.999990 0.000046 -0.004464
vn 0.999990 0.000046 -0.004464
vn 0.999990 0.000046 -0.004464
vn 0.999990 0.000046 -0.004464
vn 0.999990 0.000046 -0.004464
vn 0.999990 0.000046 -0.004464
vn 0.999990 0.000046 -0.004464
vn 0.999990 0.000046 -0.004464
vn 0.999990 0.000046 -0.004464
vn 0.999990 0.000046 -0.004464
vn 0.999990 0.000046 -0.004464
vn 0.999990 0.000046 -0.004464
vn 0.999990 0.000046 -0.004464
vn 0.999990 0.000046 -0.004464
vn 0.999990 0.000046 -0.004464
vn 0.999990 0.000046 -0.004464
vn 0.999990 0.000046 -0.004464
vn 0.999990 0.000046 -0.004464
vn 0.999990 0.000046 -0.004464
vn 0.999990 0.000046 -0.004464
vn 0.999990 0.000046 -0.004464
vn 0.999990 0.000046 -0.004464
vn 0.999990 0.000046 -0.004464
vn 0.999990 0.000046 -0.004464
vn 0.999990 0.000046 -0.004464
vn 0.999990 0.000046 -0.004464
vn 0.999990 0.000046 -0.004464
vn 0.999990 0.000046 -0.004464
vn 0.999990 0.000046 -0.004464
vn 0.999990 0.000046 -0.004464
vn 0.999990 0.000046 -0.004464
vn 0.999990 0.000046 -0.004464
vn 0.999990 0.000046 -0.004464
vn 0.999990 0.000046 -0.004464
vn 0.999990 0.000046 -0.004464
vn 0.999990 0.000046 -0.004464
vn 0.999990 0.000046 -0.004464
vn 0.999990 0.000046 -0.004464
vn 0.999990 0.000046 -0.004464
vn 0.999990 0.000046 -0.004464
vn 0.999990 0.000046 -0.004464
vn 0.999990 0.000046 -0.004464
vn 0.999990 0.000046 -0.004464
vn 0.999990 0.000046 -0.004464
vn 0.999990 0.000046 -0.004464
vn 0.999990 0.000046 -0.004464
vn 0.999990 0.000046 -0.004464
vn 0.999990 0.000046 -0.004464
vn 0.999990 0.000046 -0.004464
vn 0.999990 0.000046 -0.004464
vn 0.999990 0.000046 -0.004464
vn 0.999990 0.000046 -0.004464
vn 0.999990 0.000046 -0.004464
vn 0.999990 0.000046 -0.004464
vn 0.999990 0.000046 -0.004464
vn 0.999990 0.000046 -0.004464
vn 0.999990 0.000046 -0.004464
vn 0.999990 0.000046 -0.004464
vn 0.999990 0.000046 -0.004464
vn 0.999990 0.000046 -0.004464
vn 0.999990 0.000046 -0.004464
vn 0.999990 0.000046 -0.004464
vn 0.999990 0.000046 -0.004464
vn 0.999990 0.000046 -0.004464
vn 0.999990 0.000046 -0.004464
vn 0.999990 0.000046 -0.004464
vn 0.999990 0.000046 -0.004464
vn 0.999990 0.000046 -0.004464
vn 0.999990 0.000046 -0.004464
vn 0.999990 0.000046 -0.004464
vn 0.999990 0.000046 -0.004464
vn 0.999990 0.000046 -0.004464
vn 0.999990 0.000046 -0.004464
vn 0.999990 0.000046 -0.004464
vn 0.999990 0.000046 -0.004464
vn 0.999990 0.000046 -0.004464
vn 0.999990 0.000046 -0.004464
vn 0.999990 0.000046 -0.004464
vn -0.999990 -0.000046 0.004464
vn -0.999990 -0.000046 0.004464
vn -0.999990 -0.000046 0.004464
vn -0.999990 -0.000046 0.004464
vn -0.999990 -0.000046 0.004464
vn -0.999990 -0.000046 0.004464
vn -0.999990 -0.000046 0.004464
vn -0.999990 -0.000046 0.004464
vn -0.999990 -0.000046 0.004464
vn -0.999990 -0.000046 0.004464
vn -0.999990 -0.000046 0.004464
vn -0.999990 -0.000046 0.004464
vn 0.000043 -1.000000 -0.000723
vn 0.000043 -1.000000 -0.000723
vn 0.000043 -1.000000 -0.000723
vn 0.000043 -1.000000 -0.000723
vn 0.000043 -1.000000 -0.000723
vn 0.000043 -1.000000 -0.000723
vn -0.000043 1.000000 0.000723
vn -0.000043 1.000000 0.000723
vn -0.000043 1.000000 0.000723
vn -0.000043 1.000000 0.000723
vn -0.000043 1.000000 0.000723
vn -0.000043 1.000000 0.000723
s off
g Cabeza:Mesh
usemtl Cabeza:palette
f 3/1/1 2/2/2 1/3/3
f 4/4/4 2/5/5 3/1/6
f 5/6/7 4/7/8 3/8/9
f 6/9/10 2/10/11 4/11/12
f 6/12/13 4/13/14 5/6/15
f 7/14/16 6/15/17 5/16/18
f 8/17/19 2/18/20 6/19/21
f 8/20/22 6/21/23 7/22/24
f 9/23/25 8/24/26 7/25/27
f 10/26/28 8/27/29 9/23/30
f 11/28/31 12/29/32 13/30/33
f 13/31/34 12/32/35 14/33/36
f 13/34/37 14/35/38 15/36/39
f 14/37/40 12/38/41 16/39/42
f 15/40/43 14/41/44 16/42/45
f 15/43/46 16/44/47 17/45/48
f 16/46/49 12/47/50 18/48/51
f 17/49/52 16/50/53 18/51/54
f 17/52/55 18/53/56 19/54/57
f 19/55/58 18/56/59 20/57/60
f 26/58/61 22/59/62 21/60/63
f 26/61/64 23/62/65 22/63/66
f 27/64/67 23/65/68 26/66/69
f 28/67/70 24/68/71 23/69/72
f 28/70/73 23/71/74 27/72/75
f 29/73/76 25/74/77 24/75/78
f 29/76/79 24/77/80 28/78/81
f 30/79/82 26/80/83 21/81/84
f 31/82/85 26/83/86 30/84/87
f 32/85/88 27/86/89 26/87/90
f 32/88/91 26/89/92 31/90/93
f 33/91/94 28/92/95 27/93/96
f 33/94/97 27/95/98 32/96/99
f 34/97/100 29/98/101 28/99/102
f 34/100/103 28/101/104 33/102/105
f 35/103/106 25/104/107 29/105/108
f 35/106/109 29/107/110 34/108/111
f 36/109/112 32/110/113 31/111/114
f 36/112/115 34/113/116 33/114/117
f 36/115/118 35/116/119 34/117/120
f 36/118/121 33/119/122 32/120/123
f 37/121/124 25/122/125 35/123/126
f 37/124/127 35/125/128 36/126/129
f 38/127/130 31/128/131 30/129/132
f 38/130/133 30/131/134 21/132/135
f 39/133/136 36/134/137 31/135/138
f 39/136/139 31/137/140 38/138/141
f 40/139/142 36/140/143 39/141/144
f 41/142/145 36/143/146 40/144/147
f 42/145/148 37/146/149 36/147/150
f 42/148/151 36/149/152 41/150/153
f 43/151/154 41/152/155 40/153/156
f 43/154/157 39/155/158 38/156/159
f 43/157/160 40/158/161 39/159/162
f 44/160/163 42/161/164 41/162/165
f 44/163/166 41/164/167 43/165/168
f 45/166/169 37/167/170 42/168/171
f 45/169/172 42/170/173 44/171/174
f 46/172/175 25/173/176 37/174/177
f 46/175/178 37/176/179 45/177/180
f 47/178/181 38/179/182 21/180/183
f 47/181/184 43/182/185 38/183/186
f 48/184/187 45/185/188 44/186/189
f 48/187/190 43/188/191 47/189/192
f 48/190/193 44/191/194 43/192/195
f 49/193/196 46/194/197 45/195/198
f 49/196/199 45/197/200 48/198/201
f 50/199/202 25/200/203 46/201/204
f 50/202/205 46/203/206 49/204/207
f 51/205/208 25/206/209 50/207/210
f 52/208/211 53/209/212 55/210/213
f 53/211/214 54/212/215 56/213/216
f 55/214/217 53/215/218 56/216/219
f 56/217/220 54/218/221 57/219/222
f 60/220/223 59/221/224 58/222/225
f 61/223/226 59/224/227 60/225/228
f 62/226/229 63/227/230 64/228/231
f 64/229/232 63/230/233 65/231/234
